VL.ufo
<glyph name="exclam" format="2">
  <advance width="500"/>
  <unicode hex="0021"/>
  <outline>
    <contour>
      <point x="200" y="740" type="line"/>
      <point x="300" y="740" type="line"/>
      <point x="290" y="218" type="line"/>
      <point x="210" y="218" type="line"/>
    </contour>
    <contour>
      <point x="195" y="0" type="line"/>
      <point x="195" y="132" type="line"/>
      <point x="305" y="132" type="line"/>
      <point x="305" y="0" type="line"/>
    </contour>
  </outline>
</glyph>
<glyph name="quotedbl" format="2">
  <advance width="500"/>
  <unicode hex="0022"/>
  <outline>
    <contour>
      <point x="275" y="780" type="line"/>
      <point x="375" y="780" type="line"/>
      <point x="355" y="500" type="line"/>
      <point x="295" y="500" type="line"/>
    </contour>
    <contour>
      <point x="125" y="780" type="line"/>
      <point x="225" y="780" type="line"/>
      <point x="205" y="500" type="line"/>
      <point x="145" y="500" type="line"/>
    </contour>
  </outline>
</glyph>
<glyph name="numbersign" format="2">
  <advance width="500"/>
  <unicode hex="0023"/>
  <outline>
    <contour>
      <point x="40" y="188" type="line"/>
      <point x="40" y="260" type="line"/>
      <point x="117" y="260" type="line"/>
      <point x="146" y="488" type="line"/>
      <point x="75" y="488" type="line"/>
      <point x="75" y="560" type="line"/>
      <point x="155" y="560" type="line"/>
      <point x="176" y="730" type="line"/>
      <point x="258" y="730" type="line"/>
      <point x="237" y="560" type="line"/>
      <point x="313" y="560" type="line"/>
      <point x="334" y="730" type="line"/>
      <point x="416" y="730" type="line"/>
      <point x="395" y="560" type="line"/>
      <point x="460" y="560" type="line"/>
      <point x="460" y="488" type="line"/>
      <point x="386" y="488" type="line"/>
      <point x="357" y="260" type="line"/>
      <point x="425" y="260" type="line"/>
      <point x="425" y="188" type="line"/>
      <point x="348" y="188" type="line"/>
      <point x="325" y="0" type="line"/>
      <point x="243" y="0" type="line"/>
      <point x="266" y="188" type="line"/>
      <point x="190" y="188" type="line"/>
      <point x="167" y="0" type="line"/>
      <point x="85" y="0" type="line"/>
      <point x="108" y="188" type="line"/>
    </contour>
    <contour>
      <point x="199" y="260" type="line"/>
      <point x="275" y="260" type="line"/>
      <point x="304" y="488" type="line"/>
      <point x="228" y="488" type="line"/>
    </contour>
  </outline>
</glyph>
<glyph name="dollar" format="2">
  <advance width="500"/>
  <unicode hex="0024"/>
  <outline>
    <contour>
      <point x="293" y="311" type="qcurve"/>
      <point x="293" y="97" type="line"/>
      <point x="351" y="118"/>
      <point x="351" y="205" type="qcurve"/>
      <point x="351" y="276"/>
    </contour>
    <contour>
      <point x="293" y="19" type="qcurve"/>
      <point x="293" y="-85" type="line"/>
      <point x="217" y="-85" type="line"/>
      <point x="217" y="16" type="line"/>
      <point x="147" y="22"/>
      <point x="80" y="65" type="qcurve"/>
      <point x="80" y="160" type="line"/>
      <point x="145" y="103"/>
      <point x="217" y="91" type="qcurve"/>
      <point x="217" y="342" type="line"/>
      <point x="140" y="373"/>
      <point x="75" y="462"/>
      <point x="75" y="535" type="qcurve"/>
      <point x="75" y="611"/>
      <point x="149" y="704"/>
      <point x="217" y="713" type="qcurve"/>
      <point x="217" y="815" type="line"/>
      <point x="293" y="815" type="line"/>
      <point x="293" y="713" type="line"/>
      <point x="362" y="705"/>
      <point x="420" y="675" type="qcurve"/>
      <point x="420" y="585" type="line"/>
      <point x="368" y="623"/>
      <point x="293" y="637" type="qcurve"/>
      <point x="293" y="400" type="line"/>
      <point x="370" y="369"/>
      <point x="435" y="278"/>
      <point x="435" y="205" type="qcurve"/>
      <point x="435" y="42"/>
    </contour>
    <contour>
      <point x="217" y="429" type="qcurve"/>
      <point x="217" y="636" type="line"/>
      <point x="159" y="618"/>
      <point x="159" y="535" type="qcurve"/>
      <point x="159" y="462"/>
    </contour>
  </outline>
</glyph>
<glyph name="percent" format="2">
  <advance width="500"/>
  <unicode hex="0025"/>
  <outline>
    <contour>
      <point x="60" y="260" type="line"/>
      <point x="440" y="550" type="line"/>
      <point x="440" y="470" type="line"/>
      <point x="60" y="180" type="line"/>
    </contour>
    <contour>
      <point x="99" y="740"/>
      <point x="221" y="740"/>
      <point x="290" y="658"/>
      <point x="290" y="502"/>
      <point x="221" y="420"/>
      <point x="99" y="420"/>
      <point x="30" y="502"/>
      <point x="30" y="658"/>
    </contour>
    <contour>
      <point x="279" y="310"/>
      <point x="401" y="310"/>
      <point x="470" y="228"/>
      <point x="470" y="72"/>
      <point x="401" y="-10"/>
      <point x="279" y="-10"/>
      <point x="210" y="72"/>
      <point x="210" y="228"/>
    </contour>
    <contour>
      <point x="108" y="488"/>
      <point x="212" y="488"/>
      <point x="212" y="672"/>
      <point x="108" y="672"/>
    </contour>
    <contour>
      <point x="288" y="58"/>
      <point x="392" y="58"/>
      <point x="392" y="242"/>
      <point x="288" y="242"/>
    </contour>
  </outline>
</glyph>
<glyph name="ampersand" format="2">
  <advance width="500"/>
  <unicode hex="0026"/>
  <outline>
    <contour>
      <point x="266" y="665"/>
      <point x="190" y="665"/>
      <point x="145" y="625"/>
      <point x="145" y="590" type="qcurve"/>
      <point x="145" y="561"/>
      <point x="170" y="501"/>
      <point x="211" y="436" type="qcurve"/>
      <point x="270" y="487"/>
      <point x="310" y="552"/>
      <point x="310" y="590" type="qcurve"/>
      <point x="310" y="623"/>
    </contour>
    <contour>
      <point x="151" y="385" type="qcurve"/>
      <point x="142" y="399" type="line"/>
      <point x="95" y="470"/>
      <point x="62" y="551"/>
      <point x="62" y="590" type="qcurve"/>
      <point x="62" y="656"/>
      <point x="152" y="740"/>
      <point x="298" y="740"/>
      <point x="390" y="656"/>
      <point x="390" y="590" type="qcurve"/>
      <point x="390" y="533"/>
      <point x="329" y="434"/>
      <point x="253" y="371" type="qcurve"/>
      <point x="372" y="188" type="line"/>
      <point x="372" y="405" type="line"/>
      <point x="452" y="405" type="line"/>
      <point x="452" y="152" type="line"/>
      <point x="439" y="124"/>
      <point x="426" y="106" type="qcurve"/>
      <point x="495" y="0" type="line"/>
      <point x="408" y="0" type="line"/>
      <point x="375" y="49" type="line"/>
      <point x="306" y="-10"/>
      <point x="200" y="-10" type="qcurve"/>
      <point x="118" y="-10"/>
      <point x="25" y="82"/>
      <point x="25" y="165" type="qcurve"/>
      <point x="25" y="272"/>
    </contour>
    <contour>
      <point x="331" y="115" type="qcurve"/>
      <point x="194" y="321" type="line"/>
      <point x="110" y="242"/>
      <point x="110" y="168" type="qcurve"/>
      <point x="110" y="117"/>
      <point x="164" y="65"/>
      <point x="215" y="65" type="qcurve"/>
      <point x="285" y="65"/>
    </contour>
  </outline>
</glyph>
<glyph name="quotesingle" format="2">
  <advance width="500"/>
  <unicode hex="0027"/>
  <outline>
    <contour>
      <point x="195" y="780" type="line"/>
      <point x="305" y="780" type="line"/>
      <point x="280" y="500" type="line"/>
      <point x="220" y="500" type="line"/>
    </contour>
  </outline>
</glyph>
<glyph name="parenleft" format="2">
  <advance width="500"/>
  <unicode hex="0028"/>
  <outline>
    <contour>
      <point x="125" y="40"/>
      <point x="125" y="590"/>
      <point x="319" y="770" type="qcurve"/>
      <point x="395" y="770" type="line"/>
      <point x="199" y="586"/>
      <point x="199" y="44"/>
      <point x="395" y="-140" type="qcurve"/>
      <point x="319" y="-140" type="line"/>
    </contour>
  </outline>
</glyph>
<glyph name="parenright" format="2">
  <advance width="500"/>
  <unicode hex="0029"/>
  <outline>
    <contour>
      <point x="375" y="590"/>
      <point x="375" y="40"/>
      <point x="181" y="-140" type="qcurve"/>
      <point x="105" y="-140" type="line"/>
      <point x="301" y="44"/>
      <point x="301" y="586"/>
      <point x="105" y="770" type="qcurve"/>
      <point x="181" y="770" type="line"/>
    </contour>
  </outline>
</glyph>
<glyph name="asterisk" format="2">
  <advance width="500"/>
  <unicode hex="002A"/>
  <outline>
    <contour>
      <point x="214" y="750" type="line"/>
      <point x="286" y="750" type="line"/>
      <point x="283" y="581" type="line"/>
      <point x="443" y="636" type="line"/>
      <point x="465" y="568" type="line"/>
      <point x="304" y="518" type="line"/>
      <point x="405" y="383" type="line"/>
      <point x="347" y="341" type="line"/>
      <point x="250" y="479" type="line"/>
      <point x="153" y="341" type="line"/>
      <point x="95" y="383" type="line"/>
      <point x="196" y="518" type="line"/>
      <point x="35" y="568" type="line"/>
      <point x="57" y="636" type="line"/>
      <point x="217" y="581" type="line"/>
    </contour>
  </outline>
</glyph>
<glyph name="plus" format="2">
  <advance width="500"/>
  <unicode hex="002B"/>
  <outline>
    <contour>
      <point x="291" y="555" type="line"/>
      <point x="291" y="341" type="line"/>
      <point x="440" y="341" type="line"/>
      <point x="440" y="269" type="line"/>
      <point x="291" y="269" type="line"/>
      <point x="291" y="55" type="line"/>
      <point x="209" y="55" type="line"/>
      <point x="209" y="269" type="line"/>
      <point x="60" y="269" type="line"/>
      <point x="60" y="341" type="line"/>
      <point x="209" y="341" type="line"/>
      <point x="209" y="555" type="line"/>
    </contour>
  </outline>
</glyph>
<glyph name="comma" format="2">
  <advance width="500"/>
  <unicode hex="002C"/>
  <outline>
    <contour>
      <point x="210" y="150" type="line"/>
      <point x="330" y="150" type="line"/>
      <point x="220" y="-130" type="line"/>
      <point x="150" y="-130" type="line"/>
    </contour>
  </outline>
</glyph>
<glyph name="hyphen" format="2">
  <advance width="500"/>
  <unicode hex="002D"/>
  <outline>
    <contour>
      <point x="105" y="257" type="line"/>
      <point x="105" y="329" type="line"/>
      <point x="395" y="329" type="line"/>
      <point x="395" y="257" type="line"/>
    </contour>
  </outline>
</glyph>
<glyph name="period" format="2">
  <advance width="500"/>
  <unicode hex="002E"/>
  <outline>
    <contour>
      <point x="185" y="0" type="line"/>
      <point x="185" y="150" type="line"/>
      <point x="315" y="150" type="line"/>
      <point x="315" y="0" type="line"/>
    </contour>
  </outline>
</glyph>
<glyph name="slash" format="2">
  <advance width="500"/>
  <unicode hex="002F"/>
  <outline>
    <contour>
      <point x="452" y="740" type="line"/>
      <point x="120" y="-41" type="line"/>
      <point x="48" y="-41" type="line"/>
      <point x="380" y="740" type="line"/>
    </contour>
  </outline>
</glyph>
<glyph name="zero" format="2">
  <advance width="500"/>
  <unicode hex="0030"/>
  <outline>
    <contour>
      <point x="202" y="740"/>
      <point x="298" y="740"/>
      <point x="366" y="704"/>
      <point x="416" y="620"/>
      <point x="440" y="473"/>
      <point x="440" y="257"/>
      <point x="416" y="110"/>
      <point x="366" y="26"/>
      <point x="298" y="-10"/>
      <point x="202" y="-10"/>
      <point x="134" y="26"/>
      <point x="84" y="110"/>
      <point x="60" y="257"/>
      <point x="60" y="473"/>
      <point x="84" y="620"/>
      <point x="134" y="704"/>
    </contour>
    <contour>
      <point x="142" y="249" type="qcurve"/>
      <point x="338" y="588" type="line"/>
      <point x="312" y="670"/>
      <point x="250" y="670" type="qcurve"/>
      <point x="214" y="670"/>
      <point x="166" y="618"/>
      <point x="138" y="480"/>
      <point x="138" y="365" type="qcurve"/>
      <point x="138" y="315"/>
    </contour>
    <contour>
      <point x="158" y="155" type="line"/>
      <point x="184" y="60"/>
      <point x="250" y="60" type="qcurve"/>
      <point x="286" y="60"/>
      <point x="334" y="112"/>
      <point x="362" y="250"/>
      <point x="362" y="365" type="qcurve"/>
      <point x="362" y="442"/>
      <point x="356" y="498" type="qcurve"/>
    </contour>
  </outline>
</glyph>
<glyph name="one" format="2">
  <advance width="500"/>
  <unicode hex="0031"/>
  <outline>
    <contour>
      <point x="258" y="0" type="line"/>
      <point x="258" y="654" type="line"/>
      <point x="256" y="655" type="line"/>
      <point x="83" y="553" type="line"/>
      <point x="83" y="634" type="line"/>
      <point x="258" y="740" type="line"/>
      <point x="340" y="740" type="line"/>
      <point x="340" y="0" type="line"/>
    </contour>
  </outline>
</glyph>
<glyph name="two" format="2">
  <advance width="500"/>
  <unicode hex="0032"/>
  <outline>
    <contour>
      <point x="175" y="74" type="qcurve"/>
      <point x="175" y="72" type="line"/>
      <point x="420" y="72" type="line"/>
      <point x="420" y="0" type="line"/>
      <point x="80" y="0" type="line"/>
      <point x="80" y="72" type="line"/>
      <point x="331" y="360"/>
      <point x="331" y="550" type="qcurve"/>
      <point x="331" y="666"/>
      <point x="238" y="666" type="qcurve"/>
      <point x="208" y="666"/>
      <point x="116" y="621"/>
      <point x="80" y="588" type="qcurve"/>
      <point x="80" y="675" type="line"/>
      <point x="155" y="740"/>
      <point x="250" y="740" type="qcurve"/>
      <point x="335" y="740"/>
      <point x="415" y="646"/>
      <point x="415" y="550" type="qcurve"/>
      <point x="415" y="451"/>
      <point x="307" y="233"/>
    </contour>
  </outline>
</glyph>
<glyph name="three" format="2">
  <advance width="500"/>
  <unicode hex="0033"/>
  <outline>
    <contour>
      <point x="330" y="665" type="line"/>
      <point x="330" y="667" type="line"/>
      <point x="80" y="667" type="line"/>
      <point x="80" y="740" type="line"/>
      <point x="425" y="740" type="line"/>
      <point x="425" y="667" type="line"/>
      <point x="245" y="435" type="line"/>
      <point x="245" y="433" type="line"/>
      <point x="255" y="433" type="line"/>
      <point x="346" y="433"/>
      <point x="430" y="330"/>
      <point x="430" y="213" type="qcurve"/>
      <point x="430" y="-10"/>
      <point x="235" y="-10" type="qcurve"/>
      <point x="162" y="-10"/>
      <point x="90" y="20" type="qcurve"/>
      <point x="90" y="108" type="line"/>
      <point x="167" y="64"/>
      <point x="220" y="65" type="qcurve"/>
      <point x="284" y="65"/>
      <point x="346" y="135"/>
      <point x="346" y="213" type="qcurve"/>
      <point x="346" y="303"/>
      <point x="296" y="360"/>
      <point x="220" y="360" type="qcurve"/>
      <point x="150" y="360" type="line"/>
      <point x="150" y="433" type="line"/>
    </contour>
  </outline>
</glyph>
<glyph name="four" format="2">
  <advance width="500"/>
  <unicode hex="0034"/>
  <outline>
    <contour>
      <point x="293" y="598" type="line"/>
      <point x="291" y="598" type="line"/>
      <point x="116" y="252" type="line"/>
      <point x="116" y="250" type="line"/>
      <point x="293" y="250" type="line"/>
    </contour>
    <contour>
      <point x="293" y="177" type="line"/>
      <point x="40" y="177" type="line"/>
      <point x="40" y="261" type="line"/>
      <point x="283" y="740" type="line"/>
      <point x="375" y="740" type="line"/>
      <point x="375" y="250" type="line"/>
      <point x="460" y="250" type="line"/>
      <point x="460" y="177" type="line"/>
      <point x="375" y="177" type="line"/>
      <point x="375" y="0" type="line"/>
      <point x="293" y="0" type="line"/>
    </contour>
  </outline>
</glyph>
<glyph name="five" format="2">
  <advance width="500"/>
  <unicode hex="0035"/>
  <outline>
    <contour>
      <point x="180" y="436" type="line"/>
      <point x="182" y="436" type="line"/>
      <point x="215" y="466"/>
      <point x="270" y="466" type="qcurve"/>
      <point x="430" y="466"/>
      <point x="430" y="233" type="qcurve"/>
      <point x="430" y="106"/>
      <point x="331" y="-10"/>
      <point x="235" y="-10" type="qcurve"/>
      <point x="161" y="-10"/>
      <point x="90" y="20" type="qcurve"/>
      <point x="90" y="108" type="line"/>
      <point x="165" y="64"/>
      <point x="230" y="65" type="qcurve"/>
      <point x="346" y="65"/>
      <point x="346" y="233" type="qcurve"/>
      <point x="346" y="391"/>
      <point x="250" y="391" type="qcurve"/>
      <point x="204" y="391"/>
      <point x="170" y="350" type="qcurve"/>
      <point x="95" y="350" type="line"/>
      <point x="105" y="740" type="line"/>
      <point x="410" y="740" type="line"/>
      <point x="410" y="667" type="line"/>
      <point x="187" y="667" type="line"/>
    </contour>
  </outline>
</glyph>
<glyph name="six" format="2">
  <advance width="500"/>
  <unicode hex="0036"/>
  <outline>
    <contour>
      <point x="285" y="740" type="qcurve"/>
      <point x="346" y="740"/>
      <point x="400" y="720" type="qcurve"/>
      <point x="400" y="643" type="line"/>
      <point x="350" y="668"/>
      <point x="295" y="668" type="qcurve"/>
      <point x="225" y="668"/>
      <point x="163" y="571"/>
      <point x="155" y="435" type="qcurve"/>
      <point x="157" y="435" type="line"/>
      <point x="207" y="485"/>
      <point x="270" y="485" type="qcurve"/>
      <point x="357" y="485"/>
      <point x="440" y="373"/>
      <point x="440" y="245" type="qcurve"/>
      <point x="440" y="111"/>
      <point x="347" y="-10"/>
      <point x="255" y="-10" type="qcurve"/>
      <point x="190" y="-10"/>
      <point x="112" y="47"/>
      <point x="70" y="193"/>
      <point x="70" y="320" type="qcurve"/>
      <point x="70" y="478"/>
      <point x="121" y="666"/>
      <point x="212" y="740"/>
    </contour>
    <contour>
      <point x="255" y="62" type="qcurve"/>
      <point x="309" y="62"/>
      <point x="358" y="140"/>
      <point x="358" y="245" type="qcurve"/>
      <point x="358" y="339"/>
      <point x="311" y="415"/>
      <point x="260" y="415" type="qcurve"/>
      <point x="154" y="415"/>
      <point x="154" y="255" type="qcurve"/>
      <point x="154" y="148"/>
      <point x="204" y="62"/>
    </contour>
  </outline>
</glyph>
<glyph name="seven" format="2">
  <advance width="500"/>
  <unicode hex="0037"/>
  <outline>
    <contour>
      <point x="345" y="665" type="qcurve"/>
      <point x="345" y="667" type="line"/>
      <point x="75" y="667" type="line"/>
      <point x="75" y="740" type="line"/>
      <point x="425" y="740" type="line"/>
      <point x="425" y="667" type="line"/>
      <point x="297" y="367"/>
      <point x="215" y="0" type="qcurve"/>
      <point x="127" y="0" type="line"/>
      <point x="211" y="358"/>
    </contour>
  </outline>
</glyph>
<glyph name="eight" format="2">
  <advance width="500"/>
  <unicode hex="0038"/>
  <outline>
    <contour>
      <point x="255" y="670" type="qcurve"/>
      <point x="202" y="670"/>
      <point x="145" y="615"/>
      <point x="145" y="565" type="qcurve"/>
      <point x="145" y="511"/>
      <point x="203" y="431"/>
      <point x="250" y="420" type="qcurve"/>
      <point x="302" y="434"/>
      <point x="359" y="509"/>
      <point x="359" y="565" type="qcurve"/>
      <point x="359" y="612"/>
      <point x="302" y="670"/>
    </contour>
    <contour>
      <point x="346" y="-10"/>
      <point x="154" y="-10"/>
      <point x="50" y="92"/>
      <point x="50" y="190" type="qcurve"/>
      <point x="50" y="258"/>
      <point x="116" y="360"/>
      <point x="175" y="384" type="qcurve"/>
      <point x="175" y="386" type="line"/>
      <point x="127" y="409"/>
      <point x="65" y="510"/>
      <point x="65" y="565" type="qcurve"/>
      <point x="65" y="647"/>
      <point x="163" y="740"/>
      <point x="337" y="740"/>
      <point x="435" y="646"/>
      <point x="435" y="565" type="qcurve"/>
      <point x="435" y="509"/>
      <point x="374" y="414"/>
      <point x="325" y="391" type="qcurve"/>
      <point x="325" y="389" type="line"/>
      <point x="384" y="366"/>
      <point x="450" y="262"/>
      <point x="450" y="190" type="qcurve"/>
      <point x="450" y="92"/>
    </contour>
    <contour>
      <point x="255" y="60" type="qcurve"/>
      <point x="308" y="60"/>
      <point x="370" y="127"/>
      <point x="370" y="190" type="qcurve"/>
      <point x="370" y="320"/>
      <point x="245" y="350" type="qcurve"/>
      <point x="184" y="334"/>
      <point x="126" y="257"/>
      <point x="126" y="190" type="qcurve"/>
      <point x="126" y="128"/>
      <point x="196" y="60"/>
    </contour>
  </outline>
</glyph>
<glyph name="nine" format="2">
  <advance width="500"/>
  <unicode hex="0039"/>
  <outline>
    <contour>
      <point x="215" y="-10" type="qcurve"/>
      <point x="154" y="-10"/>
      <point x="100" y="10" type="qcurve"/>
      <point x="100" y="90" type="line"/>
      <point x="152" y="64"/>
      <point x="205" y="64" type="qcurve"/>
      <point x="275" y="64"/>
      <point x="337" y="159"/>
      <point x="345" y="295" type="qcurve"/>
      <point x="343" y="295" type="line"/>
      <point x="293" y="245"/>
      <point x="230" y="245" type="qcurve"/>
      <point x="146" y="245"/>
      <point x="60" y="363"/>
      <point x="60" y="495" type="qcurve"/>
      <point x="60" y="621"/>
      <point x="152" y="740"/>
      <point x="245" y="740" type="qcurve"/>
      <point x="313" y="740"/>
      <point x="391" y="684"/>
      <point x="430" y="539"/>
      <point x="430" y="410" type="qcurve"/>
      <point x="430" y="252"/>
      <point x="379" y="64"/>
      <point x="288" y="-10"/>
    </contour>
    <contour>
      <point x="245" y="668" type="qcurve"/>
      <point x="190" y="668"/>
      <point x="142" y="592"/>
      <point x="142" y="398"/>
      <point x="192" y="315"/>
      <point x="240" y="315" type="qcurve"/>
      <point x="289" y="315"/>
      <point x="346" y="398"/>
      <point x="346" y="485" type="qcurve"/>
      <point x="346" y="585"/>
      <point x="296" y="668"/>
    </contour>
  </outline>
</glyph>
<glyph name="colon" format="2">
  <advance width="500"/>
  <unicode hex="003A"/>
  <outline>
    <contour>
      <point x="190" y="390" type="line"/>
      <point x="190" y="540" type="line"/>
      <point x="310" y="540" type="line"/>
      <point x="310" y="390" type="line"/>
    </contour>
    <contour>
      <point x="190" y="0" type="line"/>
      <point x="190" y="150" type="line"/>
      <point x="310" y="150" type="line"/>
      <point x="310" y="0" type="line"/>
    </contour>
  </outline>
</glyph>
<glyph name="less" format="2">
  <advance width="500"/>
  <unicode hex="003C"/>
  <outline>
    <contour>
      <point x="435" y="510" type="line"/>
      <point x="105" y="306" type="line"/>
      <point x="105" y="304" type="line"/>
      <point x="435" y="100" type="line"/>
      <point x="435" y="20" type="line"/>
      <point x="55" y="265" type="line"/>
      <point x="55" y="345" type="line"/>
      <point x="435" y="590" type="line"/>
    </contour>
  </outline>
</glyph>
<glyph name="equal" format="2">
  <advance width="500"/>
  <unicode hex="003D"/>
  <outline>
    <contour>
      <point x="60" y="373" type="line"/>
      <point x="60" y="445" type="line"/>
      <point x="440" y="445" type="line"/>
      <point x="440" y="373" type="line"/>
    </contour>
    <contour>
      <point x="60" y="165" type="line"/>
      <point x="60" y="237" type="line"/>
      <point x="440" y="237" type="line"/>
      <point x="440" y="165" type="line"/>
    </contour>
  </outline>
</glyph>
<glyph name="greater" format="2">
  <advance width="500"/>
  <unicode hex="003E"/>
  <outline>
    <contour>
      <point x="65" y="510" type="line"/>
      <point x="65" y="590" type="line"/>
      <point x="445" y="345" type="line"/>
      <point x="445" y="265" type="line"/>
      <point x="65" y="20" type="line"/>
      <point x="65" y="100" type="line"/>
      <point x="395" y="304" type="line"/>
      <point x="395" y="306" type="line"/>
    </contour>
  </outline>
</glyph>
<glyph name="question" format="2">
  <advance width="500"/>
  <unicode hex="003F"/>
  <outline>
    <contour>
      <point x="445" y="580" type="qcurve"/>
      <point x="445" y="539"/>
      <point x="417" y="467"/>
      <point x="388" y="429"/>
      <point x="360" y="399" type="qcurve"/>
      <point x="331" y="366"/>
      <point x="303" y="328"/>
      <point x="275" y="256"/>
      <point x="275" y="215" type="qcurve"/>
      <point x="195" y="215" type="line"/>
      <point x="195" y="270"/>
      <point x="228" y="363"/>
      <point x="260" y="406"/>
      <point x="291" y="441" type="qcurve"/>
      <point x="315" y="468"/>
      <point x="339" y="499"/>
      <point x="361" y="551"/>
      <point x="361" y="580" type="qcurve"/>
      <point x="361" y="621"/>
      <point x="302" y="666"/>
      <point x="245" y="666" type="qcurve"/>
      <point x="160" y="666"/>
      <point x="65" y="605" type="qcurve"/>
      <point x="65" y="695" type="line"/>
      <point x="158" y="740"/>
      <point x="255" y="740" type="qcurve"/>
      <point x="346" y="740"/>
      <point x="445" y="656"/>
    </contour>
    <contour>
      <point x="180" y="0" type="line"/>
      <point x="180" y="130" type="line"/>
      <point x="290" y="130" type="line"/>
      <point x="290" y="0" type="line"/>
    </contour>
  </outline>
</glyph>
<glyph name="at" format="2">
  <advance width="500"/>
  <unicode hex="0040"/>
  <outline>
    <contour>
      <point x="375" y="258" type="qcurve"/>
      <point x="375" y="425" type="line"/>
      <point x="375" y="466"/>
      <point x="343" y="510"/>
      <point x="315" y="510" type="qcurve"/>
      <point x="275" y="510"/>
      <point x="243" y="451"/>
      <point x="243" y="365" type="qcurve"/>
      <point x="243" y="283"/>
      <point x="277" y="220"/>
      <point x="315" y="220" type="qcurve"/>
      <point x="359" y="220"/>
    </contour>
    <contour>
      <point x="165" y="365" type="qcurve"/>
      <point x="165" y="580"/>
      <point x="305" y="580" type="qcurve"/>
      <point x="343" y="580"/>
      <point x="378" y="555" type="qcurve"/>
      <point x="380" y="555" type="line"/>
      <point x="380" y="560" type="line"/>
      <point x="380" y="610"/>
      <point x="325" y="668"/>
      <point x="280" y="668" type="qcurve"/>
      <point x="197" y="668"/>
      <point x="115" y="527"/>
      <point x="115" y="365" type="qcurve"/>
      <point x="115" y="199"/>
      <point x="195" y="62"/>
      <point x="280" y="62" type="qcurve"/>
      <point x="342" y="62"/>
      <point x="405" y="100" type="qcurve"/>
      <point x="405" y="20" type="line"/>
      <point x="346" y="-10"/>
      <point x="275" y="-10" type="qcurve"/>
      <point x="153" y="-10"/>
      <point x="35" y="162"/>
      <point x="35" y="365" type="qcurve"/>
      <point x="35" y="562"/>
      <point x="156" y="740"/>
      <point x="275" y="740" type="qcurve"/>
      <point x="362" y="740"/>
      <point x="455" y="640"/>
      <point x="455" y="540" type="qcurve"/>
      <point x="455" y="215" type="line"/>
      <point x="390" y="150"/>
      <point x="315" y="150" type="qcurve"/>
      <point x="239" y="150"/>
      <point x="165" y="248"/>
    </contour>
  </outline>
</glyph>
<glyph name="A" format="2">
  <advance width="500"/>
  <unicode hex="0041"/>
  <outline>
    <contour>
      <point x="249" y="669" type="line"/>
      <point x="247" y="669" type="line"/>
      <point x="164" y="284" type="line"/>
      <point x="332" y="284" type="line"/>
    </contour>
    <contour>
      <point x="348" y="213" type="line"/>
      <point x="148" y="213" type="line"/>
      <point x="102" y="0" type="line"/>
      <point x="20" y="0" type="line"/>
      <point x="200" y="740" type="line"/>
      <point x="300" y="740" type="line"/>
      <point x="480" y="0" type="line"/>
      <point x="394" y="0" type="line"/>
    </contour>
  </outline>
</glyph>
<glyph name="B" format="2">
  <advance width="500"/>
  <unicode hex="0042"/>
  <outline>
    <contour>
      <point x="157" y="430" type="line"/>
      <point x="202" y="430" type="line"/>
      <point x="282" y="430"/>
      <point x="355" y="489"/>
      <point x="355" y="550" type="qcurve"/>
      <point x="355" y="607"/>
      <point x="283" y="670"/>
      <point x="217" y="670" type="qcurve"/>
      <point x="181" y="670"/>
      <point x="157" y="662" type="qcurve"/>
    </contour>
    <contour>
      <point x="157" y="360" type="line"/>
      <point x="157" y="68" type="line"/>
      <point x="194" y="60"/>
      <point x="247" y="60" type="qcurve"/>
      <point x="373" y="60"/>
      <point x="373" y="220" type="qcurve"/>
      <point x="373" y="360"/>
      <point x="212" y="360" type="qcurve"/>
    </contour>
    <contour>
      <point x="455" y="210" type="qcurve"/>
      <point x="455" y="-10"/>
      <point x="230" y="-10" type="qcurve"/>
      <point x="150" y="-10"/>
      <point x="75" y="5" type="qcurve"/>
      <point x="75" y="725" type="line"/>
      <point x="150" y="740"/>
      <point x="230" y="740" type="qcurve"/>
      <point x="435" y="740"/>
      <point x="435" y="560" type="qcurve"/>
      <point x="435" y="499"/>
      <point x="374" y="415"/>
      <point x="320" y="401" type="qcurve"/>
      <point x="320" y="399" type="line"/>
      <point x="378" y="388"/>
      <point x="455" y="282"/>
    </contour>
  </outline>
</glyph>
<glyph name="C" format="2">
  <advance width="500"/>
  <unicode hex="0043"/>
  <outline>
    <contour>
      <point x="55" y="365" type="qcurve"/>
      <point x="55" y="562"/>
      <point x="176" y="740"/>
      <point x="295" y="740" type="qcurve"/>
      <point x="361" y="740"/>
      <point x="420" y="710" type="qcurve"/>
      <point x="420" y="635" type="line"/>
      <point x="360" y="668"/>
      <point x="300" y="668" type="qcurve"/>
      <point x="135" y="668"/>
      <point x="135" y="365" type="qcurve"/>
      <point x="135" y="201"/>
      <point x="219" y="62"/>
      <point x="300" y="62" type="qcurve"/>
      <point x="362" y="62"/>
      <point x="425" y="100" type="qcurve"/>
      <point x="425" y="20" type="line"/>
      <point x="366" y="-10"/>
      <point x="295" y="-10" type="qcurve"/>
      <point x="173" y="-10"/>
      <point x="55" y="162"/>
    </contour>
  </outline>
</glyph>
<glyph name="D" format="2">
  <advance width="500"/>
  <unicode hex="0044"/>
  <outline>
    <contour>
      <point x="383" y="365" type="qcurve"/>
      <point x="383" y="533"/>
      <point x="296" y="668"/>
      <point x="202" y="668" type="qcurve"/>
      <point x="169" y="668"/>
      <point x="147" y="660" type="qcurve"/>
      <point x="147" y="70" type="line"/>
      <point x="169" y="62"/>
      <point x="202" y="62" type="qcurve"/>
      <point x="267" y="62"/>
      <point x="342" y="111"/>
      <point x="383" y="245"/>
    </contour>
    <contour>
      <point x="465" y="365" type="qcurve"/>
      <point x="465" y="158"/>
      <point x="338" y="-10"/>
      <point x="202" y="-10" type="qcurve"/>
      <point x="132" y="-10"/>
      <point x="65" y="5" type="qcurve"/>
      <point x="65" y="725" type="line"/>
      <point x="132" y="740"/>
      <point x="202" y="740" type="qcurve"/>
      <point x="339" y="740"/>
      <point x="465" y="569"/>
    </contour>
  </outline>
</glyph>
<glyph name="E" format="2">
  <advance width="500"/>
  <unicode hex="0045"/>
  <outline>
    <contour>
      <point x="162" y="667" type="line"/>
      <point x="162" y="436" type="line"/>
      <point x="410" y="436" type="line"/>
      <point x="410" y="365" type="line"/>
      <point x="162" y="365" type="line"/>
      <point x="162" y="73" type="line"/>
      <point x="420" y="73" type="line"/>
      <point x="420" y="0" type="line"/>
      <point x="80" y="0" type="line"/>
      <point x="80" y="740" type="line"/>
      <point x="420" y="740" type="line"/>
      <point x="420" y="667" type="line"/>
    </contour>
  </outline>
</glyph>
<glyph name="F" format="2">
  <advance width="500"/>
  <unicode hex="0046"/>
  <outline>
    <contour>
      <point x="172" y="365" type="line"/>
      <point x="172" y="0" type="line"/>
      <point x="90" y="0" type="line"/>
      <point x="90" y="740" type="line"/>
      <point x="420" y="740" type="line"/>
      <point x="420" y="667" type="line"/>
      <point x="172" y="667" type="line"/>
      <point x="172" y="436" type="line"/>
      <point x="410" y="436" type="line"/>
      <point x="410" y="365" type="line"/>
    </contour>
  </outline>
</glyph>
<glyph name="G" format="2">
  <advance width="500"/>
  <unicode hex="0047"/>
  <outline>
    <contour>
      <point x="370" y="85" type="qcurve"/>
      <point x="370" y="360" type="line"/>
      <point x="215" y="360" type="line"/>
      <point x="215" y="430" type="line"/>
      <point x="450" y="430" type="line"/>
      <point x="450" y="30" type="line"/>
      <point x="370" y="-10"/>
      <point x="280" y="-10" type="qcurve"/>
      <point x="162" y="-10"/>
      <point x="40" y="168"/>
      <point x="40" y="365" type="qcurve"/>
      <point x="40" y="561"/>
      <point x="167" y="740"/>
      <point x="295" y="740" type="qcurve"/>
      <point x="354" y="740"/>
      <point x="425" y="715" type="qcurve"/>
      <point x="425" y="638" type="line"/>
      <point x="359" y="668"/>
      <point x="295" y="668" type="qcurve"/>
      <point x="208" y="668"/>
      <point x="118" y="524"/>
      <point x="118" y="365" type="qcurve"/>
      <point x="118" y="62"/>
      <point x="285" y="62" type="qcurve"/>
      <point x="330" y="62"/>
    </contour>
  </outline>
</glyph>
<glyph name="H" format="2">
  <advance width="500"/>
  <unicode hex="0048"/>
  <outline>
    <contour>
      <point x="140" y="740" type="line"/>
      <point x="140" y="438" type="line"/>
      <point x="356" y="438" type="line"/>
      <point x="356" y="740" type="line"/>
      <point x="440" y="740" type="line"/>
      <point x="440" y="0" type="line"/>
      <point x="356" y="0" type="line"/>
      <point x="356" y="365" type="line"/>
      <point x="140" y="365" type="line"/>
      <point x="140" y="0" type="line"/>
      <point x="60" y="0" type="line"/>
      <point x="60" y="740" type="line"/>
    </contour>
  </outline>
</glyph>
<glyph name="I" format="2">
  <advance width="500"/>
  <unicode hex="0049"/>
  <outline>
    <contour>
      <point x="410" y="0" type="line"/>
      <point x="90" y="0" type="line"/>
      <point x="90" y="71" type="line"/>
      <point x="208" y="71" type="line"/>
      <point x="208" y="669" type="line"/>
      <point x="90" y="669" type="line"/>
      <point x="90" y="740" type="line"/>
      <point x="410" y="740" type="line"/>
      <point x="410" y="669" type="line"/>
      <point x="292" y="669" type="line"/>
      <point x="292" y="71" type="line"/>
      <point x="410" y="71" type="line"/>
    </contour>
  </outline>
</glyph>
<glyph name="J" format="2">
  <advance width="500"/>
  <unicode hex="004A"/>
  <outline>
    <contour>
      <point x="400" y="740" type="line"/>
      <point x="400" y="193" type="line"/>
      <point x="400" y="81"/>
      <point x="313" y="-10"/>
      <point x="210" y="-10" type="qcurve"/>
      <point x="128" y="-10"/>
      <point x="60" y="20" type="qcurve"/>
      <point x="60" y="108" type="line"/>
      <point x="89" y="91"/>
      <point x="182" y="63"/>
      <point x="210" y="63" type="qcurve"/>
      <point x="263" y="63"/>
      <point x="315" y="125"/>
      <point x="315" y="195" type="qcurve"/>
      <point x="315" y="669" type="line"/>
      <point x="150" y="669" type="line"/>
      <point x="150" y="740" type="line"/>
    </contour>
  </outline>
</glyph>
<glyph name="K" format="2">
  <advance width="500"/>
  <unicode hex="004B"/>
  <outline>
    <contour>
      <point x="157" y="406" type="line"/>
      <point x="159" y="406" type="line"/>
      <point x="365" y="740" type="line"/>
      <point x="460" y="740" type="line"/>
      <point x="235" y="385" type="line"/>
      <point x="465" y="0" type="line"/>
      <point x="370" y="0" type="line"/>
      <point x="159" y="365" type="line"/>
      <point x="157" y="365" type="line"/>
      <point x="157" y="0" type="line"/>
      <point x="75" y="0" type="line"/>
      <point x="75" y="740" type="line"/>
      <point x="157" y="740" type="line"/>
    </contour>
  </outline>
</glyph>
<glyph name="L" format="2">
  <advance width="500"/>
  <unicode hex="004C"/>
  <outline>
    <contour>
      <point x="182" y="740" type="line"/>
      <point x="182" y="73" type="line"/>
      <point x="420" y="73" type="line"/>
      <point x="420" y="0" type="line"/>
      <point x="100" y="0" type="line"/>
      <point x="100" y="740" type="line"/>
    </contour>
  </outline>
</glyph>
<glyph name="N" format="2">
  <advance width="500"/>
  <unicode hex="004E"/>
  <outline>
    <contour>
      <point x="151" y="558" type="line"/>
      <point x="149" y="558" type="line"/>
      <point x="149" y="0" type="line"/>
      <point x="65" y="0" type="line"/>
      <point x="65" y="740" type="line"/>
      <point x="149" y="740" type="line"/>
      <point x="353" y="183" type="line"/>
      <point x="355" y="183" type="line"/>
      <point x="355" y="740" type="line"/>
      <point x="435" y="740" type="line"/>
      <point x="435" y="0" type="line"/>
      <point x="355" y="0" type="line"/>
    </contour>
  </outline>
</glyph>
<glyph name="P" format="2">
  <advance width="500"/>
  <unicode hex="0050"/>
  <outline>
    <contour>
      <point x="375" y="520" type="qcurve"/>
      <point x="375" y="599"/>
      <point x="303" y="670"/>
      <point x="227" y="670" type="qcurve"/>
      <point x="186" y="670"/>
      <point x="157" y="662" type="qcurve"/>
      <point x="157" y="370" type="line"/>
      <point x="187" y="365"/>
      <point x="227" y="365" type="qcurve"/>
      <point x="304" y="365"/>
      <point x="375" y="436"/>
    </contour>
    <contour>
      <point x="455" y="520" type="qcurve"/>
      <point x="455" y="400"/>
      <point x="350" y="295"/>
      <point x="237" y="295" type="qcurve"/>
      <point x="202" y="295"/>
      <point x="157" y="300" type="qcurve"/>
      <point x="157" y="0" type="line"/>
      <point x="75" y="0" type="line"/>
      <point x="75" y="725" type="line"/>
      <point x="153" y="740"/>
      <point x="235" y="740" type="qcurve"/>
      <point x="349" y="740"/>
      <point x="455" y="635"/>
    </contour>
  </outline>
</glyph>
<glyph name="Q" format="2">
  <advance width="500"/>
  <unicode hex="0051"/>
  <outline>
    <contour>
      <point x="143" y="740"/>
      <point x="357" y="740"/>
      <point x="460" y="571"/>
      <point x="460" y="365" type="qcurve"/>
      <point x="460" y="92"/>
      <point x="360" y="21" type="qcurve"/>
      <point x="360" y="19" type="line"/>
      <point x="401" y="-2"/>
      <point x="465" y="-92"/>
      <point x="480" y="-150" type="qcurve"/>
      <point x="392" y="-150" type="line"/>
      <point x="371" y="-72"/>
      <point x="305" y="-10"/>
      <point x="250" y="-10" type="qcurve"/>
      <point x="143" y="-10"/>
      <point x="40" y="159"/>
      <point x="40" y="571"/>
    </contour>
    <contour>
      <point x="206" y="62"/>
      <point x="294" y="62"/>
      <point x="348" y="113"/>
      <point x="380" y="249"/>
      <point x="380" y="481"/>
      <point x="348" y="617"/>
      <point x="294" y="668"/>
      <point x="206" y="668"/>
      <point x="152" y="617"/>
      <point x="120" y="481"/>
      <point x="120" y="249"/>
      <point x="152" y="113"/>
    </contour>
  </outline>
</glyph>
<glyph name="R" format="2">
  <advance width="500"/>
  <unicode hex="0052"/>
  <outline>
    <contour>
      <point x="370" y="540" type="qcurve"/>
      <point x="370" y="670"/>
      <point x="222" y="670" type="qcurve"/>
      <point x="181" y="670"/>
      <point x="152" y="662" type="qcurve"/>
      <point x="152" y="390" type="line"/>
      <point x="212" y="390" type="line"/>
      <point x="299" y="390"/>
      <point x="370" y="457"/>
    </contour>
    <contour>
      <point x="152" y="320" type="line"/>
      <point x="152" y="0" type="line"/>
      <point x="70" y="0" type="line"/>
      <point x="70" y="725" type="line"/>
      <point x="148" y="740"/>
      <point x="230" y="740" type="qcurve"/>
      <point x="342" y="740"/>
      <point x="450" y="641"/>
      <point x="450" y="540" type="qcurve"/>
      <point x="450" y="397"/>
      <point x="341" y="347" type="qcurve"/>
      <point x="341" y="345" type="line"/>
      <point x="372" y="330"/>
      <point x="407" y="214" type="qcurve"/>
      <point x="470" y="0" type="line"/>
      <point x="384" y="0" type="line"/>
      <point x="325" y="216" type="line"/>
      <point x="308" y="280"/>
      <point x="260" y="320"/>
      <point x="202" y="320" type="qcurve"/>
    </contour>
  </outline>
</glyph>
<glyph name="S" format="2">
  <advance width="500"/>
  <unicode hex="0053"/>
  <outline>
    <contour>
      <point x="260" y="668" type="qcurve"/>
      <point x="213" y="668"/>
      <point x="152" y="607"/>
      <point x="152" y="560" type="qcurve"/>
      <point x="152" y="510"/>
      <point x="195" y="445"/>
      <point x="245" y="422" type="qcurve"/>
      <point x="356" y="373"/>
      <point x="440" y="266"/>
      <point x="440" y="180" type="qcurve"/>
      <point x="440" y="86"/>
      <point x="337" y="-10"/>
      <point x="240" y="-10" type="qcurve"/>
      <point x="149" y="-10"/>
      <point x="75" y="45" type="qcurve"/>
      <point x="75" y="140" type="line"/>
      <point x="155" y="62"/>
      <point x="245" y="62" type="qcurve"/>
      <point x="358" y="62"/>
      <point x="358" y="180" type="qcurve"/>
      <point x="358" y="235"/>
      <point x="306" y="307"/>
      <point x="245" y="335" type="qcurve"/>
      <point x="151" y="377"/>
      <point x="70" y="484"/>
      <point x="70" y="560" type="qcurve"/>
      <point x="70" y="640"/>
      <point x="172" y="740"/>
      <point x="255" y="740" type="qcurve"/>
      <point x="308" y="740"/>
      <point x="376" y="724"/>
      <point x="420" y="700" type="qcurve"/>
      <point x="420" y="610" type="line"/>
      <point x="343" y="668"/>
    </contour>
  </outline>
</glyph>
<glyph name="T" format="2">
  <advance width="500"/>
  <unicode hex="0054"/>
  <outline>
    <contour>
      <point x="209" y="0" type="line"/>
      <point x="209" y="669" type="line"/>
      <point x="55" y="669" type="line"/>
      <point x="55" y="740" type="line"/>
      <point x="445" y="740" type="line"/>
      <point x="445" y="669" type="line"/>
      <point x="291" y="669" type="line"/>
      <point x="291" y="0" type="line"/>
    </contour>
  </outline>
</glyph>
<glyph name="U" format="2">
  <advance width="500"/>
  <unicode hex="0055"/>
  <outline>
    <contour>
      <point x="345" y="-10"/>
      <point x="155" y="-10"/>
      <point x="60" y="88"/>
      <point x="60" y="193" type="qcurve"/>
      <point x="60" y="740" type="line"/>
      <point x="144" y="740" type="line"/>
      <point x="144" y="213" type="line"/>
      <point x="144" y="131"/>
      <point x="197" y="63"/>
      <point x="307" y="63"/>
      <point x="360" y="131"/>
      <point x="360" y="213" type="qcurve"/>
      <point x="360" y="740" type="line"/>
      <point x="440" y="740" type="line"/>
      <point x="440" y="193" type="line"/>
      <point x="440" y="89"/>
    </contour>
  </outline>
</glyph>
<glyph name="V" format="2">
  <advance width="500"/>
  <unicode hex="0056"/>
  <outline>
    <contour>
      <point x="253" y="71" type="line"/>
      <point x="388" y="740" type="line"/>
      <point x="470" y="740" type="line"/>
      <point x="300" y="0" type="line"/>
      <point x="200" y="0" type="line"/>
      <point x="30" y="740" type="line"/>
      <point x="116" y="740" type="line"/>
      <point x="251" y="71" type="line"/>
    </contour>
  </outline>
</glyph>
<glyph name="W" format="2">
  <advance width="500"/>
  <unicode hex="0057"/>
  <outline>
    <contour>
      <point x="153" y="122" type="line"/>
      <point x="155" y="122" type="line"/>
      <point x="209" y="639" type="line"/>
      <point x="299" y="639" type="line"/>
      <point x="353" y="122" type="line"/>
      <point x="355" y="122" type="line"/>
      <point x="400" y="740" type="line"/>
      <point x="475" y="740" type="line"/>
      <point x="415" y="0" type="line"/>
      <point x="306" y="0" type="line"/>
      <point x="251" y="527" type="line"/>
      <point x="249" y="527" type="line"/>
      <point x="194" y="0" type="line"/>
      <point x="85" y="0" type="line"/>
      <point x="25" y="740" type="line"/>
      <point x="108" y="740" type="line"/>
    </contour>
  </outline>
</glyph>
<glyph name="X" format="2">
  <advance width="500"/>
  <unicode hex="0058"/>
  <outline>
    <contour>
      <point x="251" y="446" type="line"/>
      <point x="253" y="446" type="line"/>
      <point x="365" y="740" type="line"/>
      <point x="448" y="740" type="line"/>
      <point x="300" y="380" type="line"/>
      <point x="450" y="0" type="line"/>
      <point x="360" y="0" type="line"/>
      <point x="249" y="309" type="line"/>
      <point x="247" y="309" type="line"/>
      <point x="135" y="0" type="line"/>
      <point x="50" y="0" type="line"/>
      <point x="200" y="380" type="line"/>
      <point x="52" y="740" type="line"/>
      <point x="140" y="740" type="line"/>
    </contour>
  </outline>
</glyph>
<glyph name="Y" format="2">
  <advance width="500"/>
  <unicode hex="0059"/>
  <outline>
    <contour>
      <point x="251" y="380" type="line"/>
      <point x="253" y="380" type="line"/>
      <point x="385" y="740" type="line"/>
      <point x="470" y="740" type="line"/>
      <point x="291" y="294" type="line"/>
      <point x="291" y="0" type="line"/>
      <point x="209" y="0" type="line"/>
      <point x="209" y="294" type="line"/>
      <point x="30" y="740" type="line"/>
      <point x="120" y="740" type="line"/>
    </contour>
  </outline>
</glyph>
<glyph name="Z" format="2">
  <advance width="500"/>
  <unicode hex="005A"/>
  <outline>
    <contour>
      <point x="335" y="667" type="line"/>
      <point x="335" y="669" type="line"/>
      <point x="75" y="669" type="line"/>
      <point x="75" y="740" type="line"/>
      <point x="425" y="740" type="line"/>
      <point x="425" y="669" type="line"/>
      <point x="165" y="73" type="line"/>
      <point x="165" y="71" type="line"/>
      <point x="425" y="71" type="line"/>
      <point x="425" y="0" type="line"/>
      <point x="75" y="0" type="line"/>
      <point x="75" y="71" type="line"/>
    </contour>
  </outline>
</glyph>
<glyph name="bracketleft" format="2">
  <advance width="500"/>
  <unicode hex="005B"/>
  <outline>
    <contour>
      <point x="390" y="724" type="line"/>
      <point x="212" y="724" type="line"/>
      <point x="212" y="-77" type="line"/>
      <point x="390" y="-77" type="line"/>
      <point x="390" y="-138" type="line"/>
      <point x="140" y="-138" type="line"/>
      <point x="140" y="785" type="line"/>
      <point x="390" y="785" type="line"/>
    </contour>
  </outline>
</glyph>
<glyph name="backslash" format="2">
  <advance width="500"/>
  <unicode hex="005C"/>
  <outline>
    <contour>
      <point x="48" y="740" type="line"/>
      <point x="120" y="740" type="line"/>
      <point x="452" y="-41" type="line"/>
      <point x="380" y="-41" type="line"/>
    </contour>
  </outline>
</glyph>
<glyph name="bracketright" format="2">
  <advance width="500"/>
  <unicode hex="005D"/>
  <outline>
    <contour>
      <point x="110" y="724" type="line"/>
      <point x="110" y="785" type="line"/>
      <point x="360" y="785" type="line"/>
      <point x="360" y="-138" type="line"/>
      <point x="110" y="-138" type="line"/>
      <point x="110" y="-77" type="line"/>
      <point x="288" y="-77" type="line"/>
      <point x="288" y="724" type="line"/>
    </contour>
  </outline>
</glyph>
<glyph name="asciicircum" format="2">
  <advance width="500"/>
  <unicode hex="005E"/>
  <outline>
    <contour>
      <point x="251" y="684" type="line"/>
      <point x="249" y="684" type="line"/>
      <point x="102" y="284" type="line"/>
      <point x="30" y="284" type="line"/>
      <point x="200" y="734" type="line"/>
      <point x="300" y="734" type="line"/>
      <point x="470" y="284" type="line"/>
      <point x="398" y="284" type="line"/>
    </contour>
  </outline>
</glyph>
<glyph name="underscore" format="2">
  <advance width="500"/>
  <unicode hex="005F"/>
  <outline>
    <contour>
      <point x="50" y="-140" type="line"/>
      <point x="50" y="-84" type="line"/>
      <point x="450" y="-84" type="line"/>
      <point x="450" y="-140" type="line"/>
    </contour>
  </outline>
</glyph>
<glyph name="grave" format="2">
  <advance width="500"/>
  <unicode hex="0060"/>
  <outline>
    <contour>
      <point x="130" y="810" type="line"/>
      <point x="250" y="810" type="line"/>
      <point x="350" y="530" type="line"/>
      <point x="280" y="530" type="line"/>
    </contour>
  </outline>
</glyph>
<glyph name="b" format="2">
  <advance width="500"/>
  <unicode hex="0062"/>
  <outline>
    <contour>
      <point x="144" y="445" type="line"/>
      <point x="146" y="445" type="line"/>
      <point x="189" y="530"/>
      <point x="280" y="530" type="qcurve"/>
      <point x="455" y="530"/>
      <point x="455" y="260" type="qcurve"/>
      <point x="455" y="125"/>
      <point x="359" y="-10"/>
      <point x="280" y="-10" type="qcurve"/>
      <point x="196" y="-10"/>
      <point x="143" y="75" type="qcurve"/>
      <point x="141" y="75" type="line"/>
      <point x="139" y="0" type="line"/>
      <point x="65" y="0" type="line"/>
      <point x="65" y="730" type="line"/>
      <point x="144" y="730" type="line"/>
    </contour>
    <contour>
      <point x="376" y="260" type="qcurve"/>
      <point x="376" y="455"/>
      <point x="260" y="455" type="qcurve"/>
      <point x="209" y="455"/>
      <point x="144" y="356"/>
      <point x="144" y="265" type="qcurve"/>
      <point x="144" y="255" type="line"/>
      <point x="144" y="164"/>
      <point x="209" y="65"/>
      <point x="260" y="65" type="qcurve"/>
      <point x="313" y="65"/>
      <point x="376" y="162"/>
    </contour>
  </outline>
</glyph>
<glyph name="c" format="2">
  <advance width="500"/>
  <unicode hex="0063"/>
  <outline>
    <contour>
      <point x="80" y="260" type="qcurve"/>
      <point x="80" y="394"/>
      <point x="190" y="530"/>
      <point x="290" y="530" type="qcurve"/>
      <point x="351" y="530"/>
      <point x="415" y="505" type="qcurve"/>
      <point x="415" y="425" type="line"/>
      <point x="355" y="458"/>
      <point x="295" y="458" type="qcurve"/>
      <point x="232" y="458"/>
      <point x="162" y="358"/>
      <point x="162" y="260" type="qcurve"/>
      <point x="162" y="159"/>
      <point x="236" y="59"/>
      <point x="300" y="59" type="qcurve"/>
      <point x="359" y="59"/>
      <point x="420" y="95" type="qcurve"/>
      <point x="420" y="15" type="line"/>
      <point x="356" y="-10"/>
      <point x="295" y="-10" type="qcurve"/>
      <point x="193" y="-10"/>
      <point x="80" y="125"/>
    </contour>
  </outline>
</glyph>
<glyph name="d" format="2">
  <advance width="500"/>
  <unicode hex="0064"/>
  <outline>
    <contour>
      <point x="356" y="730" type="line"/>
      <point x="435" y="730" type="line"/>
      <point x="435" y="0" type="line"/>
      <point x="361" y="0" type="line"/>
      <point x="359" y="75" type="line"/>
      <point x="357" y="75" type="line"/>
      <point x="304" y="-10"/>
      <point x="220" y="-10" type="qcurve"/>
      <point x="141" y="-10"/>
      <point x="45" y="125"/>
      <point x="45" y="260" type="qcurve"/>
      <point x="45" y="530"/>
      <point x="220" y="530" type="qcurve"/>
      <point x="311" y="530"/>
      <point x="354" y="445" type="qcurve"/>
      <point x="356" y="445" type="line"/>
    </contour>
    <contour>
      <point x="124" y="260" type="qcurve"/>
      <point x="124" y="162"/>
      <point x="187" y="65"/>
      <point x="240" y="65" type="qcurve"/>
      <point x="291" y="65"/>
      <point x="356" y="164"/>
      <point x="356" y="255" type="qcurve"/>
      <point x="356" y="265" type="line"/>
      <point x="356" y="356"/>
      <point x="291" y="455"/>
      <point x="240" y="455" type="qcurve"/>
      <point x="124" y="455"/>
    </contour>
  </outline>
</glyph>
<glyph name="f" format="2">
  <advance width="500"/>
  <unicode hex="0066"/>
  <outline>
    <contour>
      <point x="75" y="431" type="line"/>
      <point x="75" y="500" type="line"/>
      <point x="195" y="500" type="line"/>
      <point x="195" y="560" type="line"/>
      <point x="195" y="658"/>
      <point x="261" y="740"/>
      <point x="335" y="740" type="qcurve"/>
      <point x="380" y="740"/>
      <point x="425" y="725" type="qcurve"/>
      <point x="425" y="653" type="line"/>
      <point x="387" y="671"/>
      <point x="350" y="671" type="qcurve"/>
      <point x="303" y="671"/>
      <point x="274" y="624"/>
      <point x="274" y="540" type="qcurve"/>
      <point x="274" y="500" type="line"/>
      <point x="425" y="500" type="line"/>
      <point x="425" y="431" type="line"/>
      <point x="274" y="431" type="line"/>
      <point x="274" y="0" type="line"/>
      <point x="195" y="0" type="line"/>
      <point x="195" y="431" type="line"/>
    </contour>
  </outline>
</glyph>
<glyph name="g" format="2">
  <advance width="500"/>
  <unicode hex="0067"/>
  <outline>
    <contour>
      <point x="50" y="260" type="qcurve"/>
      <point x="50" y="530"/>
      <point x="225" y="530" type="qcurve"/>
      <point x="308" y="530"/>
      <point x="362" y="445" type="qcurve"/>
      <point x="364" y="445" type="line"/>
      <point x="366" y="520" type="line"/>
      <point x="440" y="520" type="line"/>
      <point x="440" y="5" type="line"/>
      <point x="440" y="-120"/>
      <point x="339" y="-230"/>
      <point x="235" y="-230" type="qcurve"/>
      <point x="164" y="-230"/>
      <point x="95" y="-205" type="qcurve"/>
      <point x="95" y="-125" type="line"/>
      <point x="166" y="-161"/>
      <point x="235" y="-161" type="qcurve"/>
      <point x="361" y="-161"/>
      <point x="361" y="5" type="qcurve"/>
      <point x="361" y="85" type="line"/>
      <point x="359" y="85" type="line"/>
      <point x="316" y="0"/>
      <point x="225" y="0" type="qcurve"/>
      <point x="145" y="0"/>
      <point x="50" y="132"/>
    </contour>
    <contour>
      <point x="129" y="260" type="qcurve"/>
      <point x="129" y="168"/>
      <point x="192" y="75"/>
      <point x="245" y="75" type="qcurve"/>
      <point x="297" y="75"/>
      <point x="361" y="166"/>
      <point x="361" y="255" type="qcurve"/>
      <point x="361" y="265" type="line"/>
      <point x="361" y="356"/>
      <point x="296" y="455"/>
      <point x="245" y="455" type="qcurve"/>
      <point x="187" y="455"/>
      <point x="129" y="362"/>
    </contour>
  </outline>
</glyph>
<glyph name="h" format="2">
  <advance width="500"/>
  <unicode hex="0068"/>
  <outline>
    <contour>
      <point x="440" y="330" type="qcurve"/>
      <point x="440" y="0" type="line"/>
      <point x="363" y="0" type="line"/>
      <point x="363" y="312" type="line"/>
      <point x="363" y="400"/>
      <point x="323" y="459"/>
      <point x="270" y="459" type="qcurve"/>
      <point x="220" y="459"/>
      <point x="149" y="347"/>
      <point x="149" y="252" type="qcurve"/>
      <point x="149" y="0" type="line"/>
      <point x="70" y="0" type="line"/>
      <point x="70" y="730" type="line"/>
      <point x="149" y="730" type="line"/>
      <point x="149" y="445" type="line"/>
      <point x="151" y="445" type="line"/>
      <point x="170" y="484"/>
      <point x="245" y="530"/>
      <point x="290" y="530" type="qcurve"/>
      <point x="369" y="530"/>
      <point x="440" y="439"/>
    </contour>
  </outline>
</glyph>
<glyph name="j" format="2">
  <advance width="500"/>
  <unicode hex="006A"/>
  <outline>
    <contour>
      <point x="249" y="-33" type="qcurve"/>
      <point x="249" y="452" type="line"/>
      <point x="130" y="452" type="line"/>
      <point x="130" y="520" type="line"/>
      <point x="331" y="520" type="line"/>
      <point x="331" y="-33" type="line"/>
      <point x="331" y="-98"/>
      <point x="314" y="-170"/>
      <point x="258" y="-216"/>
      <point x="170" y="-230"/>
      <point x="91" y="-230" type="qcurve"/>
      <point x="91" y="-162" type="line"/>
      <point x="131" y="-162"/>
      <point x="177" y="-160"/>
      <point x="216" y="-149"/>
      <point x="234" y="-135"/>
      <point x="247" y="-102"/>
      <point x="249" y="-66"/>
    </contour>
    <contour>
      <point x="229" y="640" type="line"/>
      <point x="229" y="760" type="line"/>
      <point x="331" y="760" type="line"/>
      <point x="331" y="640" type="line"/>
    </contour>
  </outline>
</glyph>
<glyph name="k" format="2">
  <advance width="500"/>
  <unicode hex="006B"/>
  <outline>
    <contour>
      <point x="460" y="520" type="line"/>
      <point x="230" y="270" type="line"/>
      <point x="460" y="0" type="line"/>
      <point x="365" y="0" type="line"/>
      <point x="159" y="253" type="line"/>
      <point x="159" y="0" type="line"/>
      <point x="80" y="0" type="line"/>
      <point x="80" y="730" type="line"/>
      <point x="159" y="730" type="line"/>
      <point x="159" y="286" type="line"/>
      <point x="366" y="520" type="line"/>
    </contour>
  </outline>
</glyph>
<glyph name="l" format="2">
  <advance width="500"/>
  <unicode hex="006C"/>
  <outline>
    <contour>
      <point x="281" y="150" type="line"/>
      <point x="281" y="84"/>
      <point x="302" y="58"/>
      <point x="355" y="58" type="qcurve"/>
      <point x="388" y="58"/>
      <point x="430" y="64" type="qcurve"/>
      <point x="430" y="-5" type="line"/>
      <point x="383" y="-10"/>
      <point x="345" y="-10" type="qcurve"/>
      <point x="255" y="-10"/>
      <point x="199" y="47"/>
      <point x="199" y="140" type="qcurve"/>
      <point x="199" y="662" type="line"/>
      <point x="70" y="662" type="line"/>
      <point x="70" y="730" type="line"/>
      <point x="281" y="730" type="line"/>
    </contour>
  </outline>
</glyph>
<glyph name="m" format="2">
  <advance width="500"/>
  <unicode hex="006D"/>
  <outline>
    <contour>
      <point x="290" y="0" type="line"/>
      <point x="212" y="0" type="line"/>
      <point x="212" y="360" type="line"/>
      <point x="211" y="418"/>
      <point x="192" y="457"/>
      <point x="169" y="457" type="qcurve"/>
      <point x="149" y="457"/>
      <point x="119" y="409"/>
      <point x="99" y="290"/>
      <point x="99" y="200" type="qcurve"/>
      <point x="99" y="0" type="line"/>
      <point x="20" y="0" type="line"/>
      <point x="20" y="520" type="line"/>
      <point x="90" y="520" type="line"/>
      <point x="92" y="450" type="line"/>
      <point x="94" y="450" type="line"/>
      <point x="111" y="488"/>
      <point x="162" y="530"/>
      <point x="190" y="530" type="qcurve"/>
      <point x="221" y="530"/>
      <point x="260" y="493"/>
      <point x="274" y="450" type="qcurve"/>
      <point x="276" y="450" type="line"/>
      <point x="315" y="530"/>
      <point x="380" y="530" type="qcurve"/>
      <point x="433" y="530"/>
      <point x="480" y="465"/>
      <point x="480" y="380" type="qcurve"/>
      <point x="480" y="0" type="line"/>
      <point x="403" y="0" type="line"/>
      <point x="403" y="360" type="line"/>
      <point x="402" y="419"/>
      <point x="381" y="457"/>
      <point x="354" y="457" type="qcurve"/>
      <point x="290" y="457"/>
      <point x="290" y="260" type="qcurve"/>
    </contour>
  </outline>
</glyph>
<glyph name="n" format="2">
  <advance width="500"/>
  <unicode hex="006E"/>
  <outline>
    <contour>
      <point x="440" y="330" type="qcurve"/>
      <point x="440" y="0" type="line"/>
      <point x="363" y="0" type="line"/>
      <point x="363" y="312" type="line"/>
      <point x="363" y="400"/>
      <point x="323" y="459"/>
      <point x="270" y="459" type="qcurve"/>
      <point x="220" y="459"/>
      <point x="149" y="347"/>
      <point x="149" y="252" type="qcurve"/>
      <point x="149" y="0" type="line"/>
      <point x="70" y="0" type="line"/>
      <point x="70" y="520" type="line"/>
      <point x="144" y="520" type="line"/>
      <point x="146" y="445" type="line"/>
      <point x="148" y="445" type="line"/>
      <point x="167" y="483"/>
      <point x="245" y="530"/>
      <point x="290" y="530" type="qcurve"/>
      <point x="369" y="530"/>
      <point x="440" y="439"/>
    </contour>
  </outline>
</glyph>
<glyph name="p" format="2">
  <advance width="500"/>
  <unicode hex="0070"/>
  <outline>
    <contour>
      <point x="141" y="75" type="qcurve"/>
      <point x="139" y="75" type="line"/>
      <point x="139" y="-220" type="line"/>
      <point x="60" y="-220" type="line"/>
      <point x="60" y="520" type="line"/>
      <point x="134" y="520" type="line"/>
      <point x="136" y="445" type="line"/>
      <point x="138" y="445" type="line"/>
      <point x="192" y="530"/>
      <point x="275" y="530" type="qcurve"/>
      <point x="450" y="530"/>
      <point x="450" y="260" type="qcurve"/>
      <point x="450" y="125"/>
      <point x="354" y="-10"/>
      <point x="275" y="-10" type="qcurve"/>
      <point x="184" y="-10"/>
    </contour>
    <contour>
      <point x="371" y="260" type="qcurve"/>
      <point x="371" y="455"/>
      <point x="255" y="455" type="qcurve"/>
      <point x="204" y="455"/>
      <point x="139" y="356"/>
      <point x="139" y="265" type="qcurve"/>
      <point x="139" y="255" type="line"/>
      <point x="139" y="164"/>
      <point x="204" y="65"/>
      <point x="255" y="65" type="qcurve"/>
      <point x="308" y="65"/>
      <point x="371" y="162"/>
    </contour>
  </outline>
</glyph>
<glyph name="q" format="2">
  <advance width="500"/>
  <unicode hex="0071"/>
  <outline>
    <contour>
      <point x="359" y="75" type="line"/>
      <point x="316" y="-10"/>
      <point x="225" y="-10" type="qcurve"/>
      <point x="146" y="-10"/>
      <point x="50" y="125"/>
      <point x="50" y="260" type="qcurve"/>
      <point x="50" y="530"/>
      <point x="225" y="530" type="qcurve"/>
      <point x="308" y="530"/>
      <point x="362" y="445" type="qcurve"/>
      <point x="364" y="445" type="line"/>
      <point x="366" y="520" type="line"/>
      <point x="440" y="520" type="line"/>
      <point x="440" y="-220" type="line"/>
      <point x="361" y="-220" type="line"/>
      <point x="361" y="75" type="line"/>
    </contour>
    <contour>
      <point x="129" y="260" type="qcurve"/>
      <point x="129" y="162"/>
      <point x="192" y="65"/>
      <point x="245" y="65" type="qcurve"/>
      <point x="296" y="65"/>
      <point x="361" y="164"/>
      <point x="361" y="255" type="qcurve"/>
      <point x="361" y="265" type="line"/>
      <point x="361" y="356"/>
      <point x="296" y="455"/>
      <point x="245" y="455" type="qcurve"/>
      <point x="129" y="455"/>
    </contour>
  </outline>
</glyph>
<glyph name="r" format="2">
  <advance width="500"/>
  <unicode hex="0072"/>
  <outline>
    <contour>
      <point x="186" y="520" type="line"/>
      <point x="186" y="420" type="line"/>
      <point x="188" y="420" type="line"/>
      <point x="250" y="530"/>
      <point x="360" y="530" type="qcurve"/>
      <point x="397" y="530"/>
      <point x="430" y="520" type="qcurve"/>
      <point x="430" y="450" type="line"/>
      <point x="395" y="461"/>
      <point x="360" y="461" type="qcurve"/>
      <point x="287" y="461"/>
      <point x="189" y="339"/>
      <point x="189" y="240" type="qcurve"/>
      <point x="189" y="0" type="line"/>
      <point x="110" y="0" type="line"/>
      <point x="110" y="520" type="line"/>
    </contour>
  </outline>
</glyph>
<glyph name="t" format="2">
  <advance width="500"/>
  <unicode hex="0074"/>
  <outline>
    <contour>
      <point x="244" y="500" type="line"/>
      <point x="425" y="500" type="line"/>
      <point x="425" y="431" type="line"/>
      <point x="244" y="431" type="line"/>
      <point x="244" y="150" type="line"/>
      <point x="244" y="94"/>
      <point x="277" y="57"/>
      <point x="325" y="57" type="qcurve"/>
      <point x="375" y="57"/>
      <point x="415" y="75" type="qcurve"/>
      <point x="415" y="5" type="line"/>
      <point x="367" y="-10"/>
      <point x="315" y="-10" type="qcurve"/>
      <point x="231" y="-10"/>
      <point x="165" y="55"/>
      <point x="165" y="140" type="qcurve"/>
      <point x="165" y="431" type="line"/>
      <point x="65" y="431" type="line"/>
      <point x="65" y="500" type="line"/>
      <point x="165" y="500" type="line"/>
      <point x="165" y="690" type="line"/>
      <point x="244" y="690" type="line"/>
    </contour>
  </outline>
</glyph>
<glyph name="u" format="2">
  <advance width="500"/>
  <unicode hex="0075"/>
  <outline>
    <contour>
      <point x="65" y="180" type="qcurve"/>
      <point x="65" y="520" type="line"/>
      <point x="142" y="520" type="line"/>
      <point x="142" y="198" type="line"/>
      <point x="142" y="115"/>
      <point x="179" y="61"/>
      <point x="230" y="61" type="qcurve"/>
      <point x="279" y="61"/>
      <point x="346" y="171"/>
      <point x="346" y="268" type="qcurve"/>
      <point x="346" y="520" type="line"/>
      <point x="425" y="520" type="line"/>
      <point x="425" y="0" type="line"/>
      <point x="351" y="0" type="line"/>
      <point x="349" y="75" type="line"/>
      <point x="347" y="75" type="line"/>
      <point x="328" y="35"/>
      <point x="254" y="-10"/>
      <point x="210" y="-10" type="qcurve"/>
      <point x="133" y="-10"/>
      <point x="65" y="76"/>
    </contour>
  </outline>
</glyph>
<glyph name="v" format="2">
  <advance width="500"/>
  <unicode hex="0076"/>
  <outline>
    <contour>
      <point x="251" y="60" type="line"/>
      <point x="253" y="60" type="line"/>
      <point x="368" y="520" type="line"/>
      <point x="450" y="520" type="line"/>
      <point x="305" y="0" type="line"/>
      <point x="195" y="0" type="line"/>
      <point x="50" y="520" type="line"/>
      <point x="136" y="520" type="line"/>
    </contour>
  </outline>
</glyph>
<glyph name="w" format="2">
  <advance width="500"/>
  <unicode hex="0077"/>
  <outline>
    <contour>
      <point x="351" y="80" type="line"/>
      <point x="353" y="80" type="line"/>
      <point x="402" y="520" type="line"/>
      <point x="480" y="520" type="line"/>
      <point x="400" y="0" type="line"/>
      <point x="301" y="0" type="line"/>
      <point x="247" y="440" type="line"/>
      <point x="245" y="440" type="line"/>
      <point x="196" y="0" type="line"/>
      <point x="100" y="0" type="line"/>
      <point x="20" y="520" type="line"/>
      <point x="102" y="520" type="line"/>
      <point x="151" y="80" type="line"/>
      <point x="153" y="80" type="line"/>
      <point x="202" y="520" type="line"/>
      <point x="302" y="520" type="line"/>
    </contour>
  </outline>
</glyph>
<glyph name="y" format="2">
  <advance width="500"/>
  <unicode hex="0079"/>
  <outline>
    <contour>
      <point x="259" y="120" type="line"/>
      <point x="261" y="120" type="line"/>
      <point x="378" y="520" type="line"/>
      <point x="465" y="520" type="line"/>
      <point x="225" y="-220" type="line"/>
      <point x="142" y="-220" type="line"/>
      <point x="220" y="10" type="line"/>
      <point x="45" y="520" type="line"/>
      <point x="133" y="520" type="line"/>
    </contour>
  </outline>
</glyph>
<glyph name="braceleft" format="2">
  <advance width="500"/>
  <unicode hex="007B"/>
  <outline>
    <contour>
      <point x="195" y="324" type="qcurve"/>
      <point x="199" y="322" type="line"/>
      <point x="280" y="284"/>
      <point x="280" y="171" type="qcurve"/>
      <point x="280" y="34" type="line"/>
      <point x="280" y="-39"/>
      <point x="313" y="-77"/>
      <point x="375" y="-77" type="qcurve"/>
      <point x="415" y="-77" type="line"/>
      <point x="415" y="-138" type="line"/>
      <point x="350" y="-138" type="line"/>
      <point x="277" y="-138"/>
      <point x="208" y="-66"/>
      <point x="208" y="14" type="qcurve"/>
      <point x="208" y="166" type="line"/>
      <point x="208" y="233"/>
      <point x="165" y="293"/>
      <point x="120" y="293" type="qcurve"/>
      <point x="75" y="293" type="line"/>
      <point x="75" y="354" type="line"/>
      <point x="120" y="354" type="line"/>
      <point x="165" y="354"/>
      <point x="208" y="414"/>
      <point x="208" y="481" type="qcurve"/>
      <point x="208" y="633" type="line"/>
      <point x="208" y="713"/>
      <point x="277" y="785"/>
      <point x="350" y="785" type="qcurve"/>
      <point x="415" y="785" type="line"/>
      <point x="415" y="724" type="line"/>
      <point x="375" y="724" type="line"/>
      <point x="313" y="724"/>
      <point x="280" y="685"/>
      <point x="280" y="612" type="qcurve"/>
      <point x="280" y="476" type="line"/>
      <point x="280" y="414"/>
      <point x="240" y="345"/>
    </contour>
  </outline>
</glyph>
<glyph name="bar" format="2">
  <advance width="500"/>
  <unicode hex="007C"/>
  <outline>
    <contour>
      <point x="212" y="-219" type="line"/>
      <point x="212" y="825" type="line"/>
      <point x="288" y="825" type="line"/>
      <point x="288" y="-219" type="line"/>
    </contour>
  </outline>
</glyph>
<glyph name="braceright" format="2">
  <advance width="500"/>
  <unicode hex="007D"/>
  <outline>
    <contour>
      <point x="305" y="324" type="line"/>
      <point x="260" y="344"/>
      <point x="220" y="414"/>
      <point x="220" y="476" type="qcurve"/>
      <point x="220" y="612" type="line"/>
      <point x="220" y="685"/>
      <point x="187" y="724"/>
      <point x="125" y="724" type="qcurve"/>
      <point x="85" y="724" type="line"/>
      <point x="85" y="785" type="line"/>
      <point x="150" y="785" type="line"/>
      <point x="223" y="785"/>
      <point x="292" y="713"/>
      <point x="292" y="633" type="qcurve"/>
      <point x="292" y="481" type="line"/>
      <point x="292" y="414"/>
      <point x="335" y="354"/>
      <point x="380" y="354" type="qcurve"/>
      <point x="425" y="354" type="line"/>
      <point x="425" y="293" type="line"/>
      <point x="380" y="293" type="line"/>
      <point x="335" y="293"/>
      <point x="292" y="233"/>
      <point x="292" y="166" type="qcurve"/>
      <point x="292" y="14" type="line"/>
      <point x="292" y="-66"/>
      <point x="223" y="-138"/>
      <point x="150" y="-138" type="qcurve"/>
      <point x="85" y="-138" type="line"/>
      <point x="85" y="-77" type="line"/>
      <point x="125" y="-77" type="line"/>
      <point x="187" y="-77"/>
      <point x="220" y="-39"/>
      <point x="220" y="34" type="qcurve"/>
      <point x="220" y="171" type="line"/>
      <point x="220" y="284"/>
      <point x="301" y="322" type="qcurve"/>
    </contour>
  </outline>
</glyph>
<glyph name="asciitilde" format="2">
  <advance width="500"/>
  <unicode hex="007E"/>
  <outline>
    <contour>
      <point x="20" y="327" type="line"/>
      <point x="20" y="412"/>
      <point x="99" y="509"/>
      <point x="196" y="509"/>
      <point x="320" y="395"/>
      <point x="349" y="395" type="qcurve"/>
      <point x="414" y="395"/>
      <point x="414" y="508" type="qcurve"/>
      <point x="480" y="508" type="line"/>
      <point x="480" y="435"/>
      <point x="401" y="322"/>
      <point x="304" y="332"/>
      <point x="180" y="445"/>
      <point x="151" y="445" type="qcurve"/>
      <point x="86" y="445"/>
      <point x="86" y="327" type="qcurve"/>
    </contour>
  </outline>
</glyph>
<glyph name="exclamdown" format="2">
  <advance width="500"/>
  <unicode hex="00A1"/>
  <outline>
    <contour>
      <point x="195" y="380" type="line"/>
      <point x="195" y="510" type="line"/>
      <point x="305" y="510" type="line"/>
      <point x="305" y="380" type="line"/>
    </contour>
    <contour>
      <point x="200" y="-220" type="line"/>
      <point x="210" y="295" type="line"/>
      <point x="290" y="295" type="line"/>
      <point x="300" y="-220" type="line"/>
    </contour>
  </outline>
</glyph>
<glyph name="cent" format="2">
  <advance width="500"/>
  <unicode hex="00A2"/>
  <outline>
    <contour>
      <point x="245" y="-5" type="line"/>
      <point x="166" y="10"/>
      <point x="80" y="142"/>
      <point x="80" y="378"/>
      <point x="166" y="512"/>
      <point x="245" y="526" type="qcurve"/>
      <point x="245" y="690" type="line"/>
      <point x="305" y="690" type="line"/>
      <point x="305" y="530" type="line"/>
      <point x="358" y="527"/>
      <point x="415" y="505" type="qcurve"/>
      <point x="415" y="425" type="line"/>
      <point x="361" y="455"/>
      <point x="305" y="458" type="qcurve"/>
      <point x="305" y="59" type="line"/>
      <point x="362" y="60"/>
      <point x="420" y="95" type="qcurve"/>
      <point x="420" y="15" type="line"/>
      <point x="367" y="-7"/>
      <point x="305" y="-10" type="qcurve"/>
      <point x="305" y="-180" type="line"/>
      <point x="245" y="-180" type="line"/>
    </contour>
    <contour>
      <point x="245" y="71" type="qcurve"/>
      <point x="245" y="448" type="line"/>
      <point x="162" y="413"/>
      <point x="162" y="260" type="qcurve"/>
      <point x="162" y="108"/>
    </contour>
  </outline>
</glyph>
<glyph name="sterling" format="2">
  <advance width="500"/>
  <unicode hex="00A3"/>
  <outline>
    <contour>
      <point x="318" y="670" type="qcurve"/>
      <point x="269" y="670"/>
      <point x="222" y="610"/>
      <point x="222" y="545" type="qcurve"/>
      <point x="222" y="400" type="line"/>
      <point x="390" y="400" type="line"/>
      <point x="390" y="340" type="line"/>
      <point x="222" y="340" type="line"/>
      <point x="222" y="232" type="line"/>
      <point x="222" y="113"/>
      <point x="169" y="74" type="qcurve"/>
      <point x="169" y="72" type="line"/>
      <point x="432" y="72" type="line"/>
      <point x="432" y="0" type="line"/>
      <point x="68" y="0" type="line"/>
      <point x="68" y="70" type="line"/>
      <point x="99" y="73"/>
      <point x="140" y="156"/>
      <point x="140" y="230" type="qcurve"/>
      <point x="140" y="340" type="line"/>
      <point x="75" y="340" type="line"/>
      <point x="75" y="400" type="line"/>
      <point x="140" y="400" type="line"/>
      <point x="140" y="535" type="line"/>
      <point x="140" y="634"/>
      <point x="230" y="740"/>
      <point x="310" y="740" type="qcurve"/>
      <point x="358" y="740"/>
      <point x="405" y="721" type="qcurve"/>
      <point x="405" y="650" type="line"/>
      <point x="364" y="670"/>
    </contour>
  </outline>
</glyph>
<glyph name="currency" format="2">
  <advance width="500"/>
  <unicode hex="00A4"/>
  <outline>
    <contour>
      <point x="202" y="250"/>
      <point x="298" y="250"/>
      <point x="366" y="318"/>
      <point x="365" y="365" type="qcurve"/>
      <point x="366" y="412"/>
      <point x="298" y="480"/>
      <point x="202" y="480"/>
      <point x="134" y="412"/>
      <point x="135" y="365" type="qcurve"/>
      <point x="134" y="318"/>
    </contour>
    <contour>
      <point x="354" y="512" type="qcurve"/>
      <point x="423" y="581" type="line"/>
      <point x="465" y="538" type="line"/>
      <point x="396" y="469" type="line"/>
      <point x="430" y="422"/>
      <point x="430" y="308"/>
      <point x="396" y="261" type="qcurve"/>
      <point x="465" y="192" type="line"/>
      <point x="423" y="149" type="line"/>
      <point x="354" y="218" type="line"/>
      <point x="308" y="185"/>
      <point x="250" y="185" type="qcurve"/>
      <point x="191" y="185"/>
      <point x="145" y="218" type="qcurve"/>
      <point x="76" y="149" type="line"/>
      <point x="34" y="192" type="line"/>
      <point x="103" y="261" type="line"/>
      <point x="70" y="307"/>
      <point x="70" y="423"/>
      <point x="103" y="469" type="qcurve"/>
      <point x="34" y="538" type="line"/>
      <point x="76" y="581" type="line"/>
      <point x="145" y="512" type="line"/>
      <point x="191" y="545"/>
      <point x="250" y="545" type="qcurve"/>
      <point x="308" y="545"/>
    </contour>
  </outline>
</glyph>
<glyph name="yen" format="2">
  <advance width="500"/>
  <unicode hex="00A5"/>
  <outline>
    <contour>
      <point x="60" y="142" type="line"/>
      <point x="60" y="208" type="line"/>
      <point x="209" y="208" type="line"/>
      <point x="209" y="294" type="line"/>
      <point x="60" y="294" type="line"/>
      <point x="60" y="360" type="line"/>
      <point x="183" y="360" type="line"/>
      <point x="30" y="740" type="line"/>
      <point x="120" y="740" type="line"/>
      <point x="251" y="380" type="line"/>
      <point x="253" y="380" type="line"/>
      <point x="385" y="740" type="line"/>
      <point x="470" y="740" type="line"/>
      <point x="317" y="360" type="line"/>
      <point x="440" y="360" type="line"/>
      <point x="440" y="294" type="line"/>
      <point x="291" y="294" type="line"/>
      <point x="291" y="208" type="line"/>
      <point x="440" y="208" type="line"/>
      <point x="440" y="142" type="line"/>
      <point x="291" y="142" type="line"/>
      <point x="291" y="0" type="line"/>
      <point x="209" y="0" type="line"/>
      <point x="209" y="142" type="line"/>
    </contour>
  </outline>
</glyph>
<glyph name="brokenbar" format="2">
  <advance width="500"/>
  <unicode hex="00A6"/>
  <outline>
    <contour>
      <point x="212" y="-140" type="line"/>
      <point x="212" y="220" type="line"/>
      <point x="288" y="220" type="line"/>
      <point x="288" y="-140" type="line"/>
    </contour>
    <contour>
      <point x="212" y="370" type="line"/>
      <point x="212" y="730" type="line"/>
      <point x="288" y="730" type="line"/>
      <point x="288" y="370" type="line"/>
    </contour>
  </outline>
</glyph>
<glyph name="section" format="2">
  <advance width="500"/>
  <unicode hex="00A7"/>
  <outline>
    <contour>
      <point x="220" y="404" type="qcurve"/>
      <point x="184" y="396"/>
      <point x="138" y="342"/>
      <point x="138" y="310" type="qcurve"/>
      <point x="138" y="220"/>
      <point x="255" y="192" type="qcurve"/>
      <point x="264" y="190"/>
      <point x="280" y="186" type="qcurve"/>
      <point x="316" y="194"/>
      <point x="362" y="248"/>
      <point x="362" y="280" type="qcurve"/>
      <point x="362" y="370"/>
      <point x="245" y="398" type="qcurve"/>
      <point x="236" y="400"/>
    </contour>
    <contour>
      <point x="141" y="436" type="qcurve"/>
      <point x="65" y="480"/>
      <point x="65" y="572" type="qcurve"/>
      <point x="65" y="648"/>
      <point x="165" y="740"/>
      <point x="335" y="740"/>
      <point x="415" y="706" type="qcurve"/>
      <point x="415" y="632" type="line"/>
      <point x="329" y="670"/>
      <point x="250" y="670" type="qcurve"/>
      <point x="200" y="670"/>
      <point x="142" y="618"/>
      <point x="142" y="575" type="qcurve"/>
      <point x="142" y="499"/>
      <point x="245" y="472" type="qcurve"/>
      <point x="344" y="446"/>
      <point x="432" y="358"/>
      <point x="432" y="290" type="qcurve"/>
      <point x="432" y="198"/>
      <point x="359" y="154" type="qcurve"/>
      <point x="435" y="110"/>
      <point x="435" y="18" type="qcurve"/>
      <point x="435" y="-58"/>
      <point x="335" y="-150"/>
      <point x="165" y="-150"/>
      <point x="85" y="-116" type="qcurve"/>
      <point x="85" y="-42" type="line"/>
      <point x="171" y="-80"/>
      <point x="250" y="-80" type="qcurve"/>
      <point x="300" y="-80"/>
      <point x="358" y="-28"/>
      <point x="358" y="15" type="qcurve"/>
      <point x="358" y="91"/>
      <point x="255" y="118" type="qcurve"/>
      <point x="156" y="144"/>
      <point x="68" y="232"/>
      <point x="68" y="300" type="qcurve"/>
      <point x="68" y="392"/>
    </contour>
  </outline>
</glyph>
<glyph name="dieresis" format="2">
  <advance width="500"/>
  <unicode hex="00A8"/>
  <outline>
    <contour>
      <point x="130" y="610" type="line"/>
      <point x="130" y="740" type="line"/>
      <point x="210" y="740" type="line"/>
      <point x="210" y="610" type="line"/>
    </contour>
    <contour>
      <point x="290" y="610" type="line"/>
      <point x="290" y="740" type="line"/>
      <point x="370" y="740" type="line"/>
      <point x="370" y="610" type="line"/>
    </contour>
  </outline>
</glyph>
<glyph name="copyright" format="2">
  <advance width="500"/>
  <unicode hex="00A9"/>
  <outline>
    <contour>
      <point x="250" y="35" type="qcurve"/>
      <point x="144" y="36"/>
      <point x="10" y="208"/>
      <point x="10" y="522"/>
      <point x="144" y="694"/>
      <point x="250" y="695" type="qcurve"/>
      <point x="356" y="694"/>
      <point x="490" y="522"/>
      <point x="490" y="208"/>
      <point x="356" y="36"/>
    </contour>
    <contour>
      <point x="162" y="85"/>
      <point x="338" y="85"/>
      <point x="440" y="235"/>
      <point x="440" y="495"/>
      <point x="338" y="645"/>
      <point x="162" y="645"/>
      <point x="60" y="495"/>
      <point x="60" y="235"/>
    </contour>
    <contour>
      <point x="274" y="211" type="qcurve"/>
      <point x="306" y="211"/>
      <point x="343" y="229" type="qcurve"/>
      <point x="343" y="174" type="line"/>
      <point x="307" y="159"/>
      <point x="264" y="159" type="qcurve"/>
      <point x="128" y="159"/>
      <point x="128" y="571"/>
      <point x="262" y="571" type="qcurve"/>
      <point x="303" y="571"/>
      <point x="340" y="557" type="qcurve"/>
      <point x="340" y="504" type="line"/>
      <point x="302" y="519"/>
      <point x="272" y="519" type="qcurve"/>
      <point x="232" y="520"/>
      <point x="188" y="452"/>
      <point x="188" y="365" type="qcurve"/>
      <point x="188" y="211"/>
    </contour>
  </outline>
</glyph>
<glyph name="ordfeminine" format="2">
  <advance width="500"/>
  <unicode hex="00AA"/>
  <outline>
    <contour>
      <point x="328" y="528" type="line"/>
      <point x="296" y="528" type="line"/>
      <point x="158" y="528"/>
      <point x="158" y="432" type="qcurve"/>
      <point x="158" y="396"/>
      <point x="194" y="356"/>
      <point x="226" y="356" type="qcurve"/>
      <point x="272" y="356"/>
      <point x="328" y="426"/>
      <point x="328" y="488" type="qcurve"/>
    </contour>
    <contour>
      <point x="70" y="200" type="line"/>
      <point x="70" y="255" type="line"/>
      <point x="430" y="255" type="line"/>
      <point x="430" y="200" type="line"/>
    </contour>
    <contour>
      <point x="210" y="304" type="qcurve"/>
      <point x="156" y="304"/>
      <point x="96" y="370"/>
      <point x="96" y="428" type="qcurve"/>
      <point x="96" y="494"/>
      <point x="192" y="574"/>
      <point x="296" y="574" type="qcurve"/>
      <point x="328" y="574" type="line"/>
      <point x="328" y="598" type="line"/>
      <point x="328" y="644"/>
      <point x="294" y="680"/>
      <point x="250" y="681" type="qcurve"/>
      <point x="185" y="681"/>
      <point x="114" y="651" type="qcurve"/>
      <point x="114" y="708" type="line"/>
      <point x="186" y="736"/>
      <point x="252" y="736" type="qcurve"/>
      <point x="328" y="736"/>
      <point x="392" y="672"/>
      <point x="392" y="590" type="qcurve"/>
      <point x="392" y="312" type="line"/>
      <point x="331" y="312" type="line"/>
      <point x="330" y="363" type="line"/>
      <point x="329" y="363" type="line"/>
      <point x="289" y="304"/>
    </contour>
  </outline>
</glyph>
<glyph name="guillemotleft" format="2">
  <advance width="500"/>
  <unicode hex="00AB"/>
  <outline>
    <contour>
      <point x="242" y="435" type="line"/>
      <point x="100" y="290" type="line"/>
      <point x="242" y="145" type="line"/>
      <point x="242" y="50" type="line"/>
      <point x="45" y="255" type="line"/>
      <point x="45" y="325" type="line"/>
      <point x="242" y="530" type="line"/>
    </contour>
    <contour>
      <point x="445" y="435" type="line"/>
      <point x="302" y="290" type="line"/>
      <point x="445" y="145" type="line"/>
      <point x="445" y="50" type="line"/>
      <point x="248" y="255" type="line"/>
      <point x="248" y="325" type="line"/>
      <point x="445" y="530" type="line"/>
    </contour>
  </outline>
</glyph>
<glyph name="logicalnot" format="2">
  <advance width="500"/>
  <unicode hex="00AC"/>
  <outline>
    <contour>
      <point x="62" y="372" type="line"/>
      <point x="62" y="443" type="line"/>
      <point x="437" y="443" type="line"/>
      <point x="437" y="150" type="line"/>
      <point x="357" y="150" type="line"/>
      <point x="357" y="372" type="line"/>
    </contour>
  </outline>
</glyph>
<glyph name="uni00AD" format="2">
  <advance width="500"/>
  <unicode hex="00AD"/>
  <outline>
    <contour>
      <point x="100" y="254" type="line"/>
      <point x="100" y="326" type="line"/>
      <point x="400" y="326" type="line"/>
      <point x="400" y="254" type="line"/>
    </contour>
  </outline>
</glyph>
<glyph name="registered" format="2">
  <advance width="500"/>
  <unicode hex="00AE"/>
  <outline>
    <contour>
      <point x="211" y="378" type="line"/>
      <point x="233" y="378" type="line"/>
      <point x="275" y="378"/>
      <point x="309" y="410"/>
      <point x="309" y="451" type="qcurve"/>
      <point x="308" y="487"/>
      <point x="276" y="519"/>
      <point x="240" y="519" type="qcurve"/>
      <point x="223" y="519"/>
      <point x="211" y="516" type="qcurve"/>
    </contour>
    <contour>
      <point x="250" y="35" type="qcurve"/>
      <point x="144" y="36"/>
      <point x="10" y="208"/>
      <point x="10" y="522"/>
      <point x="144" y="694"/>
      <point x="250" y="695" type="qcurve"/>
      <point x="356" y="694"/>
      <point x="490" y="522"/>
      <point x="490" y="208"/>
      <point x="356" y="36"/>
    </contour>
    <contour>
      <point x="162" y="85"/>
      <point x="338" y="85"/>
      <point x="440" y="235"/>
      <point x="440" y="495"/>
      <point x="338" y="645"/>
      <point x="162" y="645"/>
      <point x="60" y="495"/>
      <point x="60" y="235"/>
    </contour>
    <contour>
      <point x="370" y="451" type="qcurve"/>
      <point x="370" y="368"/>
      <point x="313" y="343" type="qcurve"/>
      <point x="312" y="342" type="line"/>
      <point x="331" y="329"/>
      <point x="347" y="276" type="qcurve"/>
      <point x="381" y="164" type="line"/>
      <point x="316" y="164" type="line"/>
      <point x="285" y="278" type="line"/>
      <point x="277" y="306"/>
      <point x="257" y="326"/>
      <point x="238" y="325" type="qcurve"/>
      <point x="211" y="325" type="line"/>
      <point x="211" y="164" type="line"/>
      <point x="148" y="164" type="line"/>
      <point x="148" y="564" type="line"/>
      <point x="191" y="572"/>
      <point x="242" y="572" type="qcurve"/>
      <point x="310" y="572"/>
      <point x="370" y="516"/>
    </contour>
  </outline>
</glyph>
<glyph name="degree" format="2">
  <advance width="500"/>
  <unicode hex="00B0"/>
  <outline>
    <contour>
      <point x="180" y="630"/>
      <point x="180" y="570"/>
      <point x="220" y="530"/>
      <point x="280" y="530"/>
      <point x="320" y="570"/>
      <point x="320" y="630"/>
      <point x="280" y="670"/>
      <point x="220" y="670"/>
    </contour>
    <contour>
      <point x="110" y="542"/>
      <point x="110" y="658"/>
      <point x="192" y="740"/>
      <point x="308" y="740"/>
      <point x="390" y="658"/>
      <point x="390" y="542"/>
      <point x="308" y="460"/>
      <point x="192" y="460"/>
    </contour>
  </outline>
</glyph>
<glyph name="plusminus" format="2">
  <advance width="500"/>
  <unicode hex="00B1"/>
  <outline>
    <contour>
      <point x="291" y="650" type="line"/>
      <point x="291" y="436" type="line"/>
      <point x="445" y="436" type="line"/>
      <point x="445" y="364" type="line"/>
      <point x="291" y="364" type="line"/>
      <point x="291" y="150" type="line"/>
      <point x="209" y="150" type="line"/>
      <point x="209" y="364" type="line"/>
      <point x="55" y="364" type="line"/>
      <point x="55" y="436" type="line"/>
      <point x="209" y="436" type="line"/>
      <point x="209" y="650" type="line"/>
    </contour>
    <contour>
      <point x="55" y="-40" type="line"/>
      <point x="55" y="32" type="line"/>
      <point x="445" y="32" type="line"/>
      <point x="445" y="-40" type="line"/>
    </contour>
  </outline>
</glyph>
<glyph name="uni00B2" format="2">
  <advance width="500"/>
  <unicode hex="00B2"/>
  <outline>
    <contour>
      <point x="355" y="345" type="line"/>
      <point x="355" y="292" type="line"/>
      <point x="143" y="292" type="line"/>
      <point x="143" y="345" type="line"/>
      <point x="224" y="444"/>
      <point x="292" y="568"/>
      <point x="292" y="617" type="qcurve"/>
      <point x="292" y="683"/>
      <point x="235" y="683" type="qcurve"/>
      <point x="191" y="683"/>
      <point x="143" y="637" type="qcurve"/>
      <point x="143" y="696" type="line"/>
      <point x="189" y="736"/>
      <point x="246" y="736" type="qcurve"/>
      <point x="352" y="736"/>
      <point x="352" y="621" type="qcurve"/>
      <point x="352" y="564"/>
      <point x="288" y="436"/>
      <point x="212" y="346" type="qcurve"/>
      <point x="212" y="345" type="line"/>
    </contour>
  </outline>
</glyph>
<glyph name="uni00B3" format="2">
  <advance width="500"/>
  <unicode hex="00B3"/>
  <outline>
    <contour>
      <point x="237" y="286" type="qcurve"/>
      <point x="191" y="286"/>
      <point x="148" y="309" type="qcurve"/>
      <point x="148" y="367" type="line"/>
      <point x="193" y="338"/>
      <point x="233" y="338" type="qcurve"/>
      <point x="266" y="338"/>
      <point x="300" y="378"/>
      <point x="300" y="425" type="qcurve"/>
      <point x="300" y="470"/>
      <point x="264" y="502"/>
      <point x="210" y="502" type="qcurve"/>
      <point x="184" y="502" type="line"/>
      <point x="184" y="555" type="line"/>
      <point x="289" y="676" type="line"/>
      <point x="289" y="677" type="line"/>
      <point x="142" y="677" type="line"/>
      <point x="142" y="730" type="line"/>
      <point x="357" y="730" type="line"/>
      <point x="357" y="678" type="line"/>
      <point x="248" y="552" type="line"/>
      <point x="248" y="551" type="line"/>
      <point x="253" y="551" type="line"/>
      <point x="360" y="551"/>
      <point x="360" y="425" type="qcurve"/>
      <point x="360" y="354"/>
      <point x="300" y="286"/>
    </contour>
  </outline>
</glyph>
<glyph name="acute" format="2">
  <advance width="500"/>
  <unicode hex="00B4"/>
  <outline>
    <contour>
      <point x="260" y="760" type="line"/>
      <point x="380" y="760" type="line"/>
      <point x="230" y="590" type="line"/>
      <point x="150" y="590" type="line"/>
    </contour>
  </outline>
</glyph>
<glyph name="uni00B5" format="2">
  <advance width="500"/>
  <unicode hex="00B5"/>
  <outline>
    <contour>
      <point x="351" y="520" type="line"/>
      <point x="430" y="520" type="line"/>
      <point x="430" y="0" type="line"/>
      <point x="356" y="0" type="line"/>
      <point x="354" y="75" type="line"/>
      <point x="352" y="75" type="line"/>
      <point x="333" y="34"/>
      <point x="259" y="-10"/>
      <point x="215" y="-10" type="qcurve"/>
      <point x="173" y="-10"/>
      <point x="147" y="1" type="qcurve"/>
      <point x="147" y="-220" type="line"/>
      <point x="70" y="-220" type="line"/>
      <point x="70" y="520" type="line"/>
      <point x="147" y="520" type="line"/>
      <point x="147" y="198" type="line"/>
      <point x="148" y="115"/>
      <point x="184" y="61"/>
      <point x="235" y="61" type="qcurve"/>
      <point x="284" y="61"/>
      <point x="352" y="171"/>
      <point x="351" y="268" type="qcurve"/>
    </contour>
  </outline>
</glyph>
<glyph name="paragraph" format="2">
  <advance width="500"/>
  <unicode hex="00B6"/>
  <outline>
    <contour>
      <point x="227" y="270" type="line"/>
      <point x="153" y="270"/>
      <point x="47" y="406"/>
      <point x="47" y="594"/>
      <point x="153" y="730"/>
      <point x="227" y="730" type="qcurve"/>
      <point x="422" y="730" type="line"/>
      <point x="422" y="-140" type="line"/>
      <point x="352" y="-140" type="line"/>
      <point x="352" y="660" type="line"/>
      <point x="297" y="660" type="line"/>
      <point x="297" y="-140" type="line"/>
      <point x="227" y="-140" type="line"/>
    </contour>
  </outline>
</glyph>
<glyph name="periodcentered" format="2">
  <advance width="500"/>
  <unicode hex="00B7"/>
  <outline>
    <contour>
      <point x="185" y="215" type="line"/>
      <point x="185" y="365" type="line"/>
      <point x="315" y="365" type="line"/>
      <point x="315" y="215" type="line"/>
    </contour>
  </outline>
</glyph>
<glyph name="cedilla" format="2">
  <advance width="500"/>
  <unicode hex="00B8"/>
  <outline>
    <contour>
      <point x="254" y="5" type="qcurve"/>
      <point x="332" y="5" type="line"/>
      <point x="367" y="-44"/>
      <point x="367" y="-100" type="qcurve"/>
      <point x="368" y="-152"/>
      <point x="296" y="-220"/>
      <point x="220" y="-220" type="qcurve"/>
      <point x="166" y="-220"/>
      <point x="117" y="-201" type="qcurve"/>
      <point x="117" y="-128" type="line"/>
      <point x="159" y="-150"/>
      <point x="210" y="-150" type="qcurve"/>
      <point x="246" y="-150"/>
      <point x="290" y="-112"/>
      <point x="290" y="-80" type="qcurve"/>
      <point x="290" y="-33"/>
    </contour>
  </outline>
</glyph>
<glyph name="uni00B9" format="2">
  <advance width="500"/>
  <unicode hex="00B9"/>
  <outline>
    <contour>
      <point x="248" y="670" type="line"/>
      <point x="144" y="613" type="line"/>
      <point x="144" y="669" type="line"/>
      <point x="249" y="730" type="line"/>
      <point x="309" y="730" type="line"/>
      <point x="309" y="292" type="line"/>
      <point x="249" y="292" type="line"/>
      <point x="249" y="669" type="line"/>
    </contour>
  </outline>
</glyph>
<glyph name="ordmasculine" format="2">
  <advance width="500"/>
  <unicode hex="00BA"/>
  <outline>
    <contour>
      <point x="250" y="357" type="qcurve"/>
      <point x="296" y="356"/>
      <point x="344" y="424"/>
      <point x="344" y="616"/>
      <point x="296" y="684"/>
      <point x="250" y="683" type="qcurve"/>
      <point x="204" y="684"/>
      <point x="156" y="616"/>
      <point x="156" y="424"/>
      <point x="204" y="356"/>
    </contour>
    <contour>
      <point x="410" y="304"/>
      <point x="90" y="304"/>
      <point x="90" y="736"/>
      <point x="410" y="736"/>
    </contour>
    <contour>
      <point x="70" y="200" type="line"/>
      <point x="70" y="255" type="line"/>
      <point x="430" y="255" type="line"/>
      <point x="430" y="200" type="line"/>
    </contour>
  </outline>
</glyph>
<glyph name="guillemotright" format="2">
  <advance width="500"/>
  <unicode hex="00BB"/>
  <outline>
    <contour>
      <point x="258" y="435" type="line"/>
      <point x="258" y="530" type="line"/>
      <point x="455" y="325" type="line"/>
      <point x="455" y="255" type="line"/>
      <point x="258" y="50" type="line"/>
      <point x="258" y="145" type="line"/>
      <point x="400" y="290" type="line"/>
    </contour>
    <contour>
      <point x="55" y="435" type="line"/>
      <point x="55" y="530" type="line"/>
      <point x="252" y="325" type="line"/>
      <point x="252" y="255" type="line"/>
      <point x="55" y="50" type="line"/>
      <point x="55" y="145" type="line"/>
      <point x="198" y="290" type="line"/>
    </contour>
  </outline>
</glyph>
<glyph name="onequarter" format="2">
  <advance width="500"/>
  <unicode hex="00BC"/>
  <outline>
    <contour>
      <point x="376" y="-70" type="line"/>
      <point x="376" y="124" type="line"/>
      <point x="374" y="124" type="line"/>
      <point x="275" y="-69" type="line"/>
      <point x="275" y="-70" type="line"/>
    </contour>
    <contour>
      <point x="485" y="430" type="line"/>
      <point x="85" y="50" type="line"/>
      <point x="15" y="50" type="line"/>
      <point x="415" y="430" type="line"/>
    </contour>
    <contour>
      <point x="136" y="670" type="line"/>
      <point x="32" y="613" type="line"/>
      <point x="32" y="669" type="line"/>
      <point x="137" y="730" type="line"/>
      <point x="197" y="730" type="line"/>
      <point x="197" y="292" type="line"/>
      <point x="137" y="292" type="line"/>
      <point x="137" y="669" type="line"/>
    </contour>
    <contour>
      <point x="434" y="-220" type="line"/>
      <point x="376" y="-220" type="line"/>
      <point x="376" y="-123" type="line"/>
      <point x="223" y="-123" type="line"/>
      <point x="223" y="-70" type="line"/>
      <point x="370" y="218" type="line"/>
      <point x="434" y="218" type="line"/>
      <point x="434" y="-70" type="line"/>
      <point x="485" y="-70" type="line"/>
      <point x="485" y="-123" type="line"/>
      <point x="434" y="-123" type="line"/>
    </contour>
  </outline>
</glyph>
<glyph name="onehalf" format="2">
  <advance width="500"/>
  <unicode hex="00BD"/>
  <outline>
    <contour>
      <point x="485" y="430" type="line"/>
      <point x="85" y="50" type="line"/>
      <point x="15" y="50" type="line"/>
      <point x="415" y="430" type="line"/>
    </contour>
    <contour>
      <point x="136" y="670" type="line"/>
      <point x="32" y="613" type="line"/>
      <point x="32" y="669" type="line"/>
      <point x="137" y="730" type="line"/>
      <point x="197" y="730" type="line"/>
      <point x="197" y="292" type="line"/>
      <point x="137" y="292" type="line"/>
      <point x="137" y="669" type="line"/>
    </contour>
    <contour>
      <point x="474" y="-168" type="line"/>
      <point x="474" y="-220" type="line"/>
      <point x="262" y="-220" type="line"/>
      <point x="262" y="-168" type="line"/>
      <point x="344" y="-70"/>
      <point x="412" y="54"/>
      <point x="411" y="105" type="qcurve"/>
      <point x="411" y="171"/>
      <point x="354" y="171" type="qcurve"/>
      <point x="310" y="171"/>
      <point x="262" y="125" type="qcurve"/>
      <point x="262" y="184" type="line"/>
      <point x="308" y="224"/>
      <point x="365" y="224" type="qcurve"/>
      <point x="471" y="224"/>
      <point x="471" y="109" type="qcurve"/>
      <point x="470" y="52"/>
      <point x="406" y="-76"/>
      <point x="331" y="-166" type="qcurve"/>
      <point x="331" y="-168" type="line"/>
    </contour>
  </outline>
</glyph>
<glyph name="threequarters" format="2">
  <advance width="500"/>
  <unicode hex="00BE"/>
  <outline>
    <contour>
      <point x="376" y="-70" type="line"/>
      <point x="376" y="124" type="line"/>
      <point x="374" y="124" type="line"/>
      <point x="275" y="-69" type="line"/>
      <point x="275" y="-70" type="line"/>
    </contour>
    <contour>
      <point x="485" y="430" type="line"/>
      <point x="85" y="50" type="line"/>
      <point x="15" y="50" type="line"/>
      <point x="415" y="430" type="line"/>
    </contour>
    <contour>
      <point x="129" y="286" type="qcurve"/>
      <point x="84" y="286"/>
      <point x="41" y="309" type="qcurve"/>
      <point x="41" y="367" type="line"/>
      <point x="86" y="338"/>
      <point x="126" y="338" type="qcurve"/>
      <point x="159" y="338"/>
      <point x="193" y="378"/>
      <point x="193" y="425" type="qcurve"/>
      <point x="192" y="470"/>
      <point x="156" y="502"/>
      <point x="103" y="502" type="qcurve"/>
      <point x="77" y="502" type="line"/>
      <point x="77" y="555" type="line"/>
      <point x="182" y="676" type="line"/>
      <point x="182" y="677" type="line"/>
      <point x="35" y="677" type="line"/>
      <point x="35" y="730" type="line"/>
      <point x="250" y="730" type="line"/>
      <point x="250" y="678" type="line"/>
      <point x="140" y="552" type="line"/>
      <point x="140" y="551" type="line"/>
      <point x="146" y="551" type="line"/>
      <point x="253" y="551"/>
      <point x="253" y="425" type="qcurve"/>
      <point x="252" y="354"/>
      <point x="192" y="286"/>
    </contour>
    <contour>
      <point x="434" y="-220" type="line"/>
      <point x="376" y="-220" type="line"/>
      <point x="376" y="-123" type="line"/>
      <point x="223" y="-123" type="line"/>
      <point x="223" y="-70" type="line"/>
      <point x="370" y="218" type="line"/>
      <point x="434" y="218" type="line"/>
      <point x="434" y="-70" type="line"/>
      <point x="485" y="-70" type="line"/>
      <point x="485" y="-123" type="line"/>
      <point x="434" y="-123" type="line"/>
    </contour>
  </outline>
</glyph>
<glyph name="questiondown" format="2">
  <advance width="500"/>
  <unicode hex="00BF"/>
  <outline>
    <contour>
      <point x="435" y="-185" type="line"/>
      <point x="342" y="-230"/>
      <point x="245" y="-230" type="qcurve"/>
      <point x="154" y="-230"/>
      <point x="54" y="-146"/>
      <point x="55" y="-70" type="qcurve"/>
      <point x="54" y="-22"/>
      <point x="90" y="56"/>
      <point x="140" y="112"/>
      <point x="190" y="168"/>
      <point x="226" y="248"/>
      <point x="225" y="295" type="qcurve"/>
      <point x="305" y="295" type="line"/>
      <point x="305" y="236"/>
      <point x="288" y="190" type="qcurve"/>
      <point x="270" y="144"/>
      <point x="222" y="84"/>
      <point x="174" y="32"/>
      <point x="156" y="0" type="qcurve"/>
      <point x="139" y="-32"/>
      <point x="139" y="-70" type="qcurve"/>
      <point x="138" y="-112"/>
      <point x="198" y="-156"/>
      <point x="255" y="-156" type="qcurve"/>
      <point x="340" y="-156"/>
      <point x="435" y="-95" type="qcurve"/>
    </contour>
    <contour>
      <point x="210" y="380" type="line"/>
      <point x="210" y="510" type="line"/>
      <point x="320" y="510" type="line"/>
      <point x="320" y="380" type="line"/>
    </contour>
  </outline>
</glyph>
<glyph name="Acircumflex" format="2">
  <advance width="500"/>
  <unicode hex="00C2"/>
  <outline>
    <contour>
      <point x="249" y="920" type="line"/>
      <point x="168" y="790" type="line"/>
      <point x="60" y="790" type="line"/>
      <point x="190" y="960" type="line"/>
      <point x="310" y="960" type="line"/>
      <point x="440" y="790" type="line"/>
      <point x="332" y="790" type="line"/>
      <point x="251" y="920" type="line"/>
    </contour>
    <contour>
      <point x="249" y="660" type="line"/>
      <point x="247" y="660" type="line"/>
      <point x="164" y="280" type="line"/>
      <point x="332" y="280" type="line"/>
    </contour>
    <contour>
      <point x="348" y="210" type="line"/>
      <point x="148" y="210" type="line"/>
      <point x="102" y="0" type="line"/>
      <point x="20" y="0" type="line"/>
      <point x="200" y="730" type="line"/>
      <point x="300" y="730" type="line"/>
      <point x="480" y="0" type="line"/>
      <point x="394" y="0" type="line"/>
    </contour>
  </outline>
</glyph>
<glyph name="Atilde" format="2">
  <advance width="500"/>
  <unicode hex="00C3"/>
  <outline>
    <contour>
      <point x="85" y="795" type="line"/>
      <point x="85" y="881"/>
      <point x="118" y="950"/>
      <point x="152" y="950" type="qcurve"/>
      <point x="189" y="950"/>
      <point x="258" y="898" type="qcurve"/>
      <point x="306" y="860"/>
      <point x="325" y="860" type="qcurve"/>
      <point x="333" y="860"/>
      <point x="340" y="870"/>
      <point x="345" y="905"/>
      <point x="345" y="940" type="qcurve"/>
      <point x="415" y="940" type="line"/>
      <point x="415" y="854"/>
      <point x="382" y="785"/>
      <point x="348" y="785" type="qcurve"/>
      <point x="310" y="785"/>
      <point x="242" y="838" type="qcurve"/>
      <point x="193" y="875"/>
      <point x="175" y="875" type="qcurve"/>
      <point x="167" y="875"/>
      <point x="160" y="865"/>
      <point x="155" y="830"/>
      <point x="155" y="795" type="qcurve"/>
    </contour>
    <contour>
      <point x="249" y="660" type="line"/>
      <point x="247" y="660" type="line"/>
      <point x="164" y="280" type="line"/>
      <point x="332" y="280" type="line"/>
    </contour>
    <contour>
      <point x="348" y="210" type="line"/>
      <point x="148" y="210" type="line"/>
      <point x="102" y="0" type="line"/>
      <point x="20" y="0" type="line"/>
      <point x="200" y="730" type="line"/>
      <point x="300" y="730" type="line"/>
      <point x="480" y="0" type="line"/>
      <point x="394" y="0" type="line"/>
    </contour>
  </outline>
</glyph>
<glyph name="Adieresis" format="2">
  <advance width="500"/>
  <unicode hex="00C4"/>
  <outline>
    <contour>
      <point x="249" y="660" type="line"/>
      <point x="247" y="660" type="line"/>
      <point x="164" y="280" type="line"/>
      <point x="332" y="280" type="line"/>
    </contour>
    <contour>
      <point x="290" y="810" type="line"/>
      <point x="290" y="940" type="line"/>
      <point x="370" y="940" type="line"/>
      <point x="370" y="810" type="line"/>
    </contour>
    <contour>
      <point x="130" y="810" type="line"/>
      <point x="130" y="940" type="line"/>
      <point x="210" y="940" type="line"/>
      <point x="210" y="810" type="line"/>
    </contour>
    <contour>
      <point x="348" y="210" type="line"/>
      <point x="148" y="210" type="line"/>
      <point x="102" y="0" type="line"/>
      <point x="20" y="0" type="line"/>
      <point x="200" y="730" type="line"/>
      <point x="300" y="730" type="line"/>
      <point x="480" y="0" type="line"/>
      <point x="394" y="0" type="line"/>
    </contour>
  </outline>
</glyph>
<glyph name="Aring" format="2">
  <advance width="500"/>
  <unicode hex="00C5"/>
  <outline>
    <contour>
      <point x="249" y="660" type="line"/>
      <point x="247" y="660" type="line"/>
      <point x="164" y="280" type="line"/>
      <point x="332" y="280" type="line"/>
    </contour>
    <contour>
      <point x="380" y="949"/>
      <point x="380" y="841"/>
      <point x="304" y="765"/>
      <point x="196" y="765"/>
      <point x="120" y="841"/>
      <point x="120" y="949"/>
      <point x="196" y="1025"/>
      <point x="304" y="1025"/>
    </contour>
    <contour>
      <point x="320" y="866"/>
      <point x="320" y="924"/>
      <point x="279" y="965"/>
      <point x="221" y="965"/>
      <point x="180" y="924"/>
      <point x="180" y="866"/>
      <point x="221" y="825"/>
      <point x="279" y="825"/>
    </contour>
    <contour>
      <point x="348" y="210" type="line"/>
      <point x="148" y="210" type="line"/>
      <point x="102" y="0" type="line"/>
      <point x="20" y="0" type="line"/>
      <point x="200" y="730" type="line"/>
      <point x="300" y="730" type="line"/>
      <point x="480" y="0" type="line"/>
      <point x="394" y="0" type="line"/>
    </contour>
  </outline>
</glyph>
<glyph name="AE" format="2">
  <advance width="500"/>
  <unicode hex="00C6"/>
  <outline>
    <contour>
      <point x="248" y="665" type="line"/>
      <point x="231" y="665" type="line"/>
      <point x="153" y="280" type="line"/>
      <point x="248" y="280" type="line"/>
    </contour>
    <contour>
      <point x="248" y="210" type="line"/>
      <point x="139" y="210" type="line"/>
      <point x="97" y="0" type="line"/>
      <point x="20" y="0" type="line"/>
      <point x="182" y="730" type="line"/>
      <point x="470" y="730" type="line"/>
      <point x="470" y="658" type="line"/>
      <point x="325" y="658" type="line"/>
      <point x="325" y="430" type="line"/>
      <point x="460" y="430" type="line"/>
      <point x="460" y="360" type="line"/>
      <point x="325" y="360" type="line"/>
      <point x="325" y="72" type="line"/>
      <point x="470" y="72" type="line"/>
      <point x="470" y="0" type="line"/>
      <point x="248" y="0" type="line"/>
    </contour>
  </outline>
</glyph>
<glyph name="Ccedilla" format="2">
  <advance width="500"/>
  <unicode hex="00C7"/>
  <outline>
    <contour>
      <point x="55" y="365" type="qcurve"/>
      <point x="55" y="562"/>
      <point x="176" y="740"/>
      <point x="295" y="740" type="qcurve"/>
      <point x="361" y="740"/>
      <point x="420" y="710" type="qcurve"/>
      <point x="420" y="635" type="line"/>
      <point x="360" y="668"/>
      <point x="300" y="668" type="qcurve"/>
      <point x="135" y="668"/>
      <point x="135" y="365" type="qcurve"/>
      <point x="135" y="201"/>
      <point x="219" y="62"/>
      <point x="300" y="62" type="qcurve"/>
      <point x="362" y="62"/>
      <point x="425" y="100" type="qcurve"/>
      <point x="425" y="20" type="line"/>
      <point x="389" y="1"/>
      <point x="340" y="-7" type="qcurve"/>
      <point x="368" y="-52"/>
      <point x="368" y="-100" type="qcurve"/>
      <point x="368" y="-151"/>
      <point x="296" y="-220"/>
      <point x="220" y="-220" type="qcurve"/>
      <point x="166" y="-220"/>
      <point x="118" y="-201" type="qcurve"/>
      <point x="118" y="-128" type="line"/>
      <point x="159" y="-150"/>
      <point x="210" y="-150" type="qcurve"/>
      <point x="247" y="-150"/>
      <point x="290" y="-112"/>
      <point x="290" y="-80" type="qcurve"/>
      <point x="290" y="-43"/>
      <point x="266" y="-9" type="qcurve"/>
      <point x="160" y="0"/>
      <point x="55" y="174"/>
    </contour>
  </outline>
</glyph>
<glyph name="Eacute" format="2">
  <advance width="500"/>
  <unicode hex="00C9"/>
  <outline>
    <contour>
      <point x="260" y="960" type="line"/>
      <point x="380" y="960" type="line"/>
      <point x="230" y="790" type="line"/>
      <point x="150" y="790" type="line"/>
    </contour>
    <contour>
      <point x="162" y="658" type="line"/>
      <point x="162" y="430" type="line"/>
      <point x="410" y="430" type="line"/>
      <point x="410" y="360" type="line"/>
      <point x="162" y="360" type="line"/>
      <point x="162" y="72" type="line"/>
      <point x="420" y="72" type="line"/>
      <point x="420" y="0" type="line"/>
      <point x="80" y="0" type="line"/>
      <point x="80" y="730" type="line"/>
      <point x="420" y="730" type="line"/>
      <point x="420" y="658" type="line"/>
    </contour>
  </outline>
</glyph>
<glyph name="Ecircumflex" format="2">
  <advance width="500"/>
  <unicode hex="00CA"/>
  <outline>
    <contour>
      <point x="249" y="920" type="line"/>
      <point x="168" y="790" type="line"/>
      <point x="60" y="790" type="line"/>
      <point x="190" y="960" type="line"/>
      <point x="310" y="960" type="line"/>
      <point x="440" y="790" type="line"/>
      <point x="332" y="790" type="line"/>
      <point x="251" y="920" type="line"/>
    </contour>
    <contour>
      <point x="162" y="658" type="line"/>
      <point x="162" y="430" type="line"/>
      <point x="410" y="430" type="line"/>
      <point x="410" y="360" type="line"/>
      <point x="162" y="360" type="line"/>
      <point x="162" y="72" type="line"/>
      <point x="420" y="72" type="line"/>
      <point x="420" y="0" type="line"/>
      <point x="80" y="0" type="line"/>
      <point x="80" y="730" type="line"/>
      <point x="420" y="730" type="line"/>
      <point x="420" y="658" type="line"/>
    </contour>
  </outline>
</glyph>
<glyph name="Edieresis" format="2">
  <advance width="500"/>
  <unicode hex="00CB"/>
  <outline>
    <contour>
      <point x="290" y="810" type="line"/>
      <point x="290" y="940" type="line"/>
      <point x="370" y="940" type="line"/>
      <point x="370" y="810" type="line"/>
    </contour>
    <contour>
      <point x="130" y="810" type="line"/>
      <point x="130" y="940" type="line"/>
      <point x="210" y="940" type="line"/>
      <point x="210" y="810" type="line"/>
    </contour>
    <contour>
      <point x="162" y="658" type="line"/>
      <point x="162" y="430" type="line"/>
      <point x="410" y="430" type="line"/>
      <point x="410" y="360" type="line"/>
      <point x="162" y="360" type="line"/>
      <point x="162" y="72" type="line"/>
      <point x="420" y="72" type="line"/>
      <point x="420" y="0" type="line"/>
      <point x="80" y="0" type="line"/>
      <point x="80" y="730" type="line"/>
      <point x="420" y="730" type="line"/>
      <point x="420" y="658" type="line"/>
    </contour>
  </outline>
</glyph>
<glyph name="Icircumflex" format="2">
  <advance width="500"/>
  <unicode hex="00CE"/>
  <outline>
    <contour>
      <point x="249" y="920" type="line"/>
      <point x="168" y="790" type="line"/>
      <point x="60" y="790" type="line"/>
      <point x="190" y="960" type="line"/>
      <point x="310" y="960" type="line"/>
      <point x="440" y="790" type="line"/>
      <point x="332" y="790" type="line"/>
      <point x="251" y="920" type="line"/>
    </contour>
    <contour>
      <point x="410" y="0" type="line"/>
      <point x="90" y="0" type="line"/>
      <point x="90" y="70" type="line"/>
      <point x="208" y="70" type="line"/>
      <point x="208" y="660" type="line"/>
      <point x="90" y="660" type="line"/>
      <point x="90" y="730" type="line"/>
      <point x="410" y="730" type="line"/>
      <point x="410" y="660" type="line"/>
      <point x="292" y="660" type="line"/>
      <point x="292" y="70" type="line"/>
      <point x="410" y="70" type="line"/>
    </contour>
  </outline>
</glyph>
<glyph name="Eth" format="2">
  <advance width="500"/>
  <unicode hex="00D0"/>
  <outline>
    <contour>
      <point x="10" y="336" type="line"/>
      <point x="10" y="422" type="line"/>
      <point x="80" y="422" type="line"/>
      <point x="80" y="725" type="line"/>
      <point x="147" y="740"/>
      <point x="217" y="740" type="qcurve"/>
      <point x="343" y="740"/>
      <point x="465" y="568"/>
      <point x="465" y="365" type="qcurve"/>
      <point x="465" y="160"/>
      <point x="343" y="-10"/>
      <point x="217" y="-10" type="qcurve"/>
      <point x="147" y="-10"/>
      <point x="80" y="5" type="qcurve"/>
      <point x="80" y="336" type="line"/>
    </contour>
    <contour>
      <point x="162" y="336" type="line"/>
      <point x="162" y="70" type="line"/>
      <point x="184" y="62"/>
      <point x="217" y="62" type="qcurve"/>
      <point x="274" y="62"/>
      <point x="343" y="111"/>
      <point x="383" y="246"/>
      <point x="383" y="365" type="qcurve"/>
      <point x="383" y="531"/>
      <point x="301" y="668"/>
      <point x="217" y="668" type="qcurve"/>
      <point x="184" y="668"/>
      <point x="162" y="660" type="qcurve"/>
      <point x="162" y="422" type="line"/>
      <point x="285" y="422" type="line"/>
      <point x="285" y="336" type="line"/>
    </contour>
  </outline>
</glyph>
<glyph name="Ntilde" format="2">
  <advance width="500"/>
  <unicode hex="00D1"/>
  <outline>
    <contour>
      <point x="85" y="795" type="line"/>
      <point x="85" y="881"/>
      <point x="118" y="950"/>
      <point x="152" y="950" type="qcurve"/>
      <point x="189" y="950"/>
      <point x="258" y="898" type="qcurve"/>
      <point x="306" y="860"/>
      <point x="325" y="860" type="qcurve"/>
      <point x="333" y="860"/>
      <point x="340" y="870"/>
      <point x="345" y="905"/>
      <point x="345" y="940" type="qcurve"/>
      <point x="415" y="940" type="line"/>
      <point x="415" y="854"/>
      <point x="382" y="785"/>
      <point x="348" y="785" type="qcurve"/>
      <point x="310" y="785"/>
      <point x="242" y="838" type="qcurve"/>
      <point x="193" y="875"/>
      <point x="175" y="875" type="qcurve"/>
      <point x="167" y="875"/>
      <point x="160" y="865"/>
      <point x="155" y="830"/>
      <point x="155" y="795" type="qcurve"/>
    </contour>
    <contour>
      <point x="151" y="550" type="line"/>
      <point x="149" y="550" type="line"/>
      <point x="149" y="0" type="line"/>
      <point x="65" y="0" type="line"/>
      <point x="65" y="730" type="line"/>
      <point x="149" y="730" type="line"/>
      <point x="353" y="180" type="line"/>
      <point x="355" y="180" type="line"/>
      <point x="355" y="730" type="line"/>
      <point x="435" y="730" type="line"/>
      <point x="435" y="0" type="line"/>
      <point x="355" y="0" type="line"/>
    </contour>
  </outline>
</glyph>
<glyph name="Ograve" format="2">
  <advance width="500"/>
  <unicode hex="00D2"/>
  <outline>
    <contour>
      <point x="240" y="960" type="line"/>
      <point x="350" y="790" type="line"/>
      <point x="270" y="790" type="line"/>
      <point x="120" y="960" type="line"/>
    </contour>
    <contour>
      <point x="143" y="740"/>
      <point x="357" y="740"/>
      <point x="460" y="571"/>
      <point x="460" y="159"/>
      <point x="357" y="-10"/>
      <point x="143" y="-10"/>
      <point x="40" y="159"/>
      <point x="40" y="571"/>
    </contour>
    <contour>
      <point x="206" y="62"/>
      <point x="294" y="62"/>
      <point x="348" y="113"/>
      <point x="380" y="249"/>
      <point x="380" y="481"/>
      <point x="348" y="617"/>
      <point x="294" y="668"/>
      <point x="206" y="668"/>
      <point x="152" y="617"/>
      <point x="120" y="481"/>
      <point x="120" y="249"/>
      <point x="152" y="113"/>
    </contour>
  </outline>
</glyph>
<glyph name="Oacute" format="2">
  <advance width="500"/>
  <unicode hex="00D3"/>
  <outline>
    <contour>
      <point x="260" y="960" type="line"/>
      <point x="380" y="960" type="line"/>
      <point x="230" y="790" type="line"/>
      <point x="150" y="790" type="line"/>
    </contour>
    <contour>
      <point x="143" y="740"/>
      <point x="357" y="740"/>
      <point x="460" y="571"/>
      <point x="460" y="159"/>
      <point x="357" y="-10"/>
      <point x="143" y="-10"/>
      <point x="40" y="159"/>
      <point x="40" y="571"/>
    </contour>
    <contour>
      <point x="206" y="62"/>
      <point x="294" y="62"/>
      <point x="348" y="113"/>
      <point x="380" y="249"/>
      <point x="380" y="481"/>
      <point x="348" y="617"/>
      <point x="294" y="668"/>
      <point x="206" y="668"/>
      <point x="152" y="617"/>
      <point x="120" y="481"/>
      <point x="120" y="249"/>
      <point x="152" y="113"/>
    </contour>
  </outline>
</glyph>
<glyph name="Ocircumflex" format="2">
  <advance width="500"/>
  <unicode hex="00D4"/>
  <outline>
    <contour>
      <point x="249" y="920" type="line"/>
      <point x="168" y="790" type="line"/>
      <point x="60" y="790" type="line"/>
      <point x="190" y="960" type="line"/>
      <point x="310" y="960" type="line"/>
      <point x="440" y="790" type="line"/>
      <point x="332" y="790" type="line"/>
      <point x="251" y="920" type="line"/>
    </contour>
    <contour>
      <point x="143" y="740"/>
      <point x="357" y="740"/>
      <point x="460" y="571"/>
      <point x="460" y="159"/>
      <point x="357" y="-10"/>
      <point x="143" y="-10"/>
      <point x="40" y="159"/>
      <point x="40" y="571"/>
    </contour>
    <contour>
      <point x="206" y="62"/>
      <point x="294" y="62"/>
      <point x="348" y="113"/>
      <point x="380" y="249"/>
      <point x="380" y="481"/>
      <point x="348" y="617"/>
      <point x="294" y="668"/>
      <point x="206" y="668"/>
      <point x="152" y="617"/>
      <point x="120" y="481"/>
      <point x="120" y="249"/>
      <point x="152" y="113"/>
    </contour>
  </outline>
</glyph>
<glyph name="Otilde" format="2">
  <advance width="500"/>
  <unicode hex="00D5"/>
  <outline>
    <contour>
      <point x="85" y="795" type="line"/>
      <point x="85" y="881"/>
      <point x="118" y="950"/>
      <point x="152" y="950" type="qcurve"/>
      <point x="189" y="950"/>
      <point x="258" y="898" type="qcurve"/>
      <point x="306" y="860"/>
      <point x="325" y="860" type="qcurve"/>
      <point x="333" y="860"/>
      <point x="340" y="870"/>
      <point x="345" y="905"/>
      <point x="345" y="940" type="qcurve"/>
      <point x="415" y="940" type="line"/>
      <point x="415" y="854"/>
      <point x="382" y="785"/>
      <point x="348" y="785" type="qcurve"/>
      <point x="310" y="785"/>
      <point x="242" y="838" type="qcurve"/>
      <point x="193" y="875"/>
      <point x="175" y="875" type="qcurve"/>
      <point x="167" y="875"/>
      <point x="160" y="865"/>
      <point x="155" y="830"/>
      <point x="155" y="795" type="qcurve"/>
    </contour>
    <contour>
      <point x="143" y="740"/>
      <point x="357" y="740"/>
      <point x="460" y="571"/>
      <point x="460" y="159"/>
      <point x="357" y="-10"/>
      <point x="143" y="-10"/>
      <point x="40" y="159"/>
      <point x="40" y="571"/>
    </contour>
    <contour>
      <point x="206" y="62"/>
      <point x="294" y="62"/>
      <point x="348" y="113"/>
      <point x="380" y="249"/>
      <point x="380" y="481"/>
      <point x="348" y="617"/>
      <point x="294" y="668"/>
      <point x="206" y="668"/>
      <point x="152" y="617"/>
      <point x="120" y="481"/>
      <point x="120" y="249"/>
      <point x="152" y="113"/>
    </contour>
  </outline>
</glyph>
<glyph name="Odieresis" format="2">
  <advance width="500"/>
  <unicode hex="00D6"/>
  <outline>
    <contour>
      <point x="290" y="810" type="line"/>
      <point x="290" y="940" type="line"/>
      <point x="370" y="940" type="line"/>
      <point x="370" y="810" type="line"/>
    </contour>
    <contour>
      <point x="130" y="810" type="line"/>
      <point x="130" y="940" type="line"/>
      <point x="210" y="940" type="line"/>
      <point x="210" y="810" type="line"/>
    </contour>
    <contour>
      <point x="143" y="740"/>
      <point x="357" y="740"/>
      <point x="460" y="571"/>
      <point x="460" y="159"/>
      <point x="357" y="-10"/>
      <point x="143" y="-10"/>
      <point x="40" y="159"/>
      <point x="40" y="571"/>
    </contour>
    <contour>
      <point x="206" y="62"/>
      <point x="294" y="62"/>
      <point x="348" y="113"/>
      <point x="380" y="249"/>
      <point x="380" y="481"/>
      <point x="348" y="617"/>
      <point x="294" y="668"/>
      <point x="206" y="668"/>
      <point x="152" y="617"/>
      <point x="120" y="481"/>
      <point x="120" y="249"/>
      <point x="152" y="113"/>
    </contour>
  </outline>
</glyph>
<glyph name="multiply" format="2">
  <advance width="500"/>
  <unicode hex="00D7"/>
  <outline>
    <contour>
      <point x="447" y="78" type="line"/>
      <point x="382" y="32" type="line"/>
      <point x="250" y="220" type="line"/>
      <point x="117" y="32" type="line"/>
      <point x="52" y="78" type="line"/>
      <point x="201" y="290" type="line"/>
      <point x="52" y="502" type="line"/>
      <point x="117" y="548" type="line"/>
      <point x="250" y="360" type="line"/>
      <point x="382" y="548" type="line"/>
      <point x="447" y="502" type="line"/>
      <point x="299" y="290" type="line"/>
    </contour>
  </outline>
</glyph>
<glyph name="Oslash" format="2">
  <advance width="500"/>
  <unicode hex="00D8"/>
  <outline>
    <contour>
      <point x="75" y="109" type="line"/>
      <point x="40" y="197"/>
      <point x="40" y="365" type="qcurve"/>
      <point x="40" y="571"/>
      <point x="143" y="740"/>
      <point x="250" y="740" type="qcurve"/>
      <point x="329" y="740"/>
      <point x="374" y="698" type="qcurve"/>
      <point x="404" y="758" type="line"/>
      <point x="476" y="722" type="line"/>
      <point x="425" y="621" type="line"/>
      <point x="460" y="533"/>
      <point x="460" y="365" type="qcurve"/>
      <point x="460" y="159"/>
      <point x="357" y="-10"/>
      <point x="250" y="-10" type="qcurve"/>
      <point x="171" y="-10"/>
      <point x="126" y="32" type="qcurve"/>
      <point x="96" y="-28" type="line"/>
      <point x="24" y="8" type="line"/>
    </contour>
    <contour>
      <point x="129" y="215" type="qcurve"/>
      <point x="336" y="623" type="line"/>
      <point x="307" y="668"/>
      <point x="250" y="668" type="qcurve"/>
      <point x="206" y="668"/>
      <point x="152" y="617"/>
      <point x="120" y="481"/>
      <point x="120" y="365" type="qcurve"/>
      <point x="120" y="275"/>
    </contour>
    <contour>
      <point x="164" y="107" type="line"/>
      <point x="193" y="62"/>
      <point x="250" y="62" type="qcurve"/>
      <point x="294" y="62"/>
      <point x="348" y="113"/>
      <point x="380" y="249"/>
      <point x="380" y="365" type="qcurve"/>
      <point x="380" y="455"/>
      <point x="371" y="515" type="qcurve"/>
    </contour>
  </outline>
</glyph>
<glyph name="Ugrave" format="2">
  <advance width="500"/>
  <unicode hex="00D9"/>
  <outline>
    <contour>
      <point x="345" y="-10"/>
      <point x="155" y="-10"/>
      <point x="60" y="87"/>
      <point x="60" y="190" type="qcurve"/>
      <point x="60" y="730" type="line"/>
      <point x="144" y="730" type="line"/>
      <point x="144" y="210" type="line"/>
      <point x="144" y="129"/>
      <point x="197" y="62"/>
      <point x="307" y="62"/>
      <point x="360" y="129"/>
      <point x="360" y="210" type="qcurve"/>
      <point x="360" y="730" type="line"/>
      <point x="440" y="730" type="line"/>
      <point x="440" y="190" type="line"/>
      <point x="440" y="87"/>
    </contour>
    <contour>
      <point x="240" y="960" type="line"/>
      <point x="350" y="790" type="line"/>
      <point x="270" y="790" type="line"/>
      <point x="120" y="960" type="line"/>
    </contour>
  </outline>
</glyph>
<glyph name="Uacute" format="2">
  <advance width="500"/>
  <unicode hex="00DA"/>
  <outline>
    <contour>
      <point x="345" y="-10"/>
      <point x="155" y="-10"/>
      <point x="60" y="87"/>
      <point x="60" y="190" type="qcurve"/>
      <point x="60" y="730" type="line"/>
      <point x="144" y="730" type="line"/>
      <point x="144" y="210" type="line"/>
      <point x="144" y="129"/>
      <point x="197" y="62"/>
      <point x="307" y="62"/>
      <point x="360" y="129"/>
      <point x="360" y="210" type="qcurve"/>
      <point x="360" y="730" type="line"/>
      <point x="440" y="730" type="line"/>
      <point x="440" y="190" type="line"/>
      <point x="440" y="87"/>
    </contour>
    <contour>
      <point x="260" y="960" type="line"/>
      <point x="380" y="960" type="line"/>
      <point x="230" y="790" type="line"/>
      <point x="150" y="790" type="line"/>
    </contour>
  </outline>
</glyph>
<glyph name="Ucircumflex" format="2">
  <advance width="500"/>
  <unicode hex="00DB"/>
  <outline>
    <contour>
      <point x="345" y="-10"/>
      <point x="155" y="-10"/>
      <point x="60" y="87"/>
      <point x="60" y="190" type="qcurve"/>
      <point x="60" y="730" type="line"/>
      <point x="144" y="730" type="line"/>
      <point x="144" y="210" type="line"/>
      <point x="144" y="129"/>
      <point x="197" y="62"/>
      <point x="307" y="62"/>
      <point x="360" y="129"/>
      <point x="360" y="210" type="qcurve"/>
      <point x="360" y="730" type="line"/>
      <point x="440" y="730" type="line"/>
      <point x="440" y="190" type="line"/>
      <point x="440" y="87"/>
    </contour>
    <contour>
      <point x="249" y="920" type="line"/>
      <point x="168" y="790" type="line"/>
      <point x="60" y="790" type="line"/>
      <point x="190" y="960" type="line"/>
      <point x="310" y="960" type="line"/>
      <point x="440" y="790" type="line"/>
      <point x="332" y="790" type="line"/>
      <point x="251" y="920" type="line"/>
    </contour>
  </outline>
</glyph>
<glyph name="Udieresis" format="2">
  <advance width="500"/>
  <unicode hex="00DC"/>
  <outline>
    <contour>
      <point x="345" y="-10"/>
      <point x="155" y="-10"/>
      <point x="60" y="87"/>
      <point x="60" y="190" type="qcurve"/>
      <point x="60" y="730" type="line"/>
      <point x="144" y="730" type="line"/>
      <point x="144" y="210" type="line"/>
      <point x="144" y="129"/>
      <point x="197" y="62"/>
      <point x="307" y="62"/>
      <point x="360" y="129"/>
      <point x="360" y="210" type="qcurve"/>
      <point x="360" y="730" type="line"/>
      <point x="440" y="730" type="line"/>
      <point x="440" y="190" type="line"/>
      <point x="440" y="87"/>
    </contour>
    <contour>
      <point x="290" y="810" type="line"/>
      <point x="290" y="940" type="line"/>
      <point x="370" y="940" type="line"/>
      <point x="370" y="810" type="line"/>
    </contour>
    <contour>
      <point x="130" y="810" type="line"/>
      <point x="130" y="940" type="line"/>
      <point x="210" y="940" type="line"/>
      <point x="210" y="810" type="line"/>
    </contour>
  </outline>
</glyph>
<glyph name="Yacute" format="2">
  <advance width="500"/>
  <unicode hex="00DD"/>
  <outline>
    <contour>
      <point x="251" y="375" type="line"/>
      <point x="253" y="375" type="line"/>
      <point x="385" y="730" type="line"/>
      <point x="470" y="730" type="line"/>
      <point x="291" y="290" type="line"/>
      <point x="291" y="0" type="line"/>
      <point x="209" y="0" type="line"/>
      <point x="209" y="290" type="line"/>
      <point x="30" y="730" type="line"/>
      <point x="120" y="730" type="line"/>
    </contour>
    <contour>
      <point x="260" y="960" type="line"/>
      <point x="380" y="960" type="line"/>
      <point x="230" y="790" type="line"/>
      <point x="150" y="790" type="line"/>
    </contour>
  </outline>
</glyph>
<glyph name="Thorn" format="2">
  <advance width="500"/>
  <unicode hex="00DE"/>
  <outline>
    <contour>
      <point x="160" y="610" type="line"/>
      <point x="197" y="615"/>
      <point x="238" y="615" type="qcurve"/>
      <point x="352" y="615"/>
      <point x="458" y="509"/>
      <point x="458" y="395" type="qcurve"/>
      <point x="458" y="275"/>
      <point x="353" y="170"/>
      <point x="240" y="170" type="qcurve"/>
      <point x="205" y="170"/>
      <point x="160" y="175" type="qcurve"/>
      <point x="160" y="0" type="line"/>
      <point x="78" y="0" type="line"/>
      <point x="78" y="730" type="line"/>
      <point x="160" y="730" type="line"/>
    </contour>
    <contour>
      <point x="160" y="245" type="line"/>
      <point x="188" y="240"/>
      <point x="230" y="240" type="qcurve"/>
      <point x="307" y="240"/>
      <point x="378" y="311"/>
      <point x="378" y="395" type="qcurve"/>
      <point x="378" y="474"/>
      <point x="306" y="545"/>
      <point x="230" y="545" type="qcurve"/>
      <point x="187" y="545"/>
      <point x="160" y="537" type="qcurve"/>
    </contour>
  </outline>
</glyph>
<glyph name="germandbls" format="2">
  <advance width="500"/>
  <unicode hex="00DF"/>
  <outline>
    <contour>
      <point x="465" y="152" type="qcurve"/>
      <point x="465" y="72"/>
      <point x="386" y="-10"/>
      <point x="312" y="-10" type="qcurve"/>
      <point x="258" y="-10"/>
      <point x="192" y="8" type="qcurve"/>
      <point x="201" y="78" type="line"/>
      <point x="263" y="60"/>
      <point x="300" y="60" type="qcurve"/>
      <point x="380" y="60"/>
      <point x="380" y="152" type="qcurve"/>
      <point x="380" y="189"/>
      <point x="319" y="288"/>
      <point x="258" y="376"/>
      <point x="258" y="398" type="qcurve"/>
      <point x="258" y="421"/>
      <point x="353" y="582"/>
      <point x="353" y="620" type="qcurve"/>
      <point x="353" y="690"/>
      <point x="255" y="690" type="qcurve"/>
      <point x="193" y="690"/>
      <point x="147" y="630"/>
      <point x="147" y="540" type="qcurve"/>
      <point x="147" y="0" type="line"/>
      <point x="65" y="0" type="line"/>
      <point x="65" y="538" type="line"/>
      <point x="65" y="657"/>
      <point x="153" y="760"/>
      <point x="252" y="760" type="qcurve"/>
      <point x="340" y="760"/>
      <point x="435" y="684"/>
      <point x="435" y="615" type="qcurve"/>
      <point x="435" y="575"/>
      <point x="388" y="480"/>
      <point x="342" y="410"/>
      <point x="342" y="398" type="qcurve"/>
      <point x="342" y="387"/>
      <point x="380" y="331"/>
      <point x="427" y="271"/>
      <point x="465" y="188"/>
    </contour>
  </outline>
</glyph>
<glyph name="agrave" format="2">
  <advance width="500"/>
  <unicode hex="00E0"/>
  <outline>
    <contour>
      <point x="255" y="530" type="qcurve"/>
      <point x="355" y="530"/>
      <point x="430" y="450"/>
      <point x="430" y="340" type="qcurve"/>
      <point x="430" y="0" type="line"/>
      <point x="358" y="0" type="line"/>
      <point x="356" y="75" type="line"/>
      <point x="354" y="75" type="line"/>
      <point x="307" y="-10"/>
      <point x="205" y="-10" type="qcurve"/>
      <point x="140" y="-10"/>
      <point x="60" y="73"/>
      <point x="60" y="145" type="qcurve"/>
      <point x="60" y="236"/>
      <point x="183" y="335"/>
      <point x="305" y="335" type="qcurve"/>
      <point x="353" y="335" type="line"/>
      <point x="353" y="360" type="line"/>
      <point x="353" y="417"/>
      <point x="309" y="463"/>
      <point x="255" y="463" type="qcurve"/>
      <point x="222" y="463"/>
      <point x="120" y="439"/>
      <point x="85" y="423" type="qcurve"/>
      <point x="85" y="495" type="line"/>
      <point x="120" y="510"/>
      <point x="220" y="530"/>
    </contour>
    <contour>
      <point x="240" y="760" type="line"/>
      <point x="350" y="590" type="line"/>
      <point x="270" y="590" type="line"/>
      <point x="120" y="760" type="line"/>
    </contour>
    <contour>
      <point x="353" y="275" type="line"/>
      <point x="305" y="275" type="line"/>
      <point x="135" y="275"/>
      <point x="135" y="150" type="qcurve"/>
      <point x="135" y="105"/>
      <point x="181" y="57"/>
      <point x="220" y="57" type="qcurve"/>
      <point x="279" y="57"/>
      <point x="353" y="153"/>
      <point x="353" y="240" type="qcurve"/>
    </contour>
  </outline>
</glyph>
<glyph name="aacute" format="2">
  <advance width="500"/>
  <unicode hex="00E1"/>
  <outline>
    <contour>
      <point x="255" y="530" type="qcurve"/>
      <point x="355" y="530"/>
      <point x="430" y="450"/>
      <point x="430" y="340" type="qcurve"/>
      <point x="430" y="0" type="line"/>
      <point x="358" y="0" type="line"/>
      <point x="356" y="75" type="line"/>
      <point x="354" y="75" type="line"/>
      <point x="307" y="-10"/>
      <point x="205" y="-10" type="qcurve"/>
      <point x="140" y="-10"/>
      <point x="60" y="73"/>
      <point x="60" y="145" type="qcurve"/>
      <point x="60" y="236"/>
      <point x="183" y="335"/>
      <point x="305" y="335" type="qcurve"/>
      <point x="353" y="335" type="line"/>
      <point x="353" y="360" type="line"/>
      <point x="353" y="417"/>
      <point x="309" y="463"/>
      <point x="255" y="463" type="qcurve"/>
      <point x="222" y="463"/>
      <point x="120" y="439"/>
      <point x="85" y="423" type="qcurve"/>
      <point x="85" y="495" type="line"/>
      <point x="120" y="510"/>
      <point x="220" y="530"/>
    </contour>
    <contour>
      <point x="260" y="760" type="line"/>
      <point x="380" y="760" type="line"/>
      <point x="230" y="590" type="line"/>
      <point x="150" y="590" type="line"/>
    </contour>
    <contour>
      <point x="353" y="275" type="line"/>
      <point x="305" y="275" type="line"/>
      <point x="135" y="275"/>
      <point x="135" y="150" type="qcurve"/>
      <point x="135" y="105"/>
      <point x="181" y="57"/>
      <point x="220" y="57" type="qcurve"/>
      <point x="279" y="57"/>
      <point x="353" y="153"/>
      <point x="353" y="240" type="qcurve"/>
    </contour>
  </outline>
</glyph>
<glyph name="acircumflex" format="2">
  <advance width="500"/>
  <unicode hex="00E2"/>
  <outline>
    <contour>
      <point x="255" y="530" type="qcurve"/>
      <point x="355" y="530"/>
      <point x="430" y="450"/>
      <point x="430" y="340" type="qcurve"/>
      <point x="430" y="0" type="line"/>
      <point x="358" y="0" type="line"/>
      <point x="356" y="75" type="line"/>
      <point x="354" y="75" type="line"/>
      <point x="307" y="-10"/>
      <point x="205" y="-10" type="qcurve"/>
      <point x="140" y="-10"/>
      <point x="60" y="73"/>
      <point x="60" y="145" type="qcurve"/>
      <point x="60" y="236"/>
      <point x="183" y="335"/>
      <point x="305" y="335" type="qcurve"/>
      <point x="353" y="335" type="line"/>
      <point x="353" y="360" type="line"/>
      <point x="353" y="417"/>
      <point x="309" y="463"/>
      <point x="255" y="463" type="qcurve"/>
      <point x="222" y="463"/>
      <point x="120" y="439"/>
      <point x="85" y="423" type="qcurve"/>
      <point x="85" y="495" type="line"/>
      <point x="120" y="510"/>
      <point x="220" y="530"/>
    </contour>
    <contour>
      <point x="249" y="720" type="line"/>
      <point x="168" y="590" type="line"/>
      <point x="60" y="590" type="line"/>
      <point x="190" y="760" type="line"/>
      <point x="310" y="760" type="line"/>
      <point x="440" y="590" type="line"/>
      <point x="332" y="590" type="line"/>
      <point x="251" y="720" type="line"/>
    </contour>
    <contour>
      <point x="353" y="275" type="line"/>
      <point x="305" y="275" type="line"/>
      <point x="135" y="275"/>
      <point x="135" y="150" type="qcurve"/>
      <point x="135" y="105"/>
      <point x="181" y="57"/>
      <point x="220" y="57" type="qcurve"/>
      <point x="279" y="57"/>
      <point x="353" y="153"/>
      <point x="353" y="240" type="qcurve"/>
    </contour>
  </outline>
</glyph>
<glyph name="atilde" format="2">
  <advance width="500"/>
  <unicode hex="00E3"/>
  <outline>
    <contour>
      <point x="255" y="530" type="qcurve"/>
      <point x="355" y="530"/>
      <point x="430" y="450"/>
      <point x="430" y="340" type="qcurve"/>
      <point x="430" y="0" type="line"/>
      <point x="358" y="0" type="line"/>
      <point x="356" y="75" type="line"/>
      <point x="354" y="75" type="line"/>
      <point x="307" y="-10"/>
      <point x="205" y="-10" type="qcurve"/>
      <point x="140" y="-10"/>
      <point x="60" y="73"/>
      <point x="60" y="145" type="qcurve"/>
      <point x="60" y="236"/>
      <point x="183" y="335"/>
      <point x="305" y="335" type="qcurve"/>
      <point x="353" y="335" type="line"/>
      <point x="353" y="360" type="line"/>
      <point x="353" y="417"/>
      <point x="309" y="463"/>
      <point x="255" y="463" type="qcurve"/>
      <point x="222" y="463"/>
      <point x="120" y="439"/>
      <point x="85" y="423" type="qcurve"/>
      <point x="85" y="495" type="line"/>
      <point x="120" y="510"/>
      <point x="220" y="530"/>
    </contour>
    <contour>
      <point x="85" y="585" type="line"/>
      <point x="85" y="671"/>
      <point x="118" y="740"/>
      <point x="152" y="740" type="qcurve"/>
      <point x="189" y="740"/>
      <point x="258" y="688" type="qcurve"/>
      <point x="306" y="650"/>
      <point x="325" y="650" type="qcurve"/>
      <point x="333" y="650"/>
      <point x="340" y="660"/>
      <point x="345" y="695"/>
      <point x="345" y="730" type="qcurve"/>
      <point x="415" y="730" type="line"/>
      <point x="415" y="644"/>
      <point x="382" y="575"/>
      <point x="348" y="575" type="qcurve"/>
      <point x="310" y="575"/>
      <point x="242" y="628" type="qcurve"/>
      <point x="193" y="665"/>
      <point x="175" y="665" type="qcurve"/>
      <point x="167" y="665"/>
      <point x="160" y="655"/>
      <point x="155" y="620"/>
      <point x="155" y="585" type="qcurve"/>
    </contour>
    <contour>
      <point x="353" y="275" type="line"/>
      <point x="305" y="275" type="line"/>
      <point x="135" y="275"/>
      <point x="135" y="150" type="qcurve"/>
      <point x="135" y="105"/>
      <point x="181" y="57"/>
      <point x="220" y="57" type="qcurve"/>
      <point x="279" y="57"/>
      <point x="353" y="153"/>
      <point x="353" y="240" type="qcurve"/>
    </contour>
  </outline>
</glyph>
<glyph name="aring" format="2">
  <advance width="500"/>
  <unicode hex="00E5"/>
  <outline>
    <contour>
      <point x="255" y="530" type="qcurve"/>
      <point x="355" y="530"/>
      <point x="430" y="450"/>
      <point x="430" y="340" type="qcurve"/>
      <point x="430" y="0" type="line"/>
      <point x="358" y="0" type="line"/>
      <point x="356" y="75" type="line"/>
      <point x="354" y="75" type="line"/>
      <point x="307" y="-10"/>
      <point x="205" y="-10" type="qcurve"/>
      <point x="140" y="-10"/>
      <point x="60" y="73"/>
      <point x="60" y="145" type="qcurve"/>
      <point x="60" y="236"/>
      <point x="183" y="335"/>
      <point x="305" y="335" type="qcurve"/>
      <point x="353" y="335" type="line"/>
      <point x="353" y="360" type="line"/>
      <point x="353" y="417"/>
      <point x="309" y="463"/>
      <point x="255" y="463" type="qcurve"/>
      <point x="222" y="463"/>
      <point x="120" y="439"/>
      <point x="85" y="423" type="qcurve"/>
      <point x="85" y="495" type="line"/>
      <point x="120" y="510"/>
      <point x="220" y="530"/>
    </contour>
    <contour>
      <point x="353" y="275" type="line"/>
      <point x="305" y="275" type="line"/>
      <point x="135" y="275"/>
      <point x="135" y="150" type="qcurve"/>
      <point x="135" y="105"/>
      <point x="180" y="57"/>
      <point x="220" y="57" type="qcurve"/>
      <point x="279" y="57"/>
      <point x="353" y="153"/>
      <point x="353" y="240" type="qcurve"/>
    </contour>
    <contour>
      <point x="380" y="739"/>
      <point x="380" y="631"/>
      <point x="304" y="555"/>
      <point x="196" y="555"/>
      <point x="120" y="631"/>
      <point x="120" y="739"/>
      <point x="196" y="815"/>
      <point x="304" y="815"/>
    </contour>
    <contour>
      <point x="320" y="656"/>
      <point x="320" y="714"/>
      <point x="279" y="755"/>
      <point x="221" y="755"/>
      <point x="180" y="714"/>
      <point x="180" y="656"/>
      <point x="221" y="615"/>
      <point x="279" y="615"/>
    </contour>
  </outline>
</glyph>
<glyph name="ccedilla" format="2">
  <advance width="500"/>
  <unicode hex="00E7"/>
  <outline>
    <contour>
      <point x="80" y="260" type="qcurve"/>
      <point x="80" y="394"/>
      <point x="190" y="530"/>
      <point x="290" y="530" type="qcurve"/>
      <point x="351" y="530"/>
      <point x="415" y="505" type="qcurve"/>
      <point x="415" y="425" type="line"/>
      <point x="355" y="458"/>
      <point x="295" y="458" type="qcurve"/>
      <point x="232" y="458"/>
      <point x="162" y="358"/>
      <point x="162" y="260" type="qcurve"/>
      <point x="162" y="159"/>
      <point x="236" y="59"/>
      <point x="300" y="59" type="qcurve"/>
      <point x="359" y="59"/>
      <point x="420" y="95" type="qcurve"/>
      <point x="420" y="15" type="line"/>
      <point x="381" y="0"/>
      <point x="340" y="-6" type="qcurve"/>
      <point x="368" y="-51"/>
      <point x="368" y="-100" type="qcurve"/>
      <point x="368" y="-151"/>
      <point x="296" y="-220"/>
      <point x="220" y="-220" type="qcurve"/>
      <point x="166" y="-220"/>
      <point x="118" y="-201" type="qcurve"/>
      <point x="118" y="-128" type="line"/>
      <point x="159" y="-150"/>
      <point x="210" y="-150" type="qcurve"/>
      <point x="247" y="-150"/>
      <point x="290" y="-112"/>
      <point x="290" y="-80" type="qcurve"/>
      <point x="290" y="-43"/>
      <point x="266" y="-9" type="qcurve"/>
      <point x="177" y="0"/>
      <point x="80" y="135"/>
    </contour>
  </outline>
</glyph>
<glyph name="eacute" format="2">
  <advance width="500"/>
  <unicode hex="00E9"/>
  <outline>
    <contour>
      <point x="260" y="760" type="line"/>
      <point x="380" y="760" type="line"/>
      <point x="230" y="590" type="line"/>
      <point x="150" y="590" type="line"/>
    </contour>
    <contour>
      <point x="138" y="234" type="line"/>
      <point x="142" y="141"/>
      <point x="210" y="59"/>
      <point x="275" y="59" type="qcurve"/>
      <point x="336" y="59"/>
      <point x="410" y="95" type="qcurve"/>
      <point x="410" y="15" type="line"/>
      <point x="336" y="-10"/>
      <point x="270" y="-10" type="qcurve"/>
      <point x="55" y="-10"/>
      <point x="55" y="260" type="qcurve"/>
      <point x="55" y="401"/>
      <point x="155" y="530"/>
      <point x="255" y="530" type="qcurve"/>
      <point x="346" y="530"/>
      <point x="435" y="406"/>
      <point x="435" y="265" type="qcurve"/>
      <point x="435" y="254"/>
      <point x="433" y="234" type="qcurve"/>
    </contour>
    <contour>
      <point x="138" y="300" type="qcurve"/>
      <point x="356" y="300" type="line"/>
      <point x="355" y="461"/>
      <point x="255" y="461" type="qcurve"/>
      <point x="198" y="461"/>
      <point x="142" y="389"/>
    </contour>
  </outline>
</glyph>
<glyph name="ecircumflex" format="2">
  <advance width="500"/>
  <unicode hex="00EA"/>
  <outline>
    <contour>
      <point x="249" y="720" type="line"/>
      <point x="168" y="590" type="line"/>
      <point x="60" y="590" type="line"/>
      <point x="190" y="760" type="line"/>
      <point x="310" y="760" type="line"/>
      <point x="440" y="590" type="line"/>
      <point x="332" y="590" type="line"/>
      <point x="251" y="720" type="line"/>
    </contour>
    <contour>
      <point x="138" y="234" type="line"/>
      <point x="142" y="141"/>
      <point x="210" y="59"/>
      <point x="275" y="59" type="qcurve"/>
      <point x="336" y="59"/>
      <point x="410" y="95" type="qcurve"/>
      <point x="410" y="15" type="line"/>
      <point x="336" y="-10"/>
      <point x="270" y="-10" type="qcurve"/>
      <point x="55" y="-10"/>
      <point x="55" y="260" type="qcurve"/>
      <point x="55" y="401"/>
      <point x="155" y="530"/>
      <point x="255" y="530" type="qcurve"/>
      <point x="346" y="530"/>
      <point x="435" y="406"/>
      <point x="435" y="265" type="qcurve"/>
      <point x="435" y="254"/>
      <point x="433" y="234" type="qcurve"/>
    </contour>
    <contour>
      <point x="138" y="300" type="qcurve"/>
      <point x="356" y="300" type="line"/>
      <point x="355" y="461"/>
      <point x="255" y="461" type="qcurve"/>
      <point x="198" y="461"/>
      <point x="142" y="389"/>
    </contour>
  </outline>
</glyph>
<glyph name="edieresis" format="2">
  <advance width="500"/>
  <unicode hex="00EB"/>
  <outline>
    <contour>
      <point x="290" y="610" type="line"/>
      <point x="290" y="740" type="line"/>
      <point x="370" y="740" type="line"/>
      <point x="370" y="610" type="line"/>
    </contour>
    <contour>
      <point x="130" y="610" type="line"/>
      <point x="130" y="740" type="line"/>
      <point x="210" y="740" type="line"/>
      <point x="210" y="610" type="line"/>
    </contour>
    <contour>
      <point x="138" y="234" type="line"/>
      <point x="142" y="141"/>
      <point x="210" y="59"/>
      <point x="275" y="59" type="qcurve"/>
      <point x="336" y="59"/>
      <point x="410" y="95" type="qcurve"/>
      <point x="410" y="15" type="line"/>
      <point x="336" y="-10"/>
      <point x="270" y="-10" type="qcurve"/>
      <point x="55" y="-10"/>
      <point x="55" y="260" type="qcurve"/>
      <point x="55" y="401"/>
      <point x="155" y="530"/>
      <point x="255" y="530" type="qcurve"/>
      <point x="346" y="530"/>
      <point x="435" y="406"/>
      <point x="435" y="265" type="qcurve"/>
      <point x="435" y="254"/>
      <point x="433" y="234" type="qcurve"/>
    </contour>
    <contour>
      <point x="138" y="300" type="qcurve"/>
      <point x="356" y="300" type="line"/>
      <point x="355" y="461"/>
      <point x="255" y="461" type="qcurve"/>
      <point x="198" y="461"/>
      <point x="142" y="389"/>
    </contour>
  </outline>
</glyph>
<glyph name="igrave" format="2">
  <advance width="500"/>
  <unicode hex="00EC"/>
  <outline>
    <contour>
      <point x="316" y="520" type="line"/>
      <point x="316" y="68" type="line"/>
      <point x="425" y="68" type="line"/>
      <point x="425" y="0" type="line"/>
      <point x="95" y="0" type="line"/>
      <point x="95" y="68" type="line"/>
      <point x="234" y="68" type="line"/>
      <point x="234" y="452" type="line"/>
      <point x="125" y="452" type="line"/>
      <point x="125" y="520" type="line"/>
    </contour>
    <contour>
      <point x="240" y="760" type="line"/>
      <point x="350" y="590" type="line"/>
      <point x="270" y="590" type="line"/>
      <point x="120" y="760" type="line"/>
    </contour>
  </outline>
</glyph>
<glyph name="iacute" format="2">
  <advance width="500"/>
  <unicode hex="00ED"/>
  <outline>
    <contour>
      <point x="316" y="520" type="line"/>
      <point x="316" y="68" type="line"/>
      <point x="425" y="68" type="line"/>
      <point x="425" y="0" type="line"/>
      <point x="95" y="0" type="line"/>
      <point x="95" y="68" type="line"/>
      <point x="234" y="68" type="line"/>
      <point x="234" y="452" type="line"/>
      <point x="125" y="452" type="line"/>
      <point x="125" y="520" type="line"/>
    </contour>
    <contour>
      <point x="260" y="760" type="line"/>
      <point x="380" y="760" type="line"/>
      <point x="230" y="590" type="line"/>
      <point x="150" y="590" type="line"/>
    </contour>
  </outline>
</glyph>
<glyph name="icircumflex" format="2">
  <advance width="500"/>
  <unicode hex="00EE"/>
  <outline>
    <contour>
      <point x="316" y="520" type="line"/>
      <point x="316" y="68" type="line"/>
      <point x="425" y="68" type="line"/>
      <point x="425" y="0" type="line"/>
      <point x="95" y="0" type="line"/>
      <point x="95" y="68" type="line"/>
      <point x="234" y="68" type="line"/>
      <point x="234" y="452" type="line"/>
      <point x="125" y="452" type="line"/>
      <point x="125" y="520" type="line"/>
    </contour>
    <contour>
      <point x="249" y="720" type="line"/>
      <point x="168" y="590" type="line"/>
      <point x="60" y="590" type="line"/>
      <point x="190" y="760" type="line"/>
      <point x="310" y="760" type="line"/>
      <point x="440" y="590" type="line"/>
      <point x="332" y="590" type="line"/>
      <point x="251" y="720" type="line"/>
    </contour>
  </outline>
</glyph>
<glyph name="idieresis" format="2">
  <advance width="500"/>
  <unicode hex="00EF"/>
  <outline>
    <contour>
      <point x="316" y="520" type="line"/>
      <point x="316" y="68" type="line"/>
      <point x="425" y="68" type="line"/>
      <point x="425" y="0" type="line"/>
      <point x="95" y="0" type="line"/>
      <point x="95" y="68" type="line"/>
      <point x="234" y="68" type="line"/>
      <point x="234" y="452" type="line"/>
      <point x="125" y="452" type="line"/>
      <point x="125" y="520" type="line"/>
    </contour>
    <contour>
      <point x="290" y="610" type="line"/>
      <point x="290" y="740" type="line"/>
      <point x="370" y="740" type="line"/>
      <point x="370" y="610" type="line"/>
    </contour>
    <contour>
      <point x="130" y="610" type="line"/>
      <point x="130" y="740" type="line"/>
      <point x="210" y="740" type="line"/>
      <point x="210" y="610" type="line"/>
    </contour>
  </outline>
</glyph>
<glyph name="eth" format="2">
  <advance width="500"/>
  <unicode hex="00F0"/>
  <outline>
    <contour>
      <point x="250" y="530" type="qcurve"/>
      <point x="277" y="530"/>
      <point x="309" y="522" type="qcurve"/>
      <point x="310" y="524" type="line"/>
      <point x="286" y="566"/>
      <point x="255" y="595" type="qcurve"/>
      <point x="99" y="526" type="line"/>
      <point x="71" y="589" type="line"/>
      <point x="185" y="641" type="line"/>
      <point x="149" y="657"/>
      <point x="105" y="665" type="qcurve"/>
      <point x="132" y="740" type="line"/>
      <point x="213" y="725"/>
      <point x="276" y="682" type="qcurve"/>
      <point x="406" y="739" type="line"/>
      <point x="434" y="676" type="line"/>
      <point x="334" y="631" type="line"/>
      <point x="450" y="501"/>
      <point x="450" y="260" type="qcurve"/>
      <point x="450" y="-10"/>
      <point x="50" y="-10"/>
      <point x="50" y="530"/>
    </contour>
    <contour>
      <point x="189" y="59"/>
      <point x="311" y="59"/>
      <point x="368" y="150"/>
      <point x="368" y="370"/>
      <point x="311" y="461"/>
      <point x="189" y="461"/>
      <point x="132" y="370"/>
      <point x="132" y="150"/>
    </contour>
  </outline>
</glyph>
<glyph name="ntilde" format="2">
  <advance width="500"/>
  <unicode hex="00F1"/>
  <outline>
    <contour>
      <point x="440" y="0" type="line"/>
      <point x="363" y="0" type="line"/>
      <point x="363" y="312" type="line"/>
      <point x="363" y="400"/>
      <point x="323" y="459"/>
      <point x="270" y="459" type="qcurve"/>
      <point x="220" y="459"/>
      <point x="149" y="347"/>
      <point x="149" y="252" type="qcurve"/>
      <point x="149" y="0" type="line"/>
      <point x="70" y="0" type="line"/>
      <point x="70" y="520" type="line"/>
      <point x="144" y="520" type="line"/>
      <point x="146" y="445" type="line"/>
      <point x="148" y="445" type="line"/>
      <point x="167" y="483"/>
      <point x="245" y="530"/>
      <point x="290" y="530" type="qcurve"/>
      <point x="369" y="530"/>
      <point x="440" y="439"/>
      <point x="440" y="330" type="qcurve"/>
    </contour>
    <contour>
      <point x="85" y="585" type="line"/>
      <point x="85" y="671"/>
      <point x="118" y="740"/>
      <point x="152" y="740" type="qcurve"/>
      <point x="189" y="740"/>
      <point x="258" y="688" type="qcurve"/>
      <point x="306" y="650"/>
      <point x="325" y="650" type="qcurve"/>
      <point x="333" y="650"/>
      <point x="340" y="660"/>
      <point x="345" y="695"/>
      <point x="345" y="730" type="qcurve"/>
      <point x="415" y="730" type="line"/>
      <point x="415" y="644"/>
      <point x="382" y="575"/>
      <point x="348" y="575" type="qcurve"/>
      <point x="310" y="575"/>
      <point x="242" y="628" type="qcurve"/>
      <point x="193" y="665"/>
      <point x="175" y="665" type="qcurve"/>
      <point x="167" y="665"/>
      <point x="160" y="655"/>
      <point x="155" y="620"/>
      <point x="155" y="585" type="qcurve"/>
    </contour>
  </outline>
</glyph>
<glyph name="ograve" format="2">
  <advance width="500"/>
  <unicode hex="00F2"/>
  <outline>
    <contour>
      <point x="50" y="530"/>
      <point x="450" y="530"/>
      <point x="450" y="-10"/>
      <point x="50" y="-10"/>
    </contour>
    <contour>
      <point x="240" y="760" type="line"/>
      <point x="350" y="590" type="line"/>
      <point x="270" y="590" type="line"/>
      <point x="120" y="760" type="line"/>
    </contour>
    <contour>
      <point x="189" y="59"/>
      <point x="311" y="59"/>
      <point x="368" y="150"/>
      <point x="368" y="370"/>
      <point x="311" y="461"/>
      <point x="189" y="461"/>
      <point x="132" y="370"/>
      <point x="132" y="150"/>
    </contour>
  </outline>
</glyph>
<glyph name="oacute" format="2">
  <advance width="500"/>
  <unicode hex="00F3"/>
  <outline>
    <contour>
      <point x="50" y="530"/>
      <point x="450" y="530"/>
      <point x="450" y="-10"/>
      <point x="50" y="-10"/>
    </contour>
    <contour>
      <point x="260" y="760" type="line"/>
      <point x="380" y="760" type="line"/>
      <point x="230" y="590" type="line"/>
      <point x="150" y="590" type="line"/>
    </contour>
    <contour>
      <point x="189" y="59"/>
      <point x="311" y="59"/>
      <point x="368" y="150"/>
      <point x="368" y="370"/>
      <point x="311" y="461"/>
      <point x="189" y="461"/>
      <point x="132" y="370"/>
      <point x="132" y="150"/>
    </contour>
  </outline>
</glyph>
<glyph name="ocircumflex" format="2">
  <advance width="500"/>
  <unicode hex="00F4"/>
  <outline>
    <contour>
      <point x="50" y="530"/>
      <point x="450" y="530"/>
      <point x="450" y="-10"/>
      <point x="50" y="-10"/>
    </contour>
    <contour>
      <point x="249" y="720" type="line"/>
      <point x="168" y="590" type="line"/>
      <point x="60" y="590" type="line"/>
      <point x="190" y="760" type="line"/>
      <point x="310" y="760" type="line"/>
      <point x="440" y="590" type="line"/>
      <point x="332" y="590" type="line"/>
      <point x="251" y="720" type="line"/>
    </contour>
    <contour>
      <point x="189" y="59"/>
      <point x="311" y="59"/>
      <point x="368" y="150"/>
      <point x="368" y="370"/>
      <point x="311" y="461"/>
      <point x="189" y="461"/>
      <point x="132" y="370"/>
      <point x="132" y="150"/>
    </contour>
  </outline>
</glyph>
<glyph name="otilde" format="2">
  <advance width="500"/>
  <unicode hex="00F5"/>
  <outline>
    <contour>
      <point x="50" y="530"/>
      <point x="450" y="530"/>
      <point x="450" y="-10"/>
      <point x="50" y="-10"/>
    </contour>
    <contour>
      <point x="85" y="585" type="line"/>
      <point x="85" y="671"/>
      <point x="118" y="740"/>
      <point x="152" y="740" type="qcurve"/>
      <point x="189" y="740"/>
      <point x="258" y="688" type="qcurve"/>
      <point x="306" y="650"/>
      <point x="325" y="650" type="qcurve"/>
      <point x="333" y="650"/>
      <point x="340" y="660"/>
      <point x="345" y="695"/>
      <point x="345" y="730" type="qcurve"/>
      <point x="415" y="730" type="line"/>
      <point x="415" y="644"/>
      <point x="382" y="575"/>
      <point x="348" y="575" type="qcurve"/>
      <point x="310" y="575"/>
      <point x="242" y="628" type="qcurve"/>
      <point x="193" y="665"/>
      <point x="175" y="665" type="qcurve"/>
      <point x="167" y="665"/>
      <point x="160" y="655"/>
      <point x="155" y="620"/>
      <point x="155" y="585" type="qcurve"/>
    </contour>
    <contour>
      <point x="189" y="59"/>
      <point x="311" y="59"/>
      <point x="368" y="150"/>
      <point x="368" y="370"/>
      <point x="311" y="461"/>
      <point x="189" y="461"/>
      <point x="132" y="370"/>
      <point x="132" y="150"/>
    </contour>
  </outline>
</glyph>
<glyph name="odieresis" format="2">
  <advance width="500"/>
  <unicode hex="00F6"/>
  <outline>
    <contour>
      <point x="50" y="530"/>
      <point x="450" y="530"/>
      <point x="450" y="-10"/>
      <point x="50" y="-10"/>
    </contour>
    <contour>
      <point x="290" y="610" type="line"/>
      <point x="290" y="740" type="line"/>
      <point x="370" y="740" type="line"/>
      <point x="370" y="610" type="line"/>
    </contour>
    <contour>
      <point x="130" y="610" type="line"/>
      <point x="130" y="740" type="line"/>
      <point x="210" y="740" type="line"/>
      <point x="210" y="610" type="line"/>
    </contour>
    <contour>
      <point x="189" y="59"/>
      <point x="311" y="59"/>
      <point x="368" y="150"/>
      <point x="368" y="370"/>
      <point x="311" y="461"/>
      <point x="189" y="461"/>
      <point x="132" y="370"/>
      <point x="132" y="150"/>
    </contour>
  </outline>
</glyph>
<glyph name="divide" format="2">
  <advance width="500"/>
  <unicode hex="00F7"/>
  <outline>
    <contour>
      <point x="60" y="254" type="line"/>
      <point x="60" y="326" type="line"/>
      <point x="440" y="326" type="line"/>
      <point x="440" y="254" type="line"/>
    </contour>
    <contour>
      <point x="205" y="430" type="line"/>
      <point x="205" y="580" type="line"/>
      <point x="295" y="580" type="line"/>
      <point x="295" y="430" type="line"/>
    </contour>
    <contour>
      <point x="205" y="0" type="line"/>
      <point x="205" y="150" type="line"/>
      <point x="295" y="150" type="line"/>
      <point x="295" y="0" type="line"/>
    </contour>
  </outline>
</glyph>
<glyph name="oslash" format="2">
  <advance width="500"/>
  <unicode hex="00F8"/>
  <outline>
    <contour>
      <point x="250" y="59" type="qcurve"/>
      <point x="311" y="59"/>
      <point x="368" y="150"/>
      <point x="368" y="260" type="qcurve"/>
      <point x="368" y="314"/>
      <point x="360" y="356" type="qcurve"/>
      <point x="172" y="89" type="line"/>
      <point x="201" y="59"/>
    </contour>
    <contour>
      <point x="250" y="-10" type="qcurve"/>
      <point x="175" y="-10"/>
      <point x="129" y="27" type="qcurve"/>
      <point x="89" y="-30" type="line"/>
      <point x="31" y="10" type="line"/>
      <point x="83" y="84" type="line"/>
      <point x="50" y="147"/>
      <point x="50" y="260" type="qcurve"/>
      <point x="50" y="530"/>
      <point x="250" y="530" type="qcurve"/>
      <point x="325" y="530"/>
      <point x="371" y="493" type="qcurve"/>
      <point x="411" y="550" type="line"/>
      <point x="469" y="510" type="line"/>
      <point x="417" y="436" type="line"/>
      <point x="450" y="373"/>
      <point x="450" y="260" type="qcurve"/>
      <point x="450" y="-10"/>
    </contour>
    <contour>
      <point x="140" y="164" type="qcurve"/>
      <point x="328" y="431" type="line"/>
      <point x="299" y="461"/>
      <point x="250" y="461" type="qcurve"/>
      <point x="189" y="461"/>
      <point x="132" y="370"/>
      <point x="132" y="260" type="qcurve"/>
      <point x="132" y="206"/>
    </contour>
  </outline>
</glyph>
<glyph name="ugrave" format="2">
  <advance width="500"/>
  <unicode hex="00F9"/>
  <outline>
    <contour>
      <point x="65" y="520" type="line"/>
      <point x="142" y="520" type="line"/>
      <point x="142" y="198" type="line"/>
      <point x="142" y="115"/>
      <point x="179" y="61"/>
      <point x="230" y="61" type="qcurve"/>
      <point x="279" y="61"/>
      <point x="346" y="171"/>
      <point x="346" y="268" type="qcurve"/>
      <point x="346" y="520" type="line"/>
      <point x="425" y="520" type="line"/>
      <point x="425" y="0" type="line"/>
      <point x="351" y="0" type="line"/>
      <point x="349" y="75" type="line"/>
      <point x="347" y="75" type="line"/>
      <point x="328" y="35"/>
      <point x="254" y="-10"/>
      <point x="210" y="-10" type="qcurve"/>
      <point x="133" y="-10"/>
      <point x="65" y="76"/>
      <point x="65" y="180" type="qcurve"/>
    </contour>
    <contour>
      <point x="240" y="760" type="line"/>
      <point x="350" y="590" type="line"/>
      <point x="270" y="590" type="line"/>
      <point x="120" y="760" type="line"/>
    </contour>
  </outline>
</glyph>
<glyph name="uacute" format="2">
  <advance width="500"/>
  <unicode hex="00FA"/>
  <outline>
    <contour>
      <point x="65" y="520" type="line"/>
      <point x="142" y="520" type="line"/>
      <point x="142" y="198" type="line"/>
      <point x="142" y="115"/>
      <point x="179" y="61"/>
      <point x="230" y="61" type="qcurve"/>
      <point x="279" y="61"/>
      <point x="346" y="171"/>
      <point x="346" y="268" type="qcurve"/>
      <point x="346" y="520" type="line"/>
      <point x="425" y="520" type="line"/>
      <point x="425" y="0" type="line"/>
      <point x="351" y="0" type="line"/>
      <point x="349" y="75" type="line"/>
      <point x="347" y="75" type="line"/>
      <point x="328" y="35"/>
      <point x="254" y="-10"/>
      <point x="210" y="-10" type="qcurve"/>
      <point x="133" y="-10"/>
      <point x="65" y="76"/>
      <point x="65" y="180" type="qcurve"/>
    </contour>
    <contour>
      <point x="260" y="760" type="line"/>
      <point x="380" y="760" type="line"/>
      <point x="230" y="590" type="line"/>
      <point x="150" y="590" type="line"/>
    </contour>
  </outline>
</glyph>
<glyph name="ucircumflex" format="2">
  <advance width="500"/>
  <unicode hex="00FB"/>
  <outline>
    <contour>
      <point x="65" y="520" type="line"/>
      <point x="142" y="520" type="line"/>
      <point x="142" y="198" type="line"/>
      <point x="142" y="115"/>
      <point x="179" y="61"/>
      <point x="230" y="61" type="qcurve"/>
      <point x="279" y="61"/>
      <point x="346" y="171"/>
      <point x="346" y="268" type="qcurve"/>
      <point x="346" y="520" type="line"/>
      <point x="425" y="520" type="line"/>
      <point x="425" y="0" type="line"/>
      <point x="351" y="0" type="line"/>
      <point x="349" y="75" type="line"/>
      <point x="347" y="75" type="line"/>
      <point x="328" y="35"/>
      <point x="254" y="-10"/>
      <point x="210" y="-10" type="qcurve"/>
      <point x="133" y="-10"/>
      <point x="65" y="76"/>
      <point x="65" y="180" type="qcurve"/>
    </contour>
    <contour>
      <point x="249" y="720" type="line"/>
      <point x="168" y="590" type="line"/>
      <point x="60" y="590" type="line"/>
      <point x="190" y="760" type="line"/>
      <point x="310" y="760" type="line"/>
      <point x="440" y="590" type="line"/>
      <point x="332" y="590" type="line"/>
      <point x="251" y="720" type="line"/>
    </contour>
  </outline>
</glyph>
<glyph name="udieresis" format="2">
  <advance width="500"/>
  <unicode hex="00FC"/>
  <outline>
    <contour>
      <point x="65" y="520" type="line"/>
      <point x="142" y="520" type="line"/>
      <point x="142" y="198" type="line"/>
      <point x="142" y="115"/>
      <point x="179" y="61"/>
      <point x="230" y="61" type="qcurve"/>
      <point x="279" y="61"/>
      <point x="346" y="171"/>
      <point x="346" y="268" type="qcurve"/>
      <point x="346" y="520" type="line"/>
      <point x="425" y="520" type="line"/>
      <point x="425" y="0" type="line"/>
      <point x="351" y="0" type="line"/>
      <point x="349" y="75" type="line"/>
      <point x="347" y="75" type="line"/>
      <point x="328" y="35"/>
      <point x="254" y="-10"/>
      <point x="210" y="-10" type="qcurve"/>
      <point x="133" y="-10"/>
      <point x="65" y="76"/>
      <point x="65" y="180" type="qcurve"/>
    </contour>
    <contour>
      <point x="290" y="610" type="line"/>
      <point x="290" y="740" type="line"/>
      <point x="370" y="740" type="line"/>
      <point x="370" y="610" type="line"/>
    </contour>
    <contour>
      <point x="130" y="610" type="line"/>
      <point x="130" y="740" type="line"/>
      <point x="210" y="740" type="line"/>
      <point x="210" y="610" type="line"/>
    </contour>
  </outline>
</glyph>
<glyph name="yacute" format="2">
  <advance width="500"/>
  <unicode hex="00FD"/>
  <outline>
    <contour>
      <point x="261" y="120" type="line"/>
      <point x="378" y="520" type="line"/>
      <point x="465" y="520" type="line"/>
      <point x="225" y="-220" type="line"/>
      <point x="142" y="-220" type="line"/>
      <point x="220" y="10" type="line"/>
      <point x="45" y="520" type="line"/>
      <point x="133" y="520" type="line"/>
      <point x="259" y="120" type="line"/>
    </contour>
    <contour>
      <point x="260" y="760" type="line"/>
      <point x="380" y="760" type="line"/>
      <point x="230" y="590" type="line"/>
      <point x="150" y="590" type="line"/>
    </contour>
  </outline>
</glyph>
<glyph name="thorn" format="2">
  <advance width="500"/>
  <unicode hex="00FE"/>
  <outline>
    <contour>
      <point x="144" y="730" type="line"/>
      <point x="144" y="445" type="line"/>
      <point x="146" y="445" type="line"/>
      <point x="189" y="530"/>
      <point x="285" y="530" type="qcurve"/>
      <point x="460" y="530"/>
      <point x="460" y="260" type="qcurve"/>
      <point x="460" y="125"/>
      <point x="364" y="-10"/>
      <point x="285" y="-10" type="qcurve"/>
      <point x="194" y="-10"/>
      <point x="151" y="75" type="qcurve"/>
      <point x="149" y="75" type="line"/>
      <point x="149" y="-220" type="line"/>
      <point x="70" y="-220" type="line"/>
      <point x="70" y="730" type="line"/>
    </contour>
    <contour>
      <point x="381" y="260" type="qcurve"/>
      <point x="381" y="455"/>
      <point x="265" y="455" type="qcurve"/>
      <point x="214" y="455"/>
      <point x="149" y="356"/>
      <point x="149" y="265" type="qcurve"/>
      <point x="149" y="255" type="line"/>
      <point x="149" y="164"/>
      <point x="214" y="65"/>
      <point x="265" y="65" type="qcurve"/>
      <point x="318" y="65"/>
      <point x="381" y="162"/>
    </contour>
  </outline>
</glyph>
<glyph name="ydieresis" format="2">
  <advance width="500"/>
  <unicode hex="00FF"/>
  <outline>
    <contour>
      <point x="261" y="120" type="line"/>
      <point x="378" y="520" type="line"/>
      <point x="465" y="520" type="line"/>
      <point x="225" y="-220" type="line"/>
      <point x="142" y="-220" type="line"/>
      <point x="220" y="10" type="line"/>
      <point x="45" y="520" type="line"/>
      <point x="133" y="520" type="line"/>
      <point x="259" y="120" type="line"/>
    </contour>
    <contour>
      <point x="290" y="610" type="line"/>
      <point x="290" y="740" type="line"/>
      <point x="370" y="740" type="line"/>
      <point x="370" y="610" type="line"/>
    </contour>
    <contour>
      <point x="130" y="610" type="line"/>
      <point x="130" y="740" type="line"/>
      <point x="210" y="740" type="line"/>
      <point x="210" y="610" type="line"/>
    </contour>
  </outline>
</glyph>
<glyph name="amacron" format="2">
  <advance width="500"/>
  <unicode hex="0101"/>
  <outline>
    <contour>
      <point x="100" y="640" type="line"/>
      <point x="100" y="700" type="line"/>
      <point x="400" y="700" type="line"/>
      <point x="400" y="640" type="line"/>
    </contour>
    <contour>
      <point x="255" y="530" type="qcurve"/>
      <point x="355" y="530"/>
      <point x="430" y="450"/>
      <point x="430" y="340" type="qcurve"/>
      <point x="430" y="0" type="line"/>
      <point x="358" y="0" type="line"/>
      <point x="356" y="75" type="line"/>
      <point x="354" y="75" type="line"/>
      <point x="307" y="-10"/>
      <point x="205" y="-10" type="qcurve"/>
      <point x="140" y="-10"/>
      <point x="60" y="73"/>
      <point x="60" y="145" type="qcurve"/>
      <point x="60" y="236"/>
      <point x="183" y="335"/>
      <point x="305" y="335" type="qcurve"/>
      <point x="353" y="335" type="line"/>
      <point x="353" y="360" type="line"/>
      <point x="353" y="417"/>
      <point x="309" y="463"/>
      <point x="255" y="463" type="qcurve"/>
      <point x="222" y="463"/>
      <point x="120" y="439"/>
      <point x="85" y="423" type="qcurve"/>
      <point x="85" y="495" type="line"/>
      <point x="120" y="510"/>
      <point x="220" y="530"/>
    </contour>
    <contour>
      <point x="353" y="275" type="line"/>
      <point x="305" y="275" type="line"/>
      <point x="135" y="275"/>
      <point x="135" y="150" type="qcurve"/>
      <point x="135" y="105"/>
      <point x="181" y="57"/>
      <point x="220" y="57" type="qcurve"/>
      <point x="279" y="57"/>
      <point x="353" y="153"/>
      <point x="353" y="240" type="qcurve"/>
    </contour>
  </outline>
</glyph>
<glyph name="Abreve" format="2">
  <advance width="500"/>
  <unicode hex="0102"/>
  <outline>
    <contour>
      <point x="328" y="785"/>
      <point x="172" y="785"/>
      <point x="80" y="871"/>
      <point x="80" y="945" type="qcurve"/>
      <point x="155" y="945" type="line"/>
      <point x="157" y="902"/>
      <point x="208" y="855"/>
      <point x="292" y="855"/>
      <point x="343" y="902"/>
      <point x="345" y="945" type="qcurve"/>
      <point x="420" y="945" type="line"/>
      <point x="420" y="871"/>
    </contour>
    <contour>
      <point x="249" y="660" type="line"/>
      <point x="247" y="660" type="line"/>
      <point x="164" y="280" type="line"/>
      <point x="332" y="280" type="line"/>
    </contour>
    <contour>
      <point x="348" y="210" type="line"/>
      <point x="148" y="210" type="line"/>
      <point x="102" y="0" type="line"/>
      <point x="20" y="0" type="line"/>
      <point x="200" y="730" type="line"/>
      <point x="300" y="730" type="line"/>
      <point x="480" y="0" type="line"/>
      <point x="394" y="0" type="line"/>
    </contour>
  </outline>
</glyph>
<glyph name="abreve" format="2">
  <advance width="500"/>
  <unicode hex="0103"/>
  <outline>
    <contour>
      <point x="328" y="585"/>
      <point x="172" y="585"/>
      <point x="80" y="671"/>
      <point x="80" y="745" type="qcurve"/>
      <point x="155" y="745" type="line"/>
      <point x="157" y="702"/>
      <point x="208" y="655"/>
      <point x="292" y="655"/>
      <point x="343" y="702"/>
      <point x="345" y="745" type="qcurve"/>
      <point x="420" y="745" type="line"/>
      <point x="420" y="671"/>
    </contour>
    <contour>
      <point x="255" y="530" type="qcurve"/>
      <point x="355" y="530"/>
      <point x="430" y="450"/>
      <point x="430" y="340" type="qcurve"/>
      <point x="430" y="0" type="line"/>
      <point x="358" y="0" type="line"/>
      <point x="356" y="75" type="line"/>
      <point x="354" y="75" type="line"/>
      <point x="307" y="-10"/>
      <point x="205" y="-10" type="qcurve"/>
      <point x="140" y="-10"/>
      <point x="60" y="73"/>
      <point x="60" y="145" type="qcurve"/>
      <point x="60" y="236"/>
      <point x="183" y="335"/>
      <point x="305" y="335" type="qcurve"/>
      <point x="353" y="335" type="line"/>
      <point x="353" y="360" type="line"/>
      <point x="353" y="417"/>
      <point x="309" y="463"/>
      <point x="255" y="463" type="qcurve"/>
      <point x="222" y="463"/>
      <point x="120" y="439"/>
      <point x="85" y="423" type="qcurve"/>
      <point x="85" y="495" type="line"/>
      <point x="120" y="510"/>
      <point x="220" y="530"/>
    </contour>
    <contour>
      <point x="353" y="275" type="line"/>
      <point x="305" y="275" type="line"/>
      <point x="135" y="275"/>
      <point x="135" y="150" type="qcurve"/>
      <point x="135" y="105"/>
      <point x="181" y="57"/>
      <point x="220" y="57" type="qcurve"/>
      <point x="279" y="57"/>
      <point x="353" y="153"/>
      <point x="353" y="240" type="qcurve"/>
    </contour>
  </outline>
</glyph>
<glyph name="Aogonek" format="2">
  <advance width="500"/>
  <unicode hex="0104"/>
  <outline>
    <contour>
      <point x="249" y="660" type="line"/>
      <point x="247" y="660" type="line"/>
      <point x="164" y="280" type="line"/>
      <point x="332" y="280" type="line"/>
    </contour>
    <contour>
      <point x="385" y="42" type="qcurve"/>
      <point x="348" y="210" type="line"/>
      <point x="148" y="210" type="line"/>
      <point x="102" y="0" type="line"/>
      <point x="20" y="0" type="line"/>
      <point x="200" y="730" type="line"/>
      <point x="300" y="730" type="line"/>
      <point x="480" y="0" type="line"/>
      <point x="402" y="-6"/>
      <point x="315" y="-59"/>
      <point x="315" y="-92" type="qcurve"/>
      <point x="315" y="-150"/>
      <point x="395" y="-150" type="qcurve"/>
      <point x="446" y="-150"/>
      <point x="488" y="-128" type="qcurve"/>
      <point x="488" y="-201" type="line"/>
      <point x="439" y="-220"/>
      <point x="385" y="-220" type="qcurve"/>
      <point x="314" y="-220"/>
      <point x="238" y="-160"/>
      <point x="238" y="-105" type="qcurve"/>
      <point x="238" y="-57"/>
      <point x="313" y="21"/>
    </contour>
  </outline>
</glyph>
<glyph name="Cacute" format="2">
  <advance width="500"/>
  <unicode hex="0106"/>
  <outline>
    <contour>
      <point x="260" y="960" type="line"/>
      <point x="380" y="960" type="line"/>
      <point x="230" y="790" type="line"/>
      <point x="150" y="790" type="line"/>
    </contour>
    <contour>
      <point x="55" y="365" type="qcurve"/>
      <point x="55" y="562"/>
      <point x="176" y="740"/>
      <point x="295" y="740" type="qcurve"/>
      <point x="361" y="740"/>
      <point x="420" y="710" type="qcurve"/>
      <point x="420" y="635" type="line"/>
      <point x="360" y="668"/>
      <point x="300" y="668" type="qcurve"/>
      <point x="135" y="668"/>
      <point x="135" y="365" type="qcurve"/>
      <point x="135" y="201"/>
      <point x="219" y="62"/>
      <point x="300" y="62" type="qcurve"/>
      <point x="362" y="62"/>
      <point x="425" y="100" type="qcurve"/>
      <point x="425" y="20" type="line"/>
      <point x="366" y="-10"/>
      <point x="295" y="-10" type="qcurve"/>
      <point x="173" y="-10"/>
      <point x="55" y="162"/>
    </contour>
  </outline>
</glyph>
<glyph name="cacute" format="2">
  <advance width="500"/>
  <unicode hex="0107"/>
  <outline>
    <contour>
      <point x="260" y="760" type="line"/>
      <point x="380" y="760" type="line"/>
      <point x="230" y="590" type="line"/>
      <point x="150" y="590" type="line"/>
    </contour>
    <contour>
      <point x="80" y="260" type="qcurve"/>
      <point x="80" y="394"/>
      <point x="190" y="530"/>
      <point x="290" y="530" type="qcurve"/>
      <point x="351" y="530"/>
      <point x="415" y="505" type="qcurve"/>
      <point x="415" y="425" type="line"/>
      <point x="355" y="458"/>
      <point x="295" y="458" type="qcurve"/>
      <point x="232" y="458"/>
      <point x="162" y="358"/>
      <point x="162" y="260" type="qcurve"/>
      <point x="162" y="159"/>
      <point x="236" y="59"/>
      <point x="300" y="59" type="qcurve"/>
      <point x="359" y="59"/>
      <point x="420" y="95" type="qcurve"/>
      <point x="420" y="15" type="line"/>
      <point x="356" y="-10"/>
      <point x="295" y="-10" type="qcurve"/>
      <point x="193" y="-10"/>
      <point x="80" y="125"/>
    </contour>
  </outline>
</glyph>
<glyph name="Ccircumflex" format="2">
  <advance width="500"/>
  <unicode hex="0108"/>
  <outline>
    <contour>
      <point x="249" y="920" type="line"/>
      <point x="168" y="790" type="line"/>
      <point x="60" y="790" type="line"/>
      <point x="190" y="960" type="line"/>
      <point x="310" y="960" type="line"/>
      <point x="440" y="790" type="line"/>
      <point x="332" y="790" type="line"/>
      <point x="251" y="920" type="line"/>
    </contour>
    <contour>
      <point x="55" y="365" type="qcurve"/>
      <point x="55" y="562"/>
      <point x="176" y="740"/>
      <point x="295" y="740" type="qcurve"/>
      <point x="361" y="740"/>
      <point x="420" y="710" type="qcurve"/>
      <point x="420" y="635" type="line"/>
      <point x="360" y="668"/>
      <point x="300" y="668" type="qcurve"/>
      <point x="135" y="668"/>
      <point x="135" y="365" type="qcurve"/>
      <point x="135" y="201"/>
      <point x="219" y="62"/>
      <point x="300" y="62" type="qcurve"/>
      <point x="362" y="62"/>
      <point x="425" y="100" type="qcurve"/>
      <point x="425" y="20" type="line"/>
      <point x="366" y="-10"/>
      <point x="295" y="-10" type="qcurve"/>
      <point x="173" y="-10"/>
      <point x="55" y="162"/>
    </contour>
  </outline>
</glyph>
<glyph name="ccircumflex" format="2">
  <advance width="500"/>
  <unicode hex="0109"/>
  <outline>
    <contour>
      <point x="249" y="720" type="line"/>
      <point x="168" y="590" type="line"/>
      <point x="60" y="590" type="line"/>
      <point x="190" y="760" type="line"/>
      <point x="310" y="760" type="line"/>
      <point x="440" y="590" type="line"/>
      <point x="332" y="590" type="line"/>
      <point x="251" y="720" type="line"/>
    </contour>
    <contour>
      <point x="80" y="260" type="qcurve"/>
      <point x="80" y="394"/>
      <point x="190" y="530"/>
      <point x="290" y="530" type="qcurve"/>
      <point x="351" y="530"/>
      <point x="415" y="505" type="qcurve"/>
      <point x="415" y="425" type="line"/>
      <point x="355" y="458"/>
      <point x="295" y="458" type="qcurve"/>
      <point x="232" y="458"/>
      <point x="162" y="358"/>
      <point x="162" y="260" type="qcurve"/>
      <point x="162" y="159"/>
      <point x="236" y="59"/>
      <point x="300" y="59" type="qcurve"/>
      <point x="359" y="59"/>
      <point x="420" y="95" type="qcurve"/>
      <point x="420" y="15" type="line"/>
      <point x="356" y="-10"/>
      <point x="295" y="-10" type="qcurve"/>
      <point x="193" y="-10"/>
      <point x="80" y="125"/>
    </contour>
  </outline>
</glyph>
<glyph name="Cdotaccent" format="2">
  <advance width="500"/>
  <unicode hex="010A"/>
  <outline>
    <contour>
      <point x="208" y="810" type="line"/>
      <point x="208" y="940" type="line"/>
      <point x="292" y="940" type="line"/>
      <point x="292" y="810" type="line"/>
    </contour>
    <contour>
      <point x="55" y="365" type="qcurve"/>
      <point x="55" y="562"/>
      <point x="176" y="740"/>
      <point x="295" y="740" type="qcurve"/>
      <point x="361" y="740"/>
      <point x="420" y="710" type="qcurve"/>
      <point x="420" y="635" type="line"/>
      <point x="360" y="668"/>
      <point x="300" y="668" type="qcurve"/>
      <point x="135" y="668"/>
      <point x="135" y="365" type="qcurve"/>
      <point x="135" y="201"/>
      <point x="219" y="62"/>
      <point x="300" y="62" type="qcurve"/>
      <point x="362" y="62"/>
      <point x="425" y="100" type="qcurve"/>
      <point x="425" y="20" type="line"/>
      <point x="366" y="-10"/>
      <point x="295" y="-10" type="qcurve"/>
      <point x="173" y="-10"/>
      <point x="55" y="162"/>
    </contour>
  </outline>
</glyph>
<glyph name="cdotaccent" format="2">
  <advance width="500"/>
  <unicode hex="010B"/>
  <outline>
    <contour>
      <point x="208" y="610" type="line"/>
      <point x="208" y="740" type="line"/>
      <point x="292" y="740" type="line"/>
      <point x="292" y="610" type="line"/>
    </contour>
    <contour>
      <point x="80" y="260" type="qcurve"/>
      <point x="80" y="394"/>
      <point x="190" y="530"/>
      <point x="290" y="530" type="qcurve"/>
      <point x="351" y="530"/>
      <point x="415" y="505" type="qcurve"/>
      <point x="415" y="425" type="line"/>
      <point x="355" y="458"/>
      <point x="295" y="458" type="qcurve"/>
      <point x="232" y="458"/>
      <point x="162" y="358"/>
      <point x="162" y="260" type="qcurve"/>
      <point x="162" y="159"/>
      <point x="236" y="59"/>
      <point x="300" y="59" type="qcurve"/>
      <point x="359" y="59"/>
      <point x="420" y="95" type="qcurve"/>
      <point x="420" y="15" type="line"/>
      <point x="356" y="-10"/>
      <point x="295" y="-10" type="qcurve"/>
      <point x="193" y="-10"/>
      <point x="80" y="125"/>
    </contour>
  </outline>
</glyph>
<glyph name="Ccaron" format="2">
  <advance width="500"/>
  <unicode hex="010C"/>
  <outline>
    <contour>
      <point x="249" y="830" type="line"/>
      <point x="251" y="830" type="line"/>
      <point x="332" y="960" type="line"/>
      <point x="440" y="960" type="line"/>
      <point x="310" y="790" type="line"/>
      <point x="190" y="790" type="line"/>
      <point x="60" y="960" type="line"/>
      <point x="168" y="960" type="line"/>
    </contour>
    <contour>
      <point x="55" y="365" type="qcurve"/>
      <point x="55" y="562"/>
      <point x="176" y="740"/>
      <point x="295" y="740" type="qcurve"/>
      <point x="361" y="740"/>
      <point x="420" y="710" type="qcurve"/>
      <point x="420" y="635" type="line"/>
      <point x="360" y="668"/>
      <point x="300" y="668" type="qcurve"/>
      <point x="135" y="668"/>
      <point x="135" y="365" type="qcurve"/>
      <point x="135" y="201"/>
      <point x="219" y="62"/>
      <point x="300" y="62" type="qcurve"/>
      <point x="362" y="62"/>
      <point x="425" y="100" type="qcurve"/>
      <point x="425" y="20" type="line"/>
      <point x="366" y="-10"/>
      <point x="295" y="-10" type="qcurve"/>
      <point x="173" y="-10"/>
      <point x="55" y="162"/>
    </contour>
  </outline>
</glyph>
<glyph name="ccaron" format="2">
  <advance width="500"/>
  <unicode hex="010D"/>
  <outline>
    <contour>
      <point x="249" y="630" type="line"/>
      <point x="251" y="630" type="line"/>
      <point x="332" y="760" type="line"/>
      <point x="440" y="760" type="line"/>
      <point x="310" y="590" type="line"/>
      <point x="190" y="590" type="line"/>
      <point x="60" y="760" type="line"/>
      <point x="168" y="760" type="line"/>
    </contour>
    <contour>
      <point x="80" y="260" type="qcurve"/>
      <point x="80" y="394"/>
      <point x="190" y="530"/>
      <point x="290" y="530" type="qcurve"/>
      <point x="351" y="530"/>
      <point x="415" y="505" type="qcurve"/>
      <point x="415" y="425" type="line"/>
      <point x="355" y="458"/>
      <point x="295" y="458" type="qcurve"/>
      <point x="232" y="458"/>
      <point x="162" y="358"/>
      <point x="162" y="260" type="qcurve"/>
      <point x="162" y="159"/>
      <point x="236" y="59"/>
      <point x="300" y="59" type="qcurve"/>
      <point x="359" y="59"/>
      <point x="420" y="95" type="qcurve"/>
      <point x="420" y="15" type="line"/>
      <point x="356" y="-10"/>
      <point x="295" y="-10" type="qcurve"/>
      <point x="193" y="-10"/>
      <point x="80" y="125"/>
    </contour>
  </outline>
</glyph>
<glyph name="Dcaron" format="2">
  <advance width="500"/>
  <unicode hex="010E"/>
  <outline>
    <contour>
      <point x="249" y="830" type="line"/>
      <point x="251" y="830" type="line"/>
      <point x="332" y="960" type="line"/>
      <point x="440" y="960" type="line"/>
      <point x="310" y="790" type="line"/>
      <point x="190" y="790" type="line"/>
      <point x="60" y="960" type="line"/>
      <point x="168" y="960" type="line"/>
    </contour>
    <contour>
      <point x="383" y="365" type="qcurve"/>
      <point x="383" y="533"/>
      <point x="296" y="668"/>
      <point x="202" y="668" type="qcurve"/>
      <point x="169" y="668"/>
      <point x="147" y="660" type="qcurve"/>
      <point x="147" y="70" type="line"/>
      <point x="169" y="62"/>
      <point x="202" y="62" type="qcurve"/>
      <point x="267" y="62"/>
      <point x="342" y="111"/>
      <point x="383" y="245"/>
    </contour>
    <contour>
      <point x="465" y="365" type="qcurve"/>
      <point x="465" y="158"/>
      <point x="338" y="-10"/>
      <point x="202" y="-10" type="qcurve"/>
      <point x="132" y="-10"/>
      <point x="65" y="5" type="qcurve"/>
      <point x="65" y="725" type="line"/>
      <point x="132" y="740"/>
      <point x="202" y="740" type="qcurve"/>
      <point x="339" y="740"/>
      <point x="465" y="569"/>
    </contour>
  </outline>
</glyph>
<glyph name="dcaron" format="2">
  <advance width="500"/>
  <unicode hex="010F"/>
  <outline>
    <contour>
      <point x="408" y="960" type="line"/>
      <point x="488" y="960" type="line"/>
      <point x="455" y="720" type="line"/>
      <point x="425" y="720" type="line"/>
      <point x="425" y="0" type="line"/>
      <point x="351" y="0" type="line"/>
      <point x="349" y="75" type="line"/>
      <point x="347" y="75" type="line"/>
      <point x="294" y="-10"/>
      <point x="210" y="-10" type="qcurve"/>
      <point x="131" y="-10"/>
      <point x="35" y="125"/>
      <point x="35" y="260" type="qcurve"/>
      <point x="35" y="530"/>
      <point x="210" y="530" type="qcurve"/>
      <point x="301" y="530"/>
      <point x="344" y="445" type="qcurve"/>
      <point x="346" y="445" type="line"/>
      <point x="346" y="730" type="line"/>
      <point x="393" y="730" type="line"/>
    </contour>
    <contour>
      <point x="114" y="260" type="qcurve"/>
      <point x="114" y="162"/>
      <point x="177" y="65"/>
      <point x="230" y="65" type="qcurve"/>
      <point x="281" y="65"/>
      <point x="346" y="164"/>
      <point x="346" y="255" type="qcurve"/>
      <point x="346" y="265" type="line"/>
      <point x="346" y="356"/>
      <point x="281" y="455"/>
      <point x="230" y="455" type="qcurve"/>
      <point x="114" y="455"/>
    </contour>
  </outline>
</glyph>
<glyph name="Dcroat" format="2">
  <advance width="500"/>
  <unicode hex="0110"/>
  <outline>
    <contour>
      <point x="15" y="343" type="line"/>
      <point x="15" y="415" type="line"/>
      <point x="90" y="415" type="line"/>
      <point x="90" y="725" type="line"/>
      <point x="157" y="740"/>
      <point x="227" y="740" type="qcurve"/>
      <point x="350" y="740"/>
      <point x="470" y="567"/>
      <point x="470" y="365" type="qcurve"/>
      <point x="470" y="160"/>
      <point x="349" y="-10"/>
      <point x="227" y="-10" type="qcurve"/>
      <point x="157" y="-10"/>
      <point x="90" y="5" type="qcurve"/>
      <point x="90" y="343" type="line"/>
    </contour>
    <contour>
      <point x="172" y="343" type="line"/>
      <point x="172" y="70" type="line"/>
      <point x="194" y="62"/>
      <point x="227" y="62" type="qcurve"/>
      <point x="282" y="62"/>
      <point x="349" y="111"/>
      <point x="388" y="247"/>
      <point x="388" y="365" type="qcurve"/>
      <point x="388" y="531"/>
      <point x="307" y="668"/>
      <point x="227" y="668" type="qcurve"/>
      <point x="194" y="668"/>
      <point x="172" y="660" type="qcurve"/>
      <point x="172" y="415" type="line"/>
      <point x="295" y="415" type="line"/>
      <point x="295" y="343" type="line"/>
    </contour>
  </outline>
</glyph>
<glyph name="dcroat" format="2">
  <advance width="500"/>
  <unicode hex="0111"/>
  <outline>
    <contour>
      <point x="140" y="583" type="line"/>
      <point x="140" y="650" type="line"/>
      <point x="341" y="650" type="line"/>
      <point x="341" y="730" type="line"/>
      <point x="420" y="730" type="line"/>
      <point x="420" y="650" type="line"/>
      <point x="485" y="650" type="line"/>
      <point x="485" y="583" type="line"/>
      <point x="420" y="583" type="line"/>
      <point x="420" y="0" type="line"/>
      <point x="346" y="0" type="line"/>
      <point x="344" y="75" type="line"/>
      <point x="342" y="75" type="line"/>
      <point x="289" y="-10"/>
      <point x="205" y="-10" type="qcurve"/>
      <point x="126" y="-10"/>
      <point x="30" y="125"/>
      <point x="30" y="260" type="qcurve"/>
      <point x="30" y="530"/>
      <point x="205" y="530" type="qcurve"/>
      <point x="296" y="530"/>
      <point x="339" y="445" type="qcurve"/>
      <point x="341" y="445" type="line"/>
      <point x="341" y="583" type="line"/>
    </contour>
    <contour>
      <point x="109" y="260" type="qcurve"/>
      <point x="109" y="162"/>
      <point x="172" y="65"/>
      <point x="225" y="65" type="qcurve"/>
      <point x="276" y="65"/>
      <point x="341" y="164"/>
      <point x="341" y="255" type="qcurve"/>
      <point x="341" y="265" type="line"/>
      <point x="341" y="356"/>
      <point x="276" y="455"/>
      <point x="225" y="455" type="qcurve"/>
      <point x="109" y="455"/>
    </contour>
  </outline>
</glyph>
<glyph name="Emacron" format="2">
  <advance width="500"/>
  <unicode hex="0112"/>
  <outline>
    <contour>
      <point x="162" y="658" type="line"/>
      <point x="162" y="430" type="line"/>
      <point x="410" y="430" type="line"/>
      <point x="410" y="360" type="line"/>
      <point x="162" y="360" type="line"/>
      <point x="162" y="72" type="line"/>
      <point x="420" y="72" type="line"/>
      <point x="420" y="0" type="line"/>
      <point x="80" y="0" type="line"/>
      <point x="80" y="730" type="line"/>
      <point x="420" y="730" type="line"/>
      <point x="420" y="658" type="line"/>
    </contour>
    <contour>
      <point x="100" y="850" type="line"/>
      <point x="100" y="910" type="line"/>
      <point x="400" y="910" type="line"/>
      <point x="400" y="850" type="line"/>
    </contour>
  </outline>
</glyph>
<glyph name="emacron" format="2">
  <advance width="500"/>
  <unicode hex="0113"/>
  <outline>
    <contour>
      <point x="100" y="640" type="line"/>
      <point x="100" y="700" type="line"/>
      <point x="400" y="700" type="line"/>
      <point x="400" y="640" type="line"/>
    </contour>
    <contour>
      <point x="138" y="234" type="line"/>
      <point x="142" y="141"/>
      <point x="210" y="59"/>
      <point x="275" y="59" type="qcurve"/>
      <point x="336" y="59"/>
      <point x="410" y="95" type="qcurve"/>
      <point x="410" y="15" type="line"/>
      <point x="336" y="-10"/>
      <point x="270" y="-10" type="qcurve"/>
      <point x="55" y="-10"/>
      <point x="55" y="260" type="qcurve"/>
      <point x="55" y="401"/>
      <point x="155" y="530"/>
      <point x="255" y="530" type="qcurve"/>
      <point x="346" y="530"/>
      <point x="435" y="406"/>
      <point x="435" y="265" type="qcurve"/>
      <point x="435" y="254"/>
      <point x="433" y="234" type="qcurve"/>
    </contour>
    <contour>
      <point x="138" y="300" type="qcurve"/>
      <point x="356" y="300" type="line"/>
      <point x="355" y="461"/>
      <point x="255" y="461" type="qcurve"/>
      <point x="198" y="461"/>
      <point x="142" y="389"/>
    </contour>
  </outline>
</glyph>
<glyph name="Ebreve" format="2">
  <advance width="500"/>
  <unicode hex="0114"/>
  <outline>
    <contour>
      <point x="162" y="658" type="line"/>
      <point x="162" y="430" type="line"/>
      <point x="410" y="430" type="line"/>
      <point x="410" y="360" type="line"/>
      <point x="162" y="360" type="line"/>
      <point x="162" y="72" type="line"/>
      <point x="420" y="72" type="line"/>
      <point x="420" y="0" type="line"/>
      <point x="80" y="0" type="line"/>
      <point x="80" y="730" type="line"/>
      <point x="420" y="730" type="line"/>
      <point x="420" y="658" type="line"/>
    </contour>
    <contour>
      <point x="328" y="785"/>
      <point x="172" y="785"/>
      <point x="80" y="871"/>
      <point x="80" y="945" type="qcurve"/>
      <point x="155" y="945" type="line"/>
      <point x="157" y="902"/>
      <point x="208" y="855"/>
      <point x="292" y="855"/>
      <point x="343" y="902"/>
      <point x="345" y="945" type="qcurve"/>
      <point x="420" y="945" type="line"/>
      <point x="420" y="871"/>
    </contour>
  </outline>
</glyph>
<glyph name="ebreve" format="2">
  <advance width="500"/>
  <unicode hex="0115"/>
  <outline>
    <contour>
      <point x="328" y="585"/>
      <point x="172" y="585"/>
      <point x="80" y="671"/>
      <point x="80" y="745" type="qcurve"/>
      <point x="155" y="745" type="line"/>
      <point x="157" y="702"/>
      <point x="208" y="655"/>
      <point x="292" y="655"/>
      <point x="343" y="702"/>
      <point x="345" y="745" type="qcurve"/>
      <point x="420" y="745" type="line"/>
      <point x="420" y="671"/>
    </contour>
    <contour>
      <point x="138" y="234" type="line"/>
      <point x="142" y="141"/>
      <point x="210" y="59"/>
      <point x="275" y="59" type="qcurve"/>
      <point x="336" y="59"/>
      <point x="410" y="95" type="qcurve"/>
      <point x="410" y="15" type="line"/>
      <point x="336" y="-10"/>
      <point x="270" y="-10" type="qcurve"/>
      <point x="55" y="-10"/>
      <point x="55" y="260" type="qcurve"/>
      <point x="55" y="401"/>
      <point x="155" y="530"/>
      <point x="255" y="530" type="qcurve"/>
      <point x="346" y="530"/>
      <point x="435" y="406"/>
      <point x="435" y="265" type="qcurve"/>
      <point x="435" y="254"/>
      <point x="433" y="234" type="qcurve"/>
    </contour>
    <contour>
      <point x="138" y="300" type="qcurve"/>
      <point x="356" y="300" type="line"/>
      <point x="355" y="461"/>
      <point x="255" y="461" type="qcurve"/>
      <point x="198" y="461"/>
      <point x="142" y="389"/>
    </contour>
  </outline>
</glyph>
<glyph name="edotaccent" format="2">
  <advance width="500"/>
  <unicode hex="0117"/>
  <outline>
    <contour>
      <point x="208" y="610" type="line"/>
      <point x="208" y="740" type="line"/>
      <point x="292" y="740" type="line"/>
      <point x="292" y="610" type="line"/>
    </contour>
    <contour>
      <point x="138" y="234" type="line"/>
      <point x="142" y="141"/>
      <point x="210" y="59"/>
      <point x="275" y="59" type="qcurve"/>
      <point x="336" y="59"/>
      <point x="410" y="95" type="qcurve"/>
      <point x="410" y="15" type="line"/>
      <point x="336" y="-10"/>
      <point x="270" y="-10" type="qcurve"/>
      <point x="55" y="-10"/>
      <point x="55" y="260" type="qcurve"/>
      <point x="55" y="401"/>
      <point x="155" y="530"/>
      <point x="255" y="530" type="qcurve"/>
      <point x="346" y="530"/>
      <point x="435" y="406"/>
      <point x="435" y="265" type="qcurve"/>
      <point x="435" y="254"/>
      <point x="433" y="234" type="qcurve"/>
    </contour>
    <contour>
      <point x="138" y="300" type="qcurve"/>
      <point x="356" y="300" type="line"/>
      <point x="355" y="461"/>
      <point x="255" y="461" type="qcurve"/>
      <point x="198" y="461"/>
      <point x="142" y="389"/>
    </contour>
  </outline>
</glyph>
